<svg xmlns="http://www.w3.org/2000/svg" xmlns:xlink="http://www.w3.org/1999/xlink" width="1785" zoomAndPan="magnify" viewBox="0 0 1338.75 298.499991" height="398" preserveAspectRatio="xMidYMid meet" version="1.0"><defs><g/><clipPath id="e59d5cbda1"><path d="M 76.546875 75.265625 L 273.503906 75.265625 L 273.503906 214 L 76.546875 214 Z M 76.546875 75.265625 " clip-rule="nonzero"/></clipPath><clipPath id="da822ba7d1"><path d="M 202 112 L 273.503906 112 L 273.503906 222.796875 L 202 222.796875 Z M 202 112 " clip-rule="nonzero"/></clipPath></defs><g fill="#ffffff" fill-opacity="1"><g transform="translate(282.582185, 138.319167)"><g><path d="M 1.28125 -5.453125 L 4.53125 -5.921875 L 18.34375 -45.421875 L 27.671875 -45.421875 L 41.390625 -5.921875 L 44.640625 -5.453125 L 44.640625 0 L 29.171875 0 L 29.171875 -5.453125 L 32.3125 -6.015625 L 30.328125 -12.265625 L 15.59375 -12.265625 L 13.609375 -6.015625 L 16.75 -5.453125 L 16.75 0 L 1.28125 0 Z M 17.75 -18.96875 L 28.171875 -18.96875 L 23.046875 -34.96875 L 22.859375 -34.96875 Z M 17.75 -18.96875 "/></g></g></g><g fill="#ffffff" fill-opacity="1"><g transform="translate(328.463023, 138.319167)"><g><path d="M 23.359375 -45.421875 C 28.566406 -45.421875 32.671875 -44.082031 35.671875 -41.40625 C 38.679688 -38.738281 40.1875 -35.242188 40.1875 -30.921875 C 40.1875 -26.566406 38.679688 -23.066406 35.671875 -20.421875 C 32.671875 -17.785156 28.566406 -16.46875 23.359375 -16.46875 L 15.6875 -16.46875 L 15.6875 -6.390625 L 20.5625 -5.453125 L 20.5625 0 L 1.75 0 L 1.75 -5.453125 L 6.578125 -6.390625 L 6.578125 -39 L 1.75 -39.9375 L 1.75 -45.421875 Z M 15.6875 -23.484375 L 23.359375 -23.484375 C 25.898438 -23.484375 27.820312 -24.175781 29.125 -25.5625 C 30.425781 -26.945312 31.078125 -28.710938 31.078125 -30.859375 C 31.078125 -33.035156 30.425781 -34.835938 29.125 -36.265625 C 27.820312 -37.691406 25.898438 -38.40625 23.359375 -38.40625 L 15.6875 -38.40625 Z M 15.6875 -23.484375 "/></g></g></g><g fill="#ffffff" fill-opacity="1"><g transform="translate(369.790087, 138.319167)"><g/></g></g><g fill="#ffffff" fill-opacity="1"><g transform="translate(385.447584, 138.319167)"><g><path d="M 38.96875 -30.109375 L 32.1875 -30.109375 L 31.265625 -36.15625 C 30.367188 -37.050781 29.238281 -37.757812 27.875 -38.28125 C 26.507812 -38.800781 24.898438 -39.0625 23.046875 -39.0625 C 19.097656 -39.0625 16.054688 -37.625 13.921875 -34.75 C 11.796875 -31.882812 10.734375 -28.140625 10.734375 -23.515625 L 10.734375 -21.9375 C 10.734375 -17.3125 11.789062 -13.550781 13.90625 -10.65625 C 16.03125 -7.769531 19.023438 -6.328125 22.890625 -6.328125 C 24.679688 -6.328125 26.320312 -6.585938 27.8125 -7.109375 C 29.300781 -7.628906 30.453125 -8.335938 31.265625 -9.234375 L 32.1875 -15.28125 L 38.96875 -15.28125 L 38.96875 -6.296875 C 37.132812 -4.179688 34.796875 -2.492188 31.953125 -1.234375 C 29.117188 0.0234375 25.945312 0.65625 22.4375 0.65625 C 16.34375 0.65625 11.347656 -1.453125 7.453125 -5.671875 C 3.566406 -9.898438 1.625 -15.320312 1.625 -21.9375 L 1.625 -23.453125 C 1.625 -30.046875 3.554688 -35.460938 7.421875 -39.703125 C 11.296875 -43.953125 16.300781 -46.078125 22.4375 -46.078125 C 25.945312 -46.078125 29.113281 -45.4375 31.9375 -44.15625 C 34.769531 -42.875 37.113281 -41.1875 38.96875 -39.09375 Z M 38.96875 -30.109375 "/></g></g></g><g fill="#ffffff" fill-opacity="1"><g transform="translate(426.837029, 138.319167)"><g><path d="M 1.96875 -17.1875 C 1.96875 -22.21875 3.375 -26.335938 6.1875 -29.546875 C 9.007812 -32.765625 12.90625 -34.375 17.875 -34.375 C 22.863281 -34.375 26.765625 -32.769531 29.578125 -29.5625 C 32.398438 -26.363281 33.8125 -22.238281 33.8125 -17.1875 L 33.8125 -16.53125 C 33.8125 -11.457031 32.398438 -7.320312 29.578125 -4.125 C 26.765625 -0.9375 22.882812 0.65625 17.9375 0.65625 C 12.925781 0.65625 9.007812 -0.9375 6.1875 -4.125 C 3.375 -7.320312 1.96875 -11.457031 1.96875 -16.53125 Z M 11.078125 -16.53125 C 11.078125 -13.457031 11.613281 -10.988281 12.6875 -9.125 C 13.769531 -7.257812 15.519531 -6.328125 17.9375 -6.328125 C 20.289062 -6.328125 22.007812 -7.265625 23.09375 -9.140625 C 24.1875 -11.015625 24.734375 -13.476562 24.734375 -16.53125 L 24.734375 -17.1875 C 24.734375 -20.1875 24.179688 -22.628906 23.078125 -24.515625 C 21.984375 -26.410156 20.25 -27.359375 17.875 -27.359375 C 15.5 -27.359375 13.769531 -26.410156 12.6875 -24.515625 C 11.613281 -22.628906 11.078125 -20.1875 11.078125 -17.1875 Z M 11.078125 -16.53125 "/></g></g></g><g fill="#ffffff" fill-opacity="1"><g transform="translate(462.643416, 138.319167)"><g><path d="M 0.90625 -28.265625 L 0.90625 -33.75 L 14.21875 -33.75 L 14.59375 -29.296875 C 15.675781 -30.921875 17.035156 -32.171875 18.671875 -33.046875 C 20.304688 -33.929688 22.191406 -34.375 24.328125 -34.375 C 26.492188 -34.375 28.34375 -33.894531 29.875 -32.9375 C 31.414062 -31.988281 32.582031 -30.546875 33.375 -28.609375 C 34.414062 -30.421875 35.769531 -31.832031 37.4375 -32.84375 C 39.101562 -33.863281 41.054688 -34.375 43.296875 -34.375 C 46.628906 -34.375 49.253906 -33.222656 51.171875 -30.921875 C 53.097656 -28.628906 54.0625 -25.132812 54.0625 -20.4375 L 54.0625 -6.390625 L 58.46875 -5.453125 L 58.46875 0 L 41.03125 0 L 41.03125 -5.453125 L 44.953125 -6.390625 L 44.953125 -20.46875 C 44.953125 -23.019531 44.535156 -24.796875 43.703125 -25.796875 C 42.867188 -26.796875 41.632812 -27.296875 40 -27.296875 C 38.707031 -27.296875 37.585938 -27.007812 36.640625 -26.4375 C 35.691406 -25.863281 34.9375 -25.066406 34.375 -24.046875 C 34.375 -23.648438 34.382812 -23.3125 34.40625 -23.03125 C 34.425781 -22.757812 34.4375 -22.476562 34.4375 -22.1875 L 34.4375 -6.390625 L 38.125 -5.453125 L 38.125 0 L 21.6875 0 L 21.6875 -5.453125 L 25.359375 -6.390625 L 25.359375 -20.46875 C 25.359375 -22.957031 24.941406 -24.71875 24.109375 -25.75 C 23.273438 -26.78125 22.03125 -27.296875 20.375 -27.296875 C 19.144531 -27.296875 18.066406 -27.0625 17.140625 -26.59375 C 16.210938 -26.125 15.445312 -25.460938 14.84375 -24.609375 L 14.84375 -6.390625 L 18.78125 -5.453125 L 18.78125 0 L 1.375 0 L 1.375 -5.453125 L 5.765625 -6.390625 L 5.765625 -27.328125 Z M 0.90625 -28.265625 "/></g></g></g><g fill="#ffffff" fill-opacity="1"><g transform="translate(522.060827, 138.319167)"><g><path d="M 1.28125 -28.265625 L 1.28125 -33.75 L 14.5 -33.75 L 14.9375 -29.828125 C 15.9375 -31.273438 17.132812 -32.394531 18.53125 -33.1875 C 19.925781 -33.976562 21.546875 -34.375 23.390625 -34.375 C 27.578125 -34.375 30.820312 -32.738281 33.125 -29.46875 C 35.4375 -26.207031 36.59375 -21.914062 36.59375 -16.59375 L 36.59375 -15.9375 C 36.59375 -10.945312 35.4375 -6.929688 33.125 -3.890625 C 30.820312 -0.859375 27.597656 0.65625 23.453125 0.65625 C 21.691406 0.65625 20.125 0.328125 18.75 -0.328125 C 17.375 -0.984375 16.195312 -1.945312 15.21875 -3.21875 L 15.21875 6.546875 L 19.625 7.484375 L 19.625 12.984375 L 1.75 12.984375 L 1.75 7.484375 L 6.140625 6.546875 L 6.140625 -27.328125 Z M 27.484375 -16.59375 C 27.484375 -19.78125 26.953125 -22.359375 25.890625 -24.328125 C 24.828125 -26.304688 23.207031 -27.296875 21.03125 -27.296875 C 19.65625 -27.296875 18.484375 -27.015625 17.515625 -26.453125 C 16.546875 -25.890625 15.78125 -25.085938 15.21875 -24.046875 L 15.21875 -9.265625 C 15.78125 -8.304688 16.546875 -7.578125 17.515625 -7.078125 C 18.484375 -6.578125 19.675781 -6.328125 21.09375 -6.328125 C 23.289062 -6.328125 24.90625 -7.191406 25.9375 -8.921875 C 26.96875 -10.648438 27.484375 -12.988281 27.484375 -15.9375 Z M 27.484375 -16.59375 "/></g></g></g><g fill="#ffffff" fill-opacity="1"><g transform="translate(560.736715, 138.319167)"><g><path d="M 25.578125 -4.28125 C 24.492188 -2.695312 23.15625 -1.476562 21.5625 -0.625 C 19.976562 0.226562 18.164062 0.65625 16.125 0.65625 C 12.570312 0.65625 9.785156 -0.476562 7.765625 -2.75 C 5.742188 -5.03125 4.734375 -8.578125 4.734375 -13.390625 L 4.734375 -27.328125 L 1.03125 -28.265625 L 1.03125 -33.75 L 13.84375 -33.75 L 13.84375 -13.328125 C 13.84375 -10.867188 14.253906 -9.101562 15.078125 -8.03125 C 15.898438 -6.957031 17.125 -6.421875 18.75 -6.421875 C 20.1875 -6.421875 21.425781 -6.65625 22.46875 -7.125 C 23.519531 -7.59375 24.378906 -8.265625 25.046875 -9.140625 L 25.046875 -27.328125 L 21.0625 -28.265625 L 21.0625 -33.75 L 34.15625 -33.75 L 34.15625 -6.390625 L 38.25 -5.453125 L 38.25 0 L 26.171875 0 Z M 25.578125 -4.28125 "/></g></g></g><g fill="#ffffff" fill-opacity="1"><g transform="translate(600.597822, 138.319167)"><g><path d="M 15.40625 -42.015625 L 15.40625 -33.75 L 21.34375 -33.75 L 21.34375 -27.359375 L 15.40625 -27.359375 L 15.40625 -10.171875 C 15.40625 -8.859375 15.675781 -7.921875 16.21875 -7.359375 C 16.757812 -6.796875 17.488281 -6.515625 18.40625 -6.515625 C 19.03125 -6.515625 19.578125 -6.539062 20.046875 -6.59375 C 20.515625 -6.644531 21.039062 -6.734375 21.625 -6.859375 L 22.40625 -0.28125 C 21.382812 0.03125 20.375 0.265625 19.375 0.421875 C 18.375 0.578125 17.289062 0.65625 16.125 0.65625 C 12.988281 0.65625 10.570312 -0.207031 8.875 -1.9375 C 7.175781 -3.664062 6.328125 -6.398438 6.328125 -10.140625 L 6.328125 -27.359375 L 1.375 -27.359375 L 1.375 -33.75 L 6.328125 -33.75 L 6.328125 -42.015625 Z M 15.40625 -42.015625 "/></g></g></g><g fill="#ffffff" fill-opacity="1"><g transform="translate(624.42716, 138.319167)"><g><path d="M 18.125 0.65625 C 13.257812 0.65625 9.367188 -0.898438 6.453125 -4.015625 C 3.546875 -7.140625 2.09375 -11.101562 2.09375 -15.90625 L 2.09375 -17.15625 C 2.09375 -22.164062 3.46875 -26.289062 6.21875 -29.53125 C 8.976562 -32.78125 12.675781 -34.394531 17.3125 -34.375 C 21.863281 -34.375 25.398438 -33 27.921875 -30.25 C 30.441406 -27.507812 31.703125 -23.800781 31.703125 -19.125 L 31.703125 -14.15625 L 11.546875 -14.15625 L 11.484375 -13.96875 C 11.648438 -11.75 12.390625 -9.921875 13.703125 -8.484375 C 15.023438 -7.046875 16.820312 -6.328125 19.09375 -6.328125 C 21.113281 -6.328125 22.785156 -6.53125 24.109375 -6.9375 C 25.441406 -7.34375 26.898438 -7.984375 28.484375 -8.859375 L 30.953125 -3.25 C 29.554688 -2.144531 27.75 -1.21875 25.53125 -0.46875 C 23.320312 0.28125 20.851562 0.65625 18.125 0.65625 Z M 17.3125 -27.359375 C 15.625 -27.359375 14.289062 -26.710938 13.3125 -25.421875 C 12.34375 -24.128906 11.742188 -22.4375 11.515625 -20.34375 L 11.609375 -20.1875 L 22.78125 -20.1875 L 22.78125 -21 C 22.78125 -22.925781 22.328125 -24.46875 21.421875 -25.625 C 20.515625 -26.78125 19.144531 -27.359375 17.3125 -27.359375 Z M 17.3125 -27.359375 "/></g></g></g><g fill="#ffffff" fill-opacity="1"><g transform="translate(658.455721, 138.319167)"><g><path d="M 2.65625 -5.453125 L 7.015625 -6.390625 L 7.015625 -27.328125 L 2.1875 -28.265625 L 2.1875 -33.75 L 15.5 -33.75 L 15.90625 -28.828125 C 16.695312 -30.578125 17.71875 -31.9375 18.96875 -32.90625 C 20.21875 -33.882812 21.660156 -34.375 23.296875 -34.375 C 23.773438 -34.375 24.28125 -34.335938 24.8125 -34.265625 C 25.34375 -34.191406 25.785156 -34.101562 26.140625 -34 L 25.171875 -25.703125 L 21.4375 -25.796875 C 20.101562 -25.796875 19 -25.535156 18.125 -25.015625 C 17.25 -24.492188 16.582031 -23.757812 16.125 -22.8125 L 16.125 -6.390625 L 20.5 -5.453125 L 20.5 0 L 2.65625 0 Z M 2.65625 -5.453125 "/></g></g></g><g fill="#ffffff" fill-opacity="1"><g transform="translate(685.34169, 138.319167)"><g/></g></g><g fill="#ffffff" fill-opacity="1"><g transform="translate(700.999176, 138.319167)"><g><path d="M 36.25 -30.921875 L 29.421875 -30.921875 L 28.234375 -37.15625 C 27.441406 -37.65625 26.285156 -38.09375 24.765625 -38.46875 C 23.253906 -38.84375 21.644531 -39.03125 19.9375 -39.03125 C 17.4375 -39.03125 15.503906 -38.503906 14.140625 -37.453125 C 12.785156 -36.398438 12.109375 -35.039062 12.109375 -33.375 C 12.109375 -31.84375 12.816406 -30.582031 14.234375 -29.59375 C 15.660156 -28.601562 18.125 -27.554688 21.625 -26.453125 C 26.632812 -25.054688 30.429688 -23.210938 33.015625 -20.921875 C 35.609375 -18.640625 36.90625 -15.640625 36.90625 -11.921875 C 36.90625 -8.023438 35.363281 -4.953125 32.28125 -2.703125 C 29.207031 -0.460938 25.15625 0.65625 20.125 0.65625 C 16.519531 0.65625 13.265625 0.0820312 10.359375 -1.0625 C 7.460938 -2.207031 5.050781 -3.785156 3.125 -5.796875 L 3.125 -15.28125 L 10.171875 -15.28125 L 11.140625 -8.828125 C 12.054688 -8.078125 13.296875 -7.457031 14.859375 -6.96875 C 16.429688 -6.476562 18.1875 -6.234375 20.125 -6.234375 C 22.613281 -6.234375 24.507812 -6.742188 25.8125 -7.765625 C 27.113281 -8.785156 27.765625 -10.148438 27.765625 -11.859375 C 27.765625 -13.597656 27.144531 -15 25.90625 -16.0625 C 24.664062 -17.125 22.5 -18.125 19.40625 -19.0625 C 14.019531 -20.625 9.941406 -22.472656 7.171875 -24.609375 C 4.410156 -26.753906 3.03125 -29.6875 3.03125 -33.40625 C 3.03125 -37.09375 4.585938 -40.101562 7.703125 -42.4375 C 10.828125 -44.78125 14.75 -45.984375 19.46875 -46.046875 C 22.957031 -46.046875 26.132812 -45.515625 29 -44.453125 C 31.875 -43.390625 34.289062 -41.976562 36.25 -40.21875 Z M 36.25 -30.921875 "/></g></g></g><g fill="#ffffff" fill-opacity="1"><g transform="translate(739.737456, 138.319167)"><g><path d="M 17.8125 -6.328125 C 19.4375 -6.328125 20.734375 -6.800781 21.703125 -7.75 C 22.679688 -8.695312 23.171875 -9.960938 23.171875 -11.546875 L 31.421875 -11.546875 L 31.515625 -11.359375 C 31.597656 -7.941406 30.316406 -5.082031 27.671875 -2.78125 C 25.023438 -0.488281 21.738281 0.65625 17.8125 0.65625 C 12.78125 0.65625 8.898438 -0.929688 6.171875 -4.109375 C 3.453125 -7.296875 2.09375 -11.382812 2.09375 -16.375 L 2.09375 -17.3125 C 2.09375 -22.28125 3.488281 -26.363281 6.28125 -29.5625 C 9.082031 -32.769531 13.070312 -34.375 18.25 -34.375 C 20.976562 -34.375 23.421875 -33.96875 25.578125 -33.15625 C 27.742188 -32.351562 29.546875 -31.210938 30.984375 -29.734375 L 31.109375 -20.71875 L 23.703125 -20.71875 L 22.21875 -25.984375 C 21.757812 -26.378906 21.195312 -26.707031 20.53125 -26.96875 C 19.863281 -27.226562 19.101562 -27.359375 18.25 -27.359375 C 15.664062 -27.359375 13.84375 -26.421875 12.78125 -24.546875 C 11.726562 -22.679688 11.203125 -20.269531 11.203125 -17.3125 L 11.203125 -16.375 C 11.203125 -13.363281 11.6875 -10.9375 12.65625 -9.09375 C 13.632812 -7.25 15.351562 -6.328125 17.8125 -6.328125 Z M 17.8125 -6.328125 "/></g></g></g><g fill="#ffffff" fill-opacity="1"><g transform="translate(773.391735, 138.319167)"><g><path d="M 1.6875 -5.453125 L 6.078125 -6.390625 L 6.078125 -27.328125 L 1.21875 -28.265625 L 1.21875 -33.75 L 15.1875 -33.75 L 15.1875 -6.390625 L 19.5625 -5.453125 L 19.5625 0 L 1.6875 0 Z M 15.1875 -41.828125 L 6.078125 -41.828125 L 6.078125 -48.671875 L 15.1875 -48.671875 Z M 15.1875 -41.828125 "/></g></g></g><g fill="#ffffff" fill-opacity="1"><g transform="translate(793.977311, 138.319167)"><g><path d="M 18.125 0.65625 C 13.257812 0.65625 9.367188 -0.898438 6.453125 -4.015625 C 3.546875 -7.140625 2.09375 -11.101562 2.09375 -15.90625 L 2.09375 -17.15625 C 2.09375 -22.164062 3.46875 -26.289062 6.21875 -29.53125 C 8.976562 -32.78125 12.675781 -34.394531 17.3125 -34.375 C 21.863281 -34.375 25.398438 -33 27.921875 -30.25 C 30.441406 -27.507812 31.703125 -23.800781 31.703125 -19.125 L 31.703125 -14.15625 L 11.546875 -14.15625 L 11.484375 -13.96875 C 11.648438 -11.75 12.390625 -9.921875 13.703125 -8.484375 C 15.023438 -7.046875 16.820312 -6.328125 19.09375 -6.328125 C 21.113281 -6.328125 22.785156 -6.53125 24.109375 -6.9375 C 25.441406 -7.34375 26.898438 -7.984375 28.484375 -8.859375 L 30.953125 -3.25 C 29.554688 -2.144531 27.75 -1.21875 25.53125 -0.46875 C 23.320312 0.28125 20.851562 0.65625 18.125 0.65625 Z M 17.3125 -27.359375 C 15.625 -27.359375 14.289062 -26.710938 13.3125 -25.421875 C 12.34375 -24.128906 11.742188 -22.4375 11.515625 -20.34375 L 11.609375 -20.1875 L 22.78125 -20.1875 L 22.78125 -21 C 22.78125 -22.925781 22.328125 -24.46875 21.421875 -25.625 C 20.515625 -26.78125 19.144531 -27.359375 17.3125 -27.359375 Z M 17.3125 -27.359375 "/></g></g></g><g fill="#ffffff" fill-opacity="1"><g transform="translate(828.005849, 138.319167)"><g><path d="M 1.46875 -5.453125 L 5.828125 -6.390625 L 5.828125 -27.328125 L 1 -28.265625 L 1 -33.75 L 14.3125 -33.75 L 14.71875 -28.921875 C 15.84375 -30.648438 17.226562 -31.988281 18.875 -32.9375 C 20.519531 -33.894531 22.359375 -34.375 24.390625 -34.375 C 27.804688 -34.375 30.46875 -33.300781 32.375 -31.15625 C 34.289062 -29.019531 35.25 -25.664062 35.25 -21.09375 L 35.25 -6.390625 L 39.625 -5.453125 L 39.625 0 L 22.21875 0 L 22.21875 -5.453125 L 26.109375 -6.390625 L 26.109375 -21.0625 C 26.109375 -23.320312 25.648438 -24.925781 24.734375 -25.875 C 23.816406 -26.820312 22.4375 -27.296875 20.59375 -27.296875 C 19.382812 -27.296875 18.300781 -27.050781 17.34375 -26.5625 C 16.382812 -26.070312 15.582031 -25.378906 14.9375 -24.484375 L 14.9375 -6.390625 L 18.625 -5.453125 L 18.625 0 L 1.46875 0 Z M 1.46875 -5.453125 "/></g></g></g><g fill="#ffffff" fill-opacity="1"><g transform="translate(868.55313, 138.319167)"><g><path d="M 17.8125 -6.328125 C 19.4375 -6.328125 20.734375 -6.800781 21.703125 -7.75 C 22.679688 -8.695312 23.171875 -9.960938 23.171875 -11.546875 L 31.421875 -11.546875 L 31.515625 -11.359375 C 31.597656 -7.941406 30.316406 -5.082031 27.671875 -2.78125 C 25.023438 -0.488281 21.738281 0.65625 17.8125 0.65625 C 12.78125 0.65625 8.898438 -0.929688 6.171875 -4.109375 C 3.453125 -7.296875 2.09375 -11.382812 2.09375 -16.375 L 2.09375 -17.3125 C 2.09375 -22.28125 3.488281 -26.363281 6.28125 -29.5625 C 9.082031 -32.769531 13.070312 -34.375 18.25 -34.375 C 20.976562 -34.375 23.421875 -33.96875 25.578125 -33.15625 C 27.742188 -32.351562 29.546875 -31.210938 30.984375 -29.734375 L 31.109375 -20.71875 L 23.703125 -20.71875 L 22.21875 -25.984375 C 21.757812 -26.378906 21.195312 -26.707031 20.53125 -26.96875 C 19.863281 -27.226562 19.101562 -27.359375 18.25 -27.359375 C 15.664062 -27.359375 13.84375 -26.421875 12.78125 -24.546875 C 11.726562 -22.679688 11.203125 -20.269531 11.203125 -17.3125 L 11.203125 -16.375 C 11.203125 -13.363281 11.6875 -10.9375 12.65625 -9.09375 C 13.632812 -7.25 15.351562 -6.328125 17.8125 -6.328125 Z M 17.8125 -6.328125 "/></g></g></g><g fill="#ffffff" fill-opacity="1"><g transform="translate(902.207408, 138.319167)"><g><path d="M 18.125 0.65625 C 13.257812 0.65625 9.367188 -0.898438 6.453125 -4.015625 C 3.546875 -7.140625 2.09375 -11.101562 2.09375 -15.90625 L 2.09375 -17.15625 C 2.09375 -22.164062 3.46875 -26.289062 6.21875 -29.53125 C 8.976562 -32.78125 12.675781 -34.394531 17.3125 -34.375 C 21.863281 -34.375 25.398438 -33 27.921875 -30.25 C 30.441406 -27.507812 31.703125 -23.800781 31.703125 -19.125 L 31.703125 -14.15625 L 11.546875 -14.15625 L 11.484375 -13.96875 C 11.648438 -11.75 12.390625 -9.921875 13.703125 -8.484375 C 15.023438 -7.046875 16.820312 -6.328125 19.09375 -6.328125 C 21.113281 -6.328125 22.785156 -6.53125 24.109375 -6.9375 C 25.441406 -7.34375 26.898438 -7.984375 28.484375 -8.859375 L 30.953125 -3.25 C 29.554688 -2.144531 27.75 -1.21875 25.53125 -0.46875 C 23.320312 0.28125 20.851562 0.65625 18.125 0.65625 Z M 17.3125 -27.359375 C 15.625 -27.359375 14.289062 -26.710938 13.3125 -25.421875 C 12.34375 -24.128906 11.742188 -22.4375 11.515625 -20.34375 L 11.609375 -20.1875 L 22.78125 -20.1875 L 22.78125 -21 C 22.78125 -22.925781 22.328125 -24.46875 21.421875 -25.625 C 20.515625 -26.78125 19.144531 -27.359375 17.3125 -27.359375 Z M 17.3125 -27.359375 "/></g></g></g><g fill="#ffffff" fill-opacity="1"><g transform="translate(936.235947, 138.319167)"><g/></g></g><g fill="#ffffff" fill-opacity="1"><g transform="translate(951.893432, 138.319167)"><g><path d="M 23.359375 -45.421875 C 28.566406 -45.421875 32.671875 -44.082031 35.671875 -41.40625 C 38.679688 -38.738281 40.1875 -35.242188 40.1875 -30.921875 C 40.1875 -26.566406 38.679688 -23.066406 35.671875 -20.421875 C 32.671875 -17.785156 28.566406 -16.46875 23.359375 -16.46875 L 15.6875 -16.46875 L 15.6875 -6.390625 L 20.5625 -5.453125 L 20.5625 0 L 1.75 0 L 1.75 -5.453125 L 6.578125 -6.390625 L 6.578125 -39 L 1.75 -39.9375 L 1.75 -45.421875 Z M 15.6875 -23.484375 L 23.359375 -23.484375 C 25.898438 -23.484375 27.820312 -24.175781 29.125 -25.5625 C 30.425781 -26.945312 31.078125 -28.710938 31.078125 -30.859375 C 31.078125 -33.035156 30.425781 -34.835938 29.125 -36.265625 C 27.820312 -37.691406 25.898438 -38.40625 23.359375 -38.40625 L 15.6875 -38.40625 Z M 15.6875 -23.484375 "/></g></g></g><g fill="#ffffff" fill-opacity="1"><g transform="translate(993.220496, 138.319167)"><g><path d="M 2.65625 -5.453125 L 7.015625 -6.390625 L 7.015625 -27.328125 L 2.1875 -28.265625 L 2.1875 -33.75 L 15.5 -33.75 L 15.90625 -28.828125 C 16.695312 -30.578125 17.71875 -31.9375 18.96875 -32.90625 C 20.21875 -33.882812 21.660156 -34.375 23.296875 -34.375 C 23.773438 -34.375 24.28125 -34.335938 24.8125 -34.265625 C 25.34375 -34.191406 25.785156 -34.101562 26.140625 -34 L 25.171875 -25.703125 L 21.4375 -25.796875 C 20.101562 -25.796875 19 -25.535156 18.125 -25.015625 C 17.25 -24.492188 16.582031 -23.757812 16.125 -22.8125 L 16.125 -6.390625 L 20.5 -5.453125 L 20.5 0 L 2.65625 0 Z M 2.65625 -5.453125 "/></g></g></g><g fill="#ffffff" fill-opacity="1"><g transform="translate(1020.106465, 138.319167)"><g><path d="M 1.6875 -5.453125 L 6.078125 -6.390625 L 6.078125 -27.328125 L 1.21875 -28.265625 L 1.21875 -33.75 L 15.1875 -33.75 L 15.1875 -6.390625 L 19.5625 -5.453125 L 19.5625 0 L 1.6875 0 Z M 15.1875 -41.828125 L 6.078125 -41.828125 L 6.078125 -48.671875 L 15.1875 -48.671875 Z M 15.1875 -41.828125 "/></g></g></g><g fill="#ffffff" fill-opacity="1"><g transform="translate(1040.692042, 138.319167)"><g><path d="M 1.46875 -5.453125 L 5.828125 -6.390625 L 5.828125 -27.328125 L 1 -28.265625 L 1 -33.75 L 14.3125 -33.75 L 14.71875 -28.921875 C 15.84375 -30.648438 17.226562 -31.988281 18.875 -32.9375 C 20.519531 -33.894531 22.359375 -34.375 24.390625 -34.375 C 27.804688 -34.375 30.46875 -33.300781 32.375 -31.15625 C 34.289062 -29.019531 35.25 -25.664062 35.25 -21.09375 L 35.25 -6.390625 L 39.625 -5.453125 L 39.625 0 L 22.21875 0 L 22.21875 -5.453125 L 26.109375 -6.390625 L 26.109375 -21.0625 C 26.109375 -23.320312 25.648438 -24.925781 24.734375 -25.875 C 23.816406 -26.820312 22.4375 -27.296875 20.59375 -27.296875 C 19.382812 -27.296875 18.300781 -27.050781 17.34375 -26.5625 C 16.382812 -26.070312 15.582031 -25.378906 14.9375 -24.484375 L 14.9375 -6.390625 L 18.625 -5.453125 L 18.625 0 L 1.46875 0 Z M 1.46875 -5.453125 "/></g></g></g><g fill="#ffffff" fill-opacity="1"><g transform="translate(1081.239368, 138.319167)"><g><path d="M 17.8125 -6.328125 C 19.4375 -6.328125 20.734375 -6.800781 21.703125 -7.75 C 22.679688 -8.695312 23.171875 -9.960938 23.171875 -11.546875 L 31.421875 -11.546875 L 31.515625 -11.359375 C 31.597656 -7.941406 30.316406 -5.082031 27.671875 -2.78125 C 25.023438 -0.488281 21.738281 0.65625 17.8125 0.65625 C 12.78125 0.65625 8.898438 -0.929688 6.171875 -4.109375 C 3.453125 -7.296875 2.09375 -11.382812 2.09375 -16.375 L 2.09375 -17.3125 C 2.09375 -22.28125 3.488281 -26.363281 6.28125 -29.5625 C 9.082031 -32.769531 13.070312 -34.375 18.25 -34.375 C 20.976562 -34.375 23.421875 -33.96875 25.578125 -33.15625 C 27.742188 -32.351562 29.546875 -31.210938 30.984375 -29.734375 L 31.109375 -20.71875 L 23.703125 -20.71875 L 22.21875 -25.984375 C 21.757812 -26.378906 21.195312 -26.707031 20.53125 -26.96875 C 19.863281 -27.226562 19.101562 -27.359375 18.25 -27.359375 C 15.664062 -27.359375 13.84375 -26.421875 12.78125 -24.546875 C 11.726562 -22.679688 11.203125 -20.269531 11.203125 -17.3125 L 11.203125 -16.375 C 11.203125 -13.363281 11.6875 -10.9375 12.65625 -9.09375 C 13.632812 -7.25 15.351562 -6.328125 17.8125 -6.328125 Z M 17.8125 -6.328125 "/></g></g></g><g fill="#ffffff" fill-opacity="1"><g transform="translate(1114.8936, 138.319167)"><g><path d="M 1.6875 -5.453125 L 6.078125 -6.390625 L 6.078125 -27.328125 L 1.21875 -28.265625 L 1.21875 -33.75 L 15.1875 -33.75 L 15.1875 -6.390625 L 19.5625 -5.453125 L 19.5625 0 L 1.6875 0 Z M 15.1875 -41.828125 L 6.078125 -41.828125 L 6.078125 -48.671875 L 15.1875 -48.671875 Z M 15.1875 -41.828125 "/></g></g></g><g fill="#ffffff" fill-opacity="1"><g transform="translate(1135.479177, 138.319167)"><g><path d="M 1.28125 -28.265625 L 1.28125 -33.75 L 14.5 -33.75 L 14.9375 -29.828125 C 15.9375 -31.273438 17.132812 -32.394531 18.53125 -33.1875 C 19.925781 -33.976562 21.546875 -34.375 23.390625 -34.375 C 27.578125 -34.375 30.820312 -32.738281 33.125 -29.46875 C 35.4375 -26.207031 36.59375 -21.914062 36.59375 -16.59375 L 36.59375 -15.9375 C 36.59375 -10.945312 35.4375 -6.929688 33.125 -3.890625 C 30.820312 -0.859375 27.597656 0.65625 23.453125 0.65625 C 21.691406 0.65625 20.125 0.328125 18.75 -0.328125 C 17.375 -0.984375 16.195312 -1.945312 15.21875 -3.21875 L 15.21875 6.546875 L 19.625 7.484375 L 19.625 12.984375 L 1.75 12.984375 L 1.75 7.484375 L 6.140625 6.546875 L 6.140625 -27.328125 Z M 27.484375 -16.59375 C 27.484375 -19.78125 26.953125 -22.359375 25.890625 -24.328125 C 24.828125 -26.304688 23.207031 -27.296875 21.03125 -27.296875 C 19.65625 -27.296875 18.484375 -27.015625 17.515625 -26.453125 C 16.546875 -25.890625 15.78125 -25.085938 15.21875 -24.046875 L 15.21875 -9.265625 C 15.78125 -8.304688 16.546875 -7.578125 17.515625 -7.078125 C 18.484375 -6.578125 19.675781 -6.328125 21.09375 -6.328125 C 23.289062 -6.328125 24.90625 -7.191406 25.9375 -8.921875 C 26.96875 -10.648438 27.484375 -12.988281 27.484375 -15.9375 Z M 27.484375 -16.59375 "/></g></g></g><g fill="#ffffff" fill-opacity="1"><g transform="translate(1174.155111, 138.319167)"><g><path d="M 1 -43.171875 L 1 -48.671875 L 14.96875 -48.671875 L 14.96875 -6.390625 L 19.375 -5.453125 L 19.375 0 L 1.46875 0 L 1.46875 -5.453125 L 5.859375 -6.390625 L 5.859375 -42.234375 Z M 1 -43.171875 "/></g></g></g><g fill="#ffffff" fill-opacity="1"><g transform="translate(1194.522384, 138.319167)"><g><path d="M 18.125 0.65625 C 13.257812 0.65625 9.367188 -0.898438 6.453125 -4.015625 C 3.546875 -7.140625 2.09375 -11.101562 2.09375 -15.90625 L 2.09375 -17.15625 C 2.09375 -22.164062 3.46875 -26.289062 6.21875 -29.53125 C 8.976562 -32.78125 12.675781 -34.394531 17.3125 -34.375 C 21.863281 -34.375 25.398438 -33 27.921875 -30.25 C 30.441406 -27.507812 31.703125 -23.800781 31.703125 -19.125 L 31.703125 -14.15625 L 11.546875 -14.15625 L 11.484375 -13.96875 C 11.648438 -11.75 12.390625 -9.921875 13.703125 -8.484375 C 15.023438 -7.046875 16.820312 -6.328125 19.09375 -6.328125 C 21.113281 -6.328125 22.785156 -6.53125 24.109375 -6.9375 C 25.441406 -7.34375 26.898438 -7.984375 28.484375 -8.859375 L 30.953125 -3.25 C 29.554688 -2.144531 27.75 -1.21875 25.53125 -0.46875 C 23.320312 0.28125 20.851562 0.65625 18.125 0.65625 Z M 17.3125 -27.359375 C 15.625 -27.359375 14.289062 -26.710938 13.3125 -25.421875 C 12.34375 -24.128906 11.742188 -22.4375 11.515625 -20.34375 L 11.609375 -20.1875 L 22.78125 -20.1875 L 22.78125 -21 C 22.78125 -22.925781 22.328125 -24.46875 21.421875 -25.625 C 20.515625 -26.78125 19.144531 -27.359375 17.3125 -27.359375 Z M 17.3125 -27.359375 "/></g></g></g><g fill="#ffffff" fill-opacity="1"><g transform="translate(1228.550968, 138.319167)"><g><path d="M 29.515625 -22.15625 L 23.390625 -22.15625 L 22.4375 -26.359375 C 21.8125 -26.859375 21.023438 -27.273438 20.078125 -27.609375 C 19.128906 -27.941406 18.082031 -28.109375 16.9375 -28.109375 C 15.332031 -28.109375 14.0625 -27.75 13.125 -27.03125 C 12.195312 -26.3125 11.734375 -25.410156 11.734375 -24.328125 C 11.734375 -23.316406 12.175781 -22.472656 13.0625 -21.796875 C 13.957031 -21.117188 15.75 -20.519531 18.4375 -20 C 22.613281 -19.164062 25.710938 -17.941406 27.734375 -16.328125 C 29.753906 -14.710938 30.765625 -12.492188 30.765625 -9.671875 C 30.765625 -6.628906 29.457031 -4.144531 26.84375 -2.21875 C 24.226562 -0.300781 20.789062 0.65625 16.53125 0.65625 C 13.9375 0.65625 11.550781 0.273438 9.375 -0.484375 C 7.195312 -1.242188 5.269531 -2.332031 3.59375 -3.75 L 3.5 -11.328125 L 9.859375 -11.328125 L 11.109375 -6.921875 C 11.648438 -6.460938 12.382812 -6.125 13.3125 -5.90625 C 14.25 -5.6875 15.226562 -5.578125 16.25 -5.578125 C 18.101562 -5.578125 19.515625 -5.910156 20.484375 -6.578125 C 21.453125 -7.242188 21.9375 -8.148438 21.9375 -9.296875 C 21.9375 -10.296875 21.445312 -11.160156 20.46875 -11.890625 C 19.488281 -12.617188 17.6875 -13.257812 15.0625 -13.8125 C 11.09375 -14.625 8.09375 -15.828125 6.0625 -17.421875 C 4.039062 -19.015625 3.03125 -21.179688 3.03125 -23.921875 C 3.03125 -26.753906 4.191406 -29.191406 6.515625 -31.234375 C 8.847656 -33.285156 12.164062 -34.3125 16.46875 -34.3125 C 19.09375 -34.3125 21.570312 -33.957031 23.90625 -33.25 C 26.25 -32.539062 28.085938 -31.640625 29.421875 -30.546875 Z M 29.515625 -22.15625 "/></g></g></g><g fill="#a6a6a6" fill-opacity="1"><g transform="translate(281.669481, 197.732334)"><g><path d="M 14.421875 -21.402344 L 8.542969 -21.402344 L 8.542969 -36.007812 C 8.542969 -36.46875 8.265625 -36.742188 7.808594 -36.742188 L 3.078125 -36.742188 C 2.527344 -36.742188 2.296875 -36.46875 2.296875 -36.007812 L 2.296875 -0.734375 C 2.296875 -0.277344 2.527344 0 3.078125 0 L 7.808594 0 C 8.265625 0 8.542969 -0.277344 8.542969 -0.734375 L 8.542969 -15.339844 L 14.421875 -15.339844 L 14.421875 -0.734375 C 14.421875 -0.277344 14.699219 0 15.15625 0 L 19.886719 0 C 20.4375 0 20.667969 -0.277344 20.667969 -0.734375 L 20.667969 -36.007812 C 20.667969 -36.46875 20.4375 -36.742188 19.886719 -36.742188 L 15.15625 -36.742188 C 14.699219 -36.742188 14.421875 -36.46875 14.421875 -36.007812 Z M 14.421875 -21.402344 "/></g></g></g><g fill="#a6a6a6" fill-opacity="1"><g transform="translate(304.633377, 197.732334)"><g><path d="M 23.976562 0 C 24.527344 0 24.753906 -0.277344 24.617188 -0.78125 L 16.992188 -31.507812 C 16.902344 -31.964844 16.625 -32.152344 16.214844 -32.152344 L 9.828125 -32.152344 C 9.414062 -32.152344 9.140625 -31.964844 9.046875 -31.507812 L 1.421875 -0.78125 C 1.285156 -0.277344 1.515625 0 2.019531 0 L 6.523438 0 C 6.933594 0 7.164062 -0.230469 7.257812 -0.644531 L 8.679688 -6.429688 L 17.316406 -6.429688 L 18.785156 -0.644531 C 18.875 -0.230469 19.105469 0 19.519531 0 Z M 15.890625 -11.757812 L 10.105469 -11.757812 L 12.996094 -24.25 Z M 15.890625 -11.757812 "/></g></g></g><g fill="#a6a6a6" fill-opacity="1"><g transform="translate(330.674427, 197.732334)"><g><path d="M 21.496094 -32.152344 C 20.945312 -32.152344 20.621094 -31.875 20.484375 -31.371094 L 15.386719 -10.886719 L 10.289062 -31.371094 C 10.148438 -31.875 9.828125 -32.152344 9.277344 -32.152344 L 3.214844 -32.152344 C 2.617188 -32.152344 2.296875 -31.828125 2.296875 -31.230469 L 2.296875 -0.917969 C 2.296875 -0.320312 2.617188 0 3.214844 0 L 7.441406 0 C 8.039062 0 8.359375 -0.320312 8.359375 -0.917969 L 8.359375 -18.96875 L 8.679688 -18.96875 L 12.996094 -0.78125 C 13.136719 -0.277344 13.457031 0 14.007812 0 L 16.71875 0 C 17.269531 0 17.589844 -0.277344 17.730469 -0.78125 L 22.046875 -18.96875 L 22.367188 -18.96875 L 22.367188 -0.917969 C 22.367188 -0.320312 22.6875 0 23.285156 0 L 27.558594 0 C 28.15625 0 28.476562 -0.320312 28.476562 -0.917969 L 28.476562 -31.230469 C 28.476562 -31.828125 28.15625 -32.152344 27.558594 -32.152344 Z M 21.496094 -32.152344 "/></g></g></g><g fill="#a6a6a6" fill-opacity="1"><g transform="translate(361.44604, 197.732334)"><g><path d="M 3.03125 0 C 2.527344 0 2.296875 -0.277344 2.296875 -0.734375 L 2.296875 -31.414062 C 2.296875 -31.875 2.527344 -32.152344 3.03125 -32.152344 L 7.808594 -32.152344 C 8.265625 -32.152344 8.542969 -31.875 8.542969 -31.414062 L 8.542969 -0.734375 C 8.542969 -0.277344 8.265625 0 7.808594 0 Z M 3.03125 0 "/></g></g></g><g fill="#a6a6a6" fill-opacity="1"><g transform="translate(372.284997, 197.732334)"><g><path d="M 8.542969 -6.0625 L 17.636719 -6.0625 C 18.140625 -6.0625 18.371094 -5.785156 18.371094 -5.328125 L 18.371094 -0.734375 C 18.371094 -0.230469 18.140625 0 17.636719 0 L 3.03125 0 C 2.570312 0 2.296875 -0.230469 2.296875 -0.734375 L 2.296875 -31.414062 C 2.296875 -31.875 2.570312 -32.152344 3.03125 -32.152344 L 7.808594 -32.152344 C 8.3125 -32.152344 8.542969 -31.875 8.542969 -31.414062 Z M 8.542969 -6.0625 "/></g></g></g><g fill="#a6a6a6" fill-opacity="1"><g transform="translate(392.952495, 197.732334)"><g><path d="M 19.015625 -32.152344 C 19.519531 -32.152344 19.75 -31.875 19.75 -31.414062 L 19.75 -26.824219 C 19.75 -26.363281 19.519531 -26.085938 19.015625 -26.085938 L 13.6875 -26.085938 L 13.6875 -0.734375 C 13.6875 -0.230469 13.457031 0 12.953125 0 L 8.175781 0 C 7.714844 0 7.441406 -0.230469 7.441406 -0.734375 L 7.441406 -26.085938 L 2.113281 -26.085938 C 1.652344 -26.085938 1.378906 -26.363281 1.378906 -26.824219 L 1.378906 -31.414062 C 1.378906 -31.875 1.652344 -32.152344 2.113281 -32.152344 Z M 19.015625 -32.152344 "/></g></g></g><g fill="#a6a6a6" fill-opacity="1"><g transform="translate(414.07927, 197.732334)"><g><path d="M 2.296875 -6.613281 C 2.296875 -2.296875 4.59375 0 8.910156 0 L 14.054688 0 C 18.371094 0 20.667969 -2.296875 20.667969 -6.613281 L 20.667969 -25.535156 C 20.667969 -29.855469 18.371094 -32.152344 14.054688 -32.152344 L 8.910156 -32.152344 C 4.59375 -32.152344 2.296875 -29.855469 2.296875 -25.535156 Z M 10.105469 -5.925781 C 8.910156 -5.925781 8.265625 -6.523438 8.265625 -7.761719 L 8.265625 -24.386719 C 8.265625 -25.582031 8.910156 -26.226562 10.105469 -26.226562 L 13.042969 -26.226562 C 14.238281 -26.226562 14.882812 -25.582031 14.882812 -24.386719 L 14.882812 -7.761719 C 14.882812 -6.523438 14.238281 -5.925781 13.042969 -5.925781 Z M 10.105469 -5.925781 "/></g></g></g><g fill="#a6a6a6" fill-opacity="1"><g transform="translate(437.043166, 197.732334)"><g><path d="M 16.855469 -32.152344 C 16.351562 -32.152344 16.121094 -31.875 16.121094 -31.414062 L 16.121094 -14.007812 L 7.488281 -31.554688 C 7.304688 -31.964844 7.074219 -32.152344 6.660156 -32.152344 L 3.03125 -32.152344 C 2.570312 -32.152344 2.296875 -31.875 2.296875 -31.414062 L 2.296875 -0.734375 C 2.296875 -0.277344 2.570312 0 3.03125 0 L 7.347656 0 C 7.855469 0 8.082031 -0.277344 8.082031 -0.734375 L 8.082031 -18.140625 L 16.71875 -0.597656 C 16.902344 -0.183594 17.132812 0 17.546875 0 L 21.171875 0 C 21.632812 0 21.910156 -0.277344 21.910156 -0.734375 L 21.910156 -31.414062 C 21.910156 -31.875 21.632812 -32.152344 21.171875 -32.152344 Z M 16.855469 -32.152344 "/></g></g></g><g fill="#a6a6a6" fill-opacity="1"><g transform="translate(461.247106, 197.732334)"><g/></g></g><g fill="#a6a6a6" fill-opacity="1"><g transform="translate(472.729054, 197.732334)"><g><path d="M 8.910156 -36.742188 C 4.640625 -36.742188 2.296875 -34.445312 2.296875 -30.128906 L 2.296875 -19.289062 C 2.296875 -18.417969 2.710938 -17.867188 3.535156 -17.589844 L 14.421875 -14.007812 L 14.421875 -7.898438 C 14.421875 -6.660156 13.777344 -6.0625 12.585938 -6.0625 L 10.378906 -6.0625 C 9.230469 -6.0625 8.542969 -6.660156 8.542969 -7.898438 L 8.542969 -11.4375 C 8.542969 -11.941406 8.3125 -12.171875 7.808594 -12.171875 L 3.03125 -12.171875 C 2.570312 -12.171875 2.296875 -11.941406 2.296875 -11.4375 L 2.296875 -6.613281 C 2.296875 -2.296875 4.640625 0 8.910156 0 L 14.054688 0 C 18.371094 0 20.667969 -2.296875 20.667969 -6.613281 L 20.667969 -17.222656 C 20.667969 -18.097656 20.253906 -18.601562 19.472656 -18.921875 L 8.542969 -22.503906 L 8.542969 -28.84375 C 8.542969 -30.039062 9.230469 -30.679688 10.378906 -30.679688 L 12.585938 -30.679688 C 13.824219 -30.679688 14.421875 -30.039062 14.421875 -28.84375 L 14.421875 -25.261719 C 14.421875 -24.800781 14.699219 -24.527344 15.15625 -24.527344 L 19.933594 -24.527344 C 20.4375 -24.527344 20.667969 -24.800781 20.667969 -25.261719 L 20.667969 -30.128906 C 20.667969 -34.445312 18.371094 -36.742188 14.054688 -36.742188 Z M 8.910156 -36.742188 "/></g></g></g><g fill="#a6a6a6" fill-opacity="1"><g transform="translate(495.692962, 197.732334)"><g><path d="M 2.296875 -6.613281 C 2.296875 -2.296875 4.59375 0 8.910156 0 L 14.054688 0 C 18.371094 0 20.667969 -2.296875 20.667969 -6.613281 L 20.667969 -25.535156 C 20.667969 -29.855469 18.371094 -32.152344 14.054688 -32.152344 L 8.910156 -32.152344 C 4.59375 -32.152344 2.296875 -29.855469 2.296875 -25.535156 Z M 10.105469 -5.925781 C 8.910156 -5.925781 8.265625 -6.523438 8.265625 -7.761719 L 8.265625 -24.386719 C 8.265625 -25.582031 8.910156 -26.226562 10.105469 -26.226562 L 13.042969 -26.226562 C 14.238281 -26.226562 14.882812 -25.582031 14.882812 -24.386719 L 14.882812 -7.761719 C 14.882812 -6.523438 14.238281 -5.925781 13.042969 -5.925781 Z M 10.105469 -5.925781 "/></g></g></g><g fill="#a6a6a6" fill-opacity="1"><g transform="translate(518.656858, 197.732334)"><g><path d="M 15.523438 -32.152344 C 15.019531 -32.152344 14.605469 -31.738281 14.605469 -31.230469 L 14.605469 -7.898438 C 14.605469 -6.660156 13.960938 -6.0625 12.769531 -6.0625 L 10.378906 -6.0625 C 9.1875 -6.0625 8.542969 -6.660156 8.542969 -7.898438 L 8.542969 -31.230469 C 8.542969 -31.738281 8.128906 -32.152344 7.625 -32.152344 L 3.214844 -32.152344 C 2.710938 -32.152344 2.296875 -31.738281 2.296875 -31.230469 L 2.296875 -6.613281 C 2.296875 -2.296875 4.59375 0 8.910156 0 L 14.054688 0 C 18.371094 0 20.667969 -2.296875 20.667969 -6.613281 L 20.667969 -31.230469 C 20.667969 -31.738281 20.253906 -32.152344 19.75 -32.152344 Z M 15.523438 -32.152344 "/></g></g></g><g fill="#a6a6a6" fill-opacity="1"><g transform="translate(541.620754, 197.732334)"><g><path d="M 19.015625 -32.152344 C 19.519531 -32.152344 19.75 -31.875 19.75 -31.414062 L 19.75 -26.824219 C 19.75 -26.363281 19.519531 -26.085938 19.015625 -26.085938 L 13.6875 -26.085938 L 13.6875 -0.734375 C 13.6875 -0.230469 13.457031 0 12.953125 0 L 8.175781 0 C 7.714844 0 7.441406 -0.230469 7.441406 -0.734375 L 7.441406 -26.085938 L 2.113281 -26.085938 C 1.652344 -26.085938 1.378906 -26.363281 1.378906 -26.824219 L 1.378906 -31.414062 C 1.378906 -31.875 1.652344 -32.152344 2.113281 -32.152344 Z M 19.015625 -32.152344 "/></g></g></g><g fill="#a6a6a6" fill-opacity="1"><g transform="translate(562.747518, 197.732334)"><g><path d="M 14.421875 -19.015625 L 8.542969 -19.015625 L 8.542969 -31.414062 C 8.542969 -31.875 8.265625 -32.152344 7.808594 -32.152344 L 3.078125 -32.152344 C 2.527344 -32.152344 2.296875 -31.875 2.296875 -31.414062 L 2.296875 -0.734375 C 2.296875 -0.277344 2.527344 0 3.078125 0 L 7.808594 0 C 8.265625 0 8.542969 -0.277344 8.542969 -0.734375 L 8.542969 -12.953125 L 14.421875 -12.953125 L 14.421875 -0.734375 C 14.421875 -0.277344 14.699219 0 15.15625 0 L 19.886719 0 C 20.4375 0 20.667969 -0.277344 20.667969 -0.734375 L 20.667969 -31.414062 C 20.667969 -31.875 20.4375 -32.152344 19.886719 -32.152344 L 15.15625 -32.152344 C 14.699219 -32.152344 14.421875 -31.875 14.421875 -31.414062 Z M 14.421875 -19.015625 "/></g></g></g><g fill="#a6a6a6" fill-opacity="1"><g transform="translate(585.711414, 197.732334)"><g><path d="M 20.621094 -31.414062 C 20.621094 -31.875 20.4375 -32.152344 19.886719 -32.152344 L 2.984375 -32.152344 C 2.570312 -32.152344 2.296875 -31.875 2.296875 -31.414062 L 2.296875 -0.734375 C 2.296875 -0.277344 2.570312 0 2.984375 0 L 19.886719 0 C 20.4375 0 20.621094 -0.277344 20.621094 -0.734375 L 20.621094 -5.328125 C 20.621094 -5.832031 20.4375 -6.0625 19.886719 -6.0625 L 8.542969 -6.0625 L 8.542969 -12.859375 L 17.175781 -12.859375 C 17.636719 -12.859375 17.914062 -13.136719 17.914062 -13.640625 L 17.914062 -18.1875 C 17.914062 -18.691406 17.636719 -18.96875 17.175781 -18.96875 L 8.542969 -18.96875 L 8.542969 -26.042969 L 19.886719 -26.042969 C 20.4375 -26.042969 20.621094 -26.363281 20.621094 -26.824219 Z M 20.621094 -31.414062 "/></g></g></g><g fill="#a6a6a6" fill-opacity="1"><g transform="translate(608.629373, 197.732334)"><g><path d="M 23.976562 0 C 24.527344 0 24.753906 -0.277344 24.617188 -0.78125 L 16.992188 -31.507812 C 16.902344 -31.964844 16.625 -32.152344 16.214844 -32.152344 L 9.828125 -32.152344 C 9.414062 -32.152344 9.140625 -31.964844 9.046875 -31.507812 L 1.421875 -0.78125 C 1.285156 -0.277344 1.515625 0 2.019531 0 L 6.523438 0 C 6.933594 0 7.164062 -0.230469 7.257812 -0.644531 L 8.679688 -6.429688 L 17.316406 -6.429688 L 18.785156 -0.644531 C 18.875 -0.230469 19.105469 0 19.519531 0 Z M 15.890625 -11.757812 L 10.105469 -11.757812 L 12.996094 -24.25 Z M 15.890625 -11.757812 "/></g></g></g><g fill="#a6a6a6" fill-opacity="1"><g transform="translate(634.670423, 197.732334)"><g><path d="M 8.910156 -32.152344 C 4.640625 -32.152344 2.296875 -29.855469 2.296875 -25.535156 L 2.296875 -17.589844 C 2.296875 -16.71875 2.710938 -16.167969 3.535156 -15.890625 L 14.558594 -12.308594 L 14.558594 -7.671875 C 14.558594 -6.429688 13.917969 -5.832031 12.722656 -5.832031 L 10.242188 -5.832031 C 9.09375 -5.832031 8.40625 -6.429688 8.40625 -7.671875 L 8.40625 -9.597656 C 8.40625 -10.105469 8.175781 -10.335938 7.671875 -10.335938 L 3.03125 -10.335938 C 2.570312 -10.335938 2.296875 -10.105469 2.296875 -9.597656 L 2.296875 -6.613281 C 2.296875 -2.296875 4.640625 0 8.910156 0 L 14.054688 0 C 18.371094 0 20.667969 -2.296875 20.667969 -6.613281 L 20.667969 -15.25 C 20.667969 -16.121094 20.253906 -16.671875 19.472656 -16.949219 L 8.359375 -20.53125 L 8.359375 -24.433594 C 8.359375 -25.628906 9.046875 -26.269531 10.195312 -26.269531 L 12.722656 -26.269531 C 13.960938 -26.269531 14.558594 -25.628906 14.558594 -24.433594 L 14.558594 -22.503906 C 14.558594 -22.046875 14.835938 -21.769531 15.292969 -21.769531 L 19.933594 -21.769531 C 20.4375 -21.769531 20.667969 -22.046875 20.667969 -22.503906 L 20.667969 -25.535156 C 20.667969 -29.855469 18.371094 -32.152344 14.054688 -32.152344 Z M 8.910156 -32.152344 "/></g></g></g><g fill="#a6a6a6" fill-opacity="1"><g transform="translate(657.634319, 197.732334)"><g><path d="M 19.015625 -32.152344 C 19.519531 -32.152344 19.75 -31.875 19.75 -31.414062 L 19.75 -26.824219 C 19.75 -26.363281 19.519531 -26.085938 19.015625 -26.085938 L 13.6875 -26.085938 L 13.6875 -0.734375 C 13.6875 -0.230469 13.457031 0 12.953125 0 L 8.175781 0 C 7.714844 0 7.441406 -0.230469 7.441406 -0.734375 L 7.441406 -26.085938 L 2.113281 -26.085938 C 1.652344 -26.085938 1.378906 -26.363281 1.378906 -26.824219 L 1.378906 -31.414062 C 1.378906 -31.875 1.652344 -32.152344 2.113281 -32.152344 Z M 19.015625 -32.152344 "/></g></g></g><g fill="#a6a6a6" fill-opacity="1"><g transform="translate(678.761106, 197.732334)"><g><path d="M 20.621094 -31.414062 C 20.621094 -31.875 20.4375 -32.152344 19.886719 -32.152344 L 2.984375 -32.152344 C 2.570312 -32.152344 2.296875 -31.875 2.296875 -31.414062 L 2.296875 -0.734375 C 2.296875 -0.277344 2.570312 0 2.984375 0 L 19.886719 0 C 20.4375 0 20.621094 -0.277344 20.621094 -0.734375 L 20.621094 -5.328125 C 20.621094 -5.832031 20.4375 -6.0625 19.886719 -6.0625 L 8.542969 -6.0625 L 8.542969 -12.859375 L 17.175781 -12.859375 C 17.636719 -12.859375 17.914062 -13.136719 17.914062 -13.640625 L 17.914062 -18.1875 C 17.914062 -18.691406 17.636719 -18.96875 17.175781 -18.96875 L 8.542969 -18.96875 L 8.542969 -26.042969 L 19.886719 -26.042969 C 20.4375 -26.042969 20.621094 -26.363281 20.621094 -26.824219 Z M 20.621094 -31.414062 "/></g></g></g><g fill="#a6a6a6" fill-opacity="1"><g transform="translate(701.679088, 197.732334)"><g><path d="M 20.667969 -25.535156 C 20.667969 -29.855469 18.371094 -32.152344 14.054688 -32.152344 L 3.03125 -32.152344 C 2.570312 -32.152344 2.296875 -31.875 2.296875 -31.414062 L 2.296875 -0.734375 C 2.296875 -0.277344 2.570312 0 3.03125 0 L 7.53125 0 C 7.992188 0 8.265625 -0.277344 8.265625 -0.734375 L 8.265625 -9.691406 L 12.355469 -9.691406 L 14.558594 -0.644531 C 14.652344 -0.230469 14.882812 0 15.339844 0 L 19.839844 0 C 20.347656 0 20.621094 -0.277344 20.484375 -0.828125 L 18.097656 -10.703125 C 19.796875 -11.757812 20.667969 -13.640625 20.667969 -16.304688 Z M 8.265625 -15.617188 L 8.265625 -26.226562 L 12.859375 -26.226562 C 14.054688 -26.226562 14.699219 -25.582031 14.699219 -24.386719 L 14.699219 -17.453125 C 14.699219 -16.257812 14.054688 -15.617188 12.859375 -15.617188 Z M 8.265625 -15.617188 "/></g></g></g><g fill="#a6a6a6" fill-opacity="1"><g transform="translate(724.642961, 197.732334)"><g><path d="M 16.855469 -32.152344 C 16.351562 -32.152344 16.121094 -31.875 16.121094 -31.414062 L 16.121094 -14.007812 L 7.488281 -31.554688 C 7.304688 -31.964844 7.074219 -32.152344 6.660156 -32.152344 L 3.03125 -32.152344 C 2.570312 -32.152344 2.296875 -31.875 2.296875 -31.414062 L 2.296875 -0.734375 C 2.296875 -0.277344 2.570312 0 3.03125 0 L 7.347656 0 C 7.855469 0 8.082031 -0.277344 8.082031 -0.734375 L 8.082031 -18.140625 L 16.71875 -0.597656 C 16.902344 -0.183594 17.132812 0 17.546875 0 L 21.171875 0 C 21.632812 0 21.910156 -0.277344 21.910156 -0.734375 L 21.910156 -31.414062 C 21.910156 -31.875 21.632812 -32.152344 21.171875 -32.152344 Z M 16.855469 -32.152344 "/></g></g></g><g fill="#e84a27" fill-opacity="1"><g transform="translate(1063.202269, 197.732334)"><g><path d="M 21.496094 -36.742188 C 20.945312 -36.742188 20.621094 -36.46875 20.484375 -35.917969 L 15.386719 -13.042969 L 10.289062 -35.917969 C 10.148438 -36.46875 9.828125 -36.742188 9.277344 -36.742188 L 3.214844 -36.742188 C 2.617188 -36.742188 2.296875 -36.421875 2.296875 -35.824219 L 2.296875 -0.917969 C 2.296875 -0.320312 2.617188 0 3.214844 0 L 7.441406 0 C 8.039062 0 8.359375 -0.320312 8.359375 -0.917969 L 8.359375 -21.585938 L 8.679688 -21.585938 L 13.226562 -0.828125 C 13.367188 -0.277344 13.6875 0 14.238281 0 L 16.488281 0 C 17.039062 0 17.359375 -0.277344 17.5 -0.828125 L 22.046875 -21.585938 L 22.367188 -21.585938 L 22.367188 -0.917969 C 22.367188 -0.320312 22.6875 0 23.285156 0 L 27.558594 0 C 28.15625 0 28.476562 -0.320312 28.476562 -0.917969 L 28.476562 -35.824219 C 28.476562 -36.421875 28.15625 -36.742188 27.558594 -36.742188 Z M 21.496094 -36.742188 "/></g></g></g><g fill="#e84a27" fill-opacity="1"><g transform="translate(1093.973881, 197.732334)"><g><path d="M 20.667969 -25.535156 C 20.667969 -29.855469 18.371094 -32.152344 14.054688 -32.152344 L 3.03125 -32.152344 C 2.570312 -32.152344 2.296875 -31.875 2.296875 -31.414062 L 2.296875 -0.734375 C 2.296875 -0.277344 2.570312 0 3.03125 0 L 7.53125 0 C 7.992188 0 8.265625 -0.277344 8.265625 -0.734375 L 8.265625 -9.691406 L 12.355469 -9.691406 L 14.558594 -0.644531 C 14.652344 -0.230469 14.882812 0 15.339844 0 L 19.839844 0 C 20.347656 0 20.621094 -0.277344 20.484375 -0.828125 L 18.097656 -10.703125 C 19.796875 -11.757812 20.667969 -13.640625 20.667969 -16.304688 Z M 8.265625 -15.617188 L 8.265625 -26.226562 L 12.859375 -26.226562 C 14.054688 -26.226562 14.699219 -25.582031 14.699219 -24.386719 L 14.699219 -17.453125 C 14.699219 -16.257812 14.054688 -15.617188 12.859375 -15.617188 Z M 8.265625 -15.617188 "/></g></g></g><g fill="#e84a27" fill-opacity="1"><g transform="translate(1116.937778, 197.732334)"><g><path d="M 2.296875 -0.917969 C 2.296875 -0.320312 2.617188 0 3.214844 0 L 7.394531 0 C 7.992188 0 8.3125 -0.320312 8.3125 -0.917969 L 8.3125 -5.144531 C 8.3125 -5.742188 7.992188 -6.0625 7.394531 -6.0625 L 3.214844 -6.0625 C 2.617188 -6.0625 2.296875 -5.742188 2.296875 -5.144531 Z M 2.296875 -0.917969 "/></g></g></g><g fill="#e84a27" fill-opacity="1"><g transform="translate(1127.547096, 197.732334)"><g/></g></g><g fill="#e84a27" fill-opacity="1"><g transform="translate(1139.029044, 197.732334)"><g><path d="M 20.667969 -36.007812 C 20.667969 -36.46875 20.390625 -36.742188 19.933594 -36.742188 L 3.03125 -36.742188 C 2.527344 -36.742188 2.296875 -36.46875 2.296875 -36.007812 L 2.296875 -0.734375 C 2.296875 -0.277344 2.527344 0 3.03125 0 L 7.808594 0 C 8.265625 0 8.542969 -0.277344 8.542969 -0.734375 L 8.542969 -15.386719 L 17.175781 -15.386719 C 17.636719 -15.386719 17.914062 -15.617188 17.914062 -16.121094 L 17.914062 -20.714844 C 17.914062 -21.171875 17.636719 -21.449219 17.175781 -21.449219 L 8.542969 -21.449219 L 8.542969 -30.679688 L 19.933594 -30.679688 C 20.390625 -30.679688 20.667969 -30.957031 20.667969 -31.414062 Z M 20.667969 -36.007812 "/></g></g></g><g fill="#e84a27" fill-opacity="1"><g transform="translate(1161.99294, 197.732334)"><g><path d="M 3.03125 0 C 2.527344 0 2.296875 -0.277344 2.296875 -0.734375 L 2.296875 -31.414062 C 2.296875 -31.875 2.527344 -32.152344 3.03125 -32.152344 L 7.808594 -32.152344 C 8.265625 -32.152344 8.542969 -31.875 8.542969 -31.414062 L 8.542969 -0.734375 C 8.542969 -0.277344 8.265625 0 7.808594 0 Z M 3.03125 0 "/></g></g></g><g fill="#e84a27" fill-opacity="1"><g transform="translate(1172.831898, 197.732334)"><g><path d="M 8.910156 -32.152344 C 4.640625 -32.152344 2.296875 -29.855469 2.296875 -25.535156 L 2.296875 -17.589844 C 2.296875 -16.71875 2.710938 -16.167969 3.535156 -15.890625 L 14.558594 -12.308594 L 14.558594 -7.671875 C 14.558594 -6.429688 13.917969 -5.832031 12.722656 -5.832031 L 10.242188 -5.832031 C 9.09375 -5.832031 8.40625 -6.429688 8.40625 -7.671875 L 8.40625 -9.597656 C 8.40625 -10.105469 8.175781 -10.335938 7.671875 -10.335938 L 3.03125 -10.335938 C 2.570312 -10.335938 2.296875 -10.105469 2.296875 -9.597656 L 2.296875 -6.613281 C 2.296875 -2.296875 4.640625 0 8.910156 0 L 14.054688 0 C 18.371094 0 20.667969 -2.296875 20.667969 -6.613281 L 20.667969 -15.25 C 20.667969 -16.121094 20.253906 -16.671875 19.472656 -16.949219 L 8.359375 -20.53125 L 8.359375 -24.433594 C 8.359375 -25.628906 9.046875 -26.269531 10.195312 -26.269531 L 12.722656 -26.269531 C 13.960938 -26.269531 14.558594 -25.628906 14.558594 -24.433594 L 14.558594 -22.503906 C 14.558594 -22.046875 14.835938 -21.769531 15.292969 -21.769531 L 19.933594 -21.769531 C 20.4375 -21.769531 20.667969 -22.046875 20.667969 -22.503906 L 20.667969 -25.535156 C 20.667969 -29.855469 18.371094 -32.152344 14.054688 -32.152344 Z M 8.910156 -32.152344 "/></g></g></g><g fill="#e84a27" fill-opacity="1"><g transform="translate(1195.795794, 197.732334)"><g><path d="M 14.421875 -19.015625 L 8.542969 -19.015625 L 8.542969 -31.414062 C 8.542969 -31.875 8.265625 -32.152344 7.808594 -32.152344 L 3.078125 -32.152344 C 2.527344 -32.152344 2.296875 -31.875 2.296875 -31.414062 L 2.296875 -0.734375 C 2.296875 -0.277344 2.527344 0 3.078125 0 L 7.808594 0 C 8.265625 0 8.542969 -0.277344 8.542969 -0.734375 L 8.542969 -12.953125 L 14.421875 -12.953125 L 14.421875 -0.734375 C 14.421875 -0.277344 14.699219 0 15.15625 0 L 19.886719 0 C 20.4375 0 20.667969 -0.277344 20.667969 -0.734375 L 20.667969 -31.414062 C 20.667969 -31.875 20.4375 -32.152344 19.886719 -32.152344 L 15.15625 -32.152344 C 14.699219 -32.152344 14.421875 -31.875 14.421875 -31.414062 Z M 14.421875 -19.015625 "/></g></g></g><g fill="#e84a27" fill-opacity="1"><g transform="translate(1218.75969, 197.732334)"><g><path d="M 20.621094 -31.414062 C 20.621094 -31.875 20.4375 -32.152344 19.886719 -32.152344 L 2.984375 -32.152344 C 2.570312 -32.152344 2.296875 -31.875 2.296875 -31.414062 L 2.296875 -0.734375 C 2.296875 -0.277344 2.570312 0 2.984375 0 L 19.886719 0 C 20.4375 0 20.621094 -0.277344 20.621094 -0.734375 L 20.621094 -5.328125 C 20.621094 -5.832031 20.4375 -6.0625 19.886719 -6.0625 L 8.542969 -6.0625 L 8.542969 -12.859375 L 17.175781 -12.859375 C 17.636719 -12.859375 17.914062 -13.136719 17.914062 -13.640625 L 17.914062 -18.1875 C 17.914062 -18.691406 17.636719 -18.96875 17.175781 -18.96875 L 8.542969 -18.96875 L 8.542969 -26.042969 L 19.886719 -26.042969 C 20.4375 -26.042969 20.621094 -26.363281 20.621094 -26.824219 Z M 20.621094 -31.414062 "/></g></g></g><g fill="#e84a27" fill-opacity="1"><g transform="translate(1241.677649, 197.732334)"><g><path d="M 8.542969 -6.0625 L 17.636719 -6.0625 C 18.140625 -6.0625 18.371094 -5.785156 18.371094 -5.328125 L 18.371094 -0.734375 C 18.371094 -0.230469 18.140625 0 17.636719 0 L 3.03125 0 C 2.570312 0 2.296875 -0.230469 2.296875 -0.734375 L 2.296875 -31.414062 C 2.296875 -31.875 2.570312 -32.152344 3.03125 -32.152344 L 7.808594 -32.152344 C 8.3125 -32.152344 8.542969 -31.875 8.542969 -31.414062 Z M 8.542969 -6.0625 "/></g></g></g><g clip-path="url(#e59d5cbda1)"><path fill="#e84a27" d="M 264.269531 75.265625 L 85.777344 75.265625 C 80.699219 75.265625 76.546875 79.414062 76.546875 84.484375 L 76.546875 192.058594 C 76.546875 197.132812 80.699219 201.28125 85.777344 201.28125 L 171.945312 201.28125 L 171.945312 207.425781 L 142.710938 207.121094 C 141.019531 207.121094 139.632812 208.503906 139.632812 210.195312 C 139.632812 211.882812 141.019531 213.265625 142.710938 213.265625 L 196.566406 213.726562 L 196.566406 207.582031 L 178.101562 207.425781 L 178.101562 201.28125 L 196.566406 201.28125 L 196.566406 195.132812 L 85.777344 195.132812 C 84.085938 195.132812 82.699219 193.75 82.699219 192.058594 L 82.699219 84.484375 C 82.699219 82.796875 84.085938 81.410156 85.777344 81.410156 L 264.269531 81.410156 C 265.960938 81.410156 267.347656 82.796875 267.347656 84.484375 L 267.347656 106.308594 C 269.65625 106.769531 271.65625 107.691406 273.503906 109.074219 L 273.503906 84.484375 C 273.503906 79.414062 269.347656 75.265625 264.269531 75.265625 Z M 264.269531 75.265625 " fill-opacity="1" fill-rule="nonzero"/></g><g clip-path="url(#da822ba7d1)"><path fill="#e84a27" d="M 264.269531 112.148438 L 211.953125 112.148438 C 206.875 112.148438 202.71875 116.296875 202.71875 121.367188 L 202.71875 213.574219 C 202.71875 218.644531 206.875 222.796875 211.953125 222.796875 L 264.269531 222.796875 C 269.347656 222.796875 273.503906 218.644531 273.503906 213.574219 L 273.503906 121.367188 C 273.503906 116.296875 269.347656 112.148438 264.269531 112.148438 Z M 267.347656 213.574219 C 267.347656 215.265625 265.960938 216.648438 264.269531 216.648438 L 211.953125 216.648438 C 210.261719 216.648438 208.875 215.265625 208.875 213.574219 L 208.875 121.367188 C 208.875 119.675781 210.261719 118.292969 211.953125 118.292969 L 264.269531 118.292969 C 265.960938 118.292969 267.347656 119.675781 267.347656 121.367188 Z M 267.347656 213.574219 " fill-opacity="1" fill-rule="nonzero"/></g><path fill="#e84a27" d="M 238.109375 130.589844 C 239.804688 130.589844 241.1875 129.207031 241.1875 127.515625 C 241.1875 126.898438 241.035156 126.285156 240.726562 125.824219 C 240.574219 125.515625 240.265625 125.210938 239.957031 125.054688 C 239.496094 124.75 238.878906 124.59375 238.265625 124.59375 C 237.648438 124.59375 237.035156 124.75 236.574219 125.054688 C 236.265625 125.210938 235.957031 125.515625 235.804688 125.824219 C 235.496094 126.285156 235.339844 126.902344 235.339844 127.515625 C 235.035156 129.207031 236.417969 130.589844 238.109375 130.589844 Z M 238.109375 130.589844 " fill-opacity="1" fill-rule="nonzero"/><path fill="#e84a27" d="M 242.726562 204.355469 L 233.496094 204.355469 C 231.800781 204.355469 230.417969 205.738281 230.417969 207.425781 C 230.417969 209.117188 231.800781 210.5 233.496094 210.5 L 242.726562 210.5 C 244.421875 210.5 245.804688 209.117188 245.804688 207.425781 C 245.804688 205.738281 244.421875 204.355469 242.726562 204.355469 Z M 242.726562 204.355469 " fill-opacity="1" fill-rule="nonzero"/><path fill="#e84a27" d="M 91.933594 102.925781 L 110.398438 102.925781 C 112.089844 102.925781 113.472656 101.542969 113.472656 99.851562 C 113.472656 98.164062 112.089844 96.78125 110.398438 96.78125 L 91.933594 96.78125 C 90.238281 96.78125 88.855469 98.164062 88.855469 99.851562 C 88.855469 101.542969 90.238281 102.925781 91.933594 102.925781 Z M 91.933594 102.925781 " fill-opacity="1" fill-rule="nonzero"/><path fill="#e84a27" d="M 205.796875 99.851562 C 205.796875 98.164062 204.414062 96.78125 202.71875 96.78125 L 184.257812 96.78125 C 182.5625 96.78125 181.179688 98.164062 181.179688 99.851562 C 181.179688 101.542969 182.5625 102.925781 184.257812 102.925781 L 202.71875 102.925781 C 204.414062 102.925781 205.796875 101.542969 205.796875 99.851562 Z M 205.796875 99.851562 " fill-opacity="1" fill-rule="nonzero"/><path fill="#e84a27" d="M 171.945312 96.78125 L 122.707031 96.78125 C 121.015625 96.78125 119.628906 98.164062 119.628906 99.851562 C 119.628906 101.542969 121.015625 102.925781 122.707031 102.925781 L 171.945312 102.925781 C 173.636719 102.925781 175.023438 101.542969 175.023438 99.851562 C 175.023438 98.164062 173.636719 96.78125 171.945312 96.78125 Z M 171.945312 96.78125 " fill-opacity="1" fill-rule="nonzero"/><path fill="#e84a27" d="M 91.933594 115.222656 L 141.171875 115.222656 C 142.863281 115.222656 144.25 113.835938 144.25 112.148438 C 144.25 110.457031 142.863281 109.074219 141.171875 109.074219 L 91.933594 109.074219 C 90.238281 109.074219 88.855469 110.457031 88.855469 112.148438 C 88.855469 113.835938 90.238281 115.222656 91.933594 115.222656 Z M 91.933594 115.222656 " fill-opacity="1" fill-rule="nonzero"/><path fill="#e84a27" d="M 171.945312 109.074219 L 153.480469 109.074219 C 151.789062 109.074219 150.402344 110.457031 150.402344 112.148438 C 150.402344 113.835938 151.789062 115.222656 153.480469 115.222656 L 171.945312 115.222656 C 173.636719 115.222656 175.023438 113.835938 175.023438 112.148438 C 175.023438 110.457031 173.636719 109.074219 171.945312 109.074219 Z M 171.945312 109.074219 " fill-opacity="1" fill-rule="nonzero"/><path fill="#e84a27" d="M 91.933594 139.808594 L 110.398438 139.808594 C 112.089844 139.808594 113.472656 138.425781 113.472656 136.734375 C 113.472656 135.046875 112.089844 133.664062 110.398438 133.664062 L 91.933594 133.664062 C 90.238281 133.664062 88.855469 135.046875 88.855469 136.734375 C 88.855469 138.425781 90.238281 139.808594 91.933594 139.808594 Z M 91.933594 139.808594 " fill-opacity="1" fill-rule="nonzero"/><path fill="#e84a27" d="M 171.945312 133.664062 L 122.707031 133.664062 C 121.015625 133.664062 119.628906 135.046875 119.628906 136.734375 C 119.628906 138.425781 121.015625 139.808594 122.707031 139.808594 L 171.945312 139.808594 C 173.636719 139.808594 175.023438 138.425781 175.023438 136.734375 C 175.023438 135.046875 173.636719 133.664062 171.945312 133.664062 Z M 171.945312 133.664062 " fill-opacity="1" fill-rule="nonzero"/><path fill="#e84a27" d="M 144.25 149.03125 C 144.25 147.339844 142.863281 145.957031 141.171875 145.957031 L 91.933594 145.957031 C 90.238281 145.957031 88.855469 147.339844 88.855469 149.03125 C 88.855469 150.71875 90.238281 152.101562 91.933594 152.101562 L 141.171875 152.101562 C 142.863281 152.101562 144.25 150.71875 144.25 149.03125 Z M 144.25 149.03125 " fill-opacity="1" fill-rule="nonzero"/><path fill="#e84a27" d="M 171.945312 152.101562 C 173.636719 152.101562 175.023438 150.71875 175.023438 149.03125 C 175.023438 147.339844 173.636719 145.957031 171.945312 145.957031 L 153.480469 145.957031 C 151.789062 145.957031 150.402344 147.339844 150.402344 149.03125 C 150.402344 150.71875 151.789062 152.101562 153.480469 152.101562 Z M 171.945312 152.101562 " fill-opacity="1" fill-rule="nonzero"/><path fill="#e84a27" d="M 91.933594 127.515625 L 115.011719 127.515625 C 116.707031 127.515625 118.089844 126.132812 118.089844 124.441406 C 118.089844 122.75 116.707031 121.367188 115.011719 121.367188 L 91.933594 121.367188 C 90.238281 121.367188 88.855469 122.75 88.855469 124.441406 C 88.855469 126.132812 90.238281 127.515625 91.933594 127.515625 Z M 91.933594 127.515625 " fill-opacity="1" fill-rule="nonzero"/><path fill="#e84a27" d="M 171.945312 121.367188 L 127.324219 121.367188 C 125.628906 121.367188 124.246094 122.75 124.246094 124.441406 C 124.246094 126.132812 125.628906 127.515625 127.324219 127.515625 L 171.945312 127.515625 C 173.636719 127.515625 175.023438 126.132812 175.023438 124.441406 C 175.023438 122.75 173.636719 121.367188 171.945312 121.367188 Z M 171.945312 121.367188 " fill-opacity="1" fill-rule="nonzero"/><path fill="#e84a27" d="M 252.574219 159.171875 C 251.34375 157.941406 249.496094 157.941406 248.265625 159.171875 C 247.035156 160.402344 247.035156 162.246094 248.265625 163.476562 L 252.265625 167.472656 L 248.265625 171.46875 C 247.035156 172.695312 247.035156 174.539062 248.265625 175.769531 C 248.882812 176.382812 249.652344 176.691406 250.421875 176.691406 C 251.191406 176.691406 251.960938 176.382812 252.574219 175.769531 L 258.730469 169.621094 C 259.960938 168.394531 259.960938 166.550781 258.730469 165.320312 Z M 252.574219 159.171875 " fill-opacity="1" fill-rule="nonzero"/><path fill="#e84a27" d="M 227.957031 159.171875 C 226.726562 157.941406 224.878906 157.941406 223.648438 159.171875 L 217.492188 165.320312 C 216.261719 166.550781 216.261719 168.394531 217.492188 169.621094 L 223.648438 175.769531 C 224.261719 176.382812 225.03125 176.691406 225.800781 176.691406 C 226.570312 176.691406 227.339844 176.382812 227.957031 175.769531 C 229.1875 174.539062 229.1875 172.695312 227.957031 171.46875 L 223.953125 167.472656 L 227.957031 163.476562 C 229.1875 162.246094 229.1875 160.402344 227.957031 159.171875 Z M 227.957031 159.171875 " fill-opacity="1" fill-rule="nonzero"/><path fill="#e84a27" d="M 234.265625 181.148438 C 234.570312 181.300781 234.878906 181.300781 235.1875 181.300781 C 236.574219 181.300781 237.804688 180.378906 238.109375 178.996094 L 244.265625 157.480469 C 244.726562 155.792969 243.804688 154.101562 242.113281 153.640625 C 240.417969 153.179688 238.726562 154.101562 238.265625 155.792969 L 232.109375 177.304688 C 231.648438 178.996094 232.570312 180.6875 234.265625 181.148438 Z M 234.265625 181.148438 " fill-opacity="1" fill-rule="nonzero"/><path fill="#e84a27" d="M 140.554688 181.917969 C 141.171875 182.53125 141.941406 182.839844 142.710938 182.839844 C 143.480469 182.839844 144.25 182.53125 144.863281 181.917969 L 151.019531 175.769531 C 152.25 174.539062 152.25 172.695312 151.019531 171.46875 L 144.863281 165.320312 C 143.632812 164.089844 141.785156 164.089844 140.554688 165.320312 C 139.324219 166.550781 139.324219 168.394531 140.554688 169.621094 L 144.558594 173.617188 L 140.554688 177.613281 C 139.324219 178.84375 139.324219 180.6875 140.554688 181.917969 Z M 140.554688 181.917969 " fill-opacity="1" fill-rule="nonzero"/><path fill="#e84a27" d="M 120.246094 165.320312 C 119.015625 164.089844 117.167969 164.089844 115.9375 165.320312 L 109.78125 171.46875 C 108.550781 172.695312 108.550781 174.539062 109.78125 175.769531 L 115.9375 181.917969 C 116.550781 182.53125 117.320312 182.839844 118.089844 182.839844 C 118.859375 182.839844 119.628906 182.53125 120.246094 181.917969 C 121.476562 180.6875 121.476562 178.84375 120.246094 177.613281 L 116.246094 173.617188 L 120.246094 169.621094 C 121.476562 168.394531 121.476562 166.550781 120.246094 165.320312 Z M 120.246094 165.320312 " fill-opacity="1" fill-rule="nonzero"/><path fill="#e84a27" d="M 130.554688 162.09375 L 124.398438 183.605469 C 123.9375 185.296875 124.859375 186.988281 126.554688 187.449219 C 126.707031 187.449219 127.015625 187.449219 127.324219 187.449219 C 128.707031 187.449219 129.9375 186.527344 130.246094 185.144531 L 136.402344 163.628906 C 136.863281 161.9375 135.941406 160.25 134.246094 159.789062 C 132.707031 159.480469 131.015625 160.402344 130.554688 162.09375 Z M 130.554688 162.09375 " fill-opacity="1" fill-rule="nonzero"/></svg>