<svg xmlns="http://www.w3.org/2000/svg" xmlns:xlink="http://www.w3.org/1999/xlink" width="1794" zoomAndPan="magnify" viewBox="0 0 1345.5 335.999987" height="448" preserveAspectRatio="xMidYMid meet" version="1.0"><defs><g/><clipPath id="b1e4825ef6"><path d="M 75.175781 98.050781 L 306.453125 98.050781 L 306.453125 260.996094 L 75.175781 260.996094 Z M 75.175781 98.050781 " clip-rule="nonzero"/></clipPath></defs><g clip-path="url(#b1e4825ef6)"><path fill="#cfb991" d="M 295.613281 98.066406 L 86.015625 98.066406 C 80.054688 98.066406 75.175781 102.953125 75.175781 108.925781 L 75.175781 235.640625 C 75.175781 241.613281 80.054688 246.5 86.015625 246.5 L 187.199219 246.5 L 187.199219 253.742188 L 154.675781 253.742188 C 152.691406 253.742188 151.0625 255.371094 151.0625 257.359375 C 151.0625 259.351562 152.691406 260.980469 154.675781 260.980469 L 226.953125 260.980469 C 228.9375 260.980469 230.566406 259.351562 230.566406 257.359375 C 230.566406 255.371094 228.9375 253.742188 226.953125 253.742188 L 194.429688 253.742188 L 194.429688 246.5 L 295.613281 246.5 C 301.574219 246.5 306.453125 241.613281 306.453125 235.640625 L 306.453125 108.925781 C 306.453125 102.953125 301.574219 98.066406 295.613281 98.066406 Z M 299.226562 235.640625 C 299.226562 237.628906 297.601562 239.257812 295.613281 239.257812 L 86.015625 239.257812 C 84.027344 239.257812 82.402344 237.628906 82.402344 235.640625 L 82.402344 108.925781 C 82.402344 106.933594 84.027344 105.304688 86.015625 105.304688 L 295.613281 105.304688 C 297.601562 105.304688 299.226562 106.933594 299.226562 108.925781 Z M 299.226562 235.640625 " fill-opacity="1" fill-rule="nonzero"/></g><path fill="#cfb991" d="M 222.796875 145.128906 L 158.832031 145.128906 C 156.664062 145.128906 154.496094 146.035156 153.050781 147.664062 C 151.605469 149.292969 150.882812 151.464844 151.242188 153.457031 L 157.75 214.460938 C 158.109375 217.539062 160.277344 220.070312 163.351562 220.976562 L 189.910156 228.21875 C 190.273438 228.21875 190.453125 228.398438 190.8125 228.398438 C 191.175781 228.398438 191.539062 228.398438 191.71875 228.21875 L 218.277344 220.976562 C 221.351562 220.070312 223.519531 217.539062 223.878906 214.460938 L 230.566406 153.636719 C 230.746094 151.464844 230.023438 149.472656 228.757812 147.84375 C 227.132812 146.035156 224.964844 145.128906 222.796875 145.128906 Z M 216.832031 213.917969 C 216.832031 214.097656 216.652344 214.277344 216.472656 214.277344 L 190.8125 221.15625 L 165.15625 214.097656 C 164.976562 214.097656 164.796875 213.917969 164.796875 213.734375 L 158.289062 152.734375 L 158.289062 152.550781 C 158.289062 152.550781 158.472656 152.371094 158.832031 152.371094 L 222.796875 152.371094 C 222.976562 152.371094 223.15625 152.550781 223.339844 152.550781 C 223.519531 152.734375 223.339844 152.734375 223.339844 152.734375 Z M 216.832031 213.917969 " fill-opacity="1" fill-rule="nonzero"/><path fill="#cfb991" d="M 135.523438 113.632812 C 134.078125 112.183594 131.910156 112.183594 130.464844 113.632812 L 123.238281 120.875 C 121.792969 122.320312 121.792969 124.492188 123.238281 125.941406 L 130.464844 133.183594 C 131.1875 133.90625 132.089844 134.269531 132.996094 134.269531 C 133.898438 134.269531 134.800781 133.90625 135.523438 133.183594 C 136.96875 131.734375 136.96875 129.5625 135.523438 128.113281 L 130.828125 123.40625 L 135.523438 118.703125 C 136.96875 117.253906 136.96875 115.082031 135.523438 113.632812 Z M 135.523438 113.632812 " fill-opacity="1" fill-rule="nonzero"/><path fill="#cfb991" d="M 246.105469 133.183594 C 246.828125 133.90625 247.730469 134.269531 248.632812 134.269531 C 249.539062 134.269531 250.441406 133.90625 251.164062 133.183594 L 258.390625 125.941406 C 259.835938 124.492188 259.835938 122.320312 258.390625 120.875 L 251.164062 113.632812 C 249.71875 112.183594 247.550781 112.183594 246.105469 113.632812 C 244.660156 115.082031 244.660156 117.253906 246.105469 118.703125 L 250.800781 123.40625 L 246.105469 128.113281 C 244.660156 129.5625 244.660156 131.734375 246.105469 133.183594 Z M 246.105469 133.183594 " fill-opacity="1" fill-rule="nonzero"/><path fill="#cfb991" d="M 180.695312 176.988281 C 179.25 175.542969 177.082031 175.542969 175.636719 176.988281 L 168.410156 184.230469 C 166.964844 185.679688 166.964844 187.851562 168.410156 189.296875 L 175.636719 196.539062 C 176.359375 197.261719 177.261719 197.625 178.167969 197.625 C 179.070312 197.625 179.972656 197.261719 180.695312 196.539062 C 182.140625 195.089844 182.140625 192.917969 180.695312 191.46875 L 176 186.765625 L 180.695312 182.058594 C 182.140625 180.609375 182.140625 178.4375 180.695312 176.988281 Z M 180.695312 176.988281 " fill-opacity="1" fill-rule="nonzero"/><path fill="#cfb991" d="M 205.992188 176.988281 C 204.546875 175.542969 202.378906 175.542969 200.933594 176.988281 C 199.488281 178.4375 199.488281 180.609375 200.933594 182.058594 L 205.628906 186.765625 L 200.933594 191.46875 C 199.488281 192.917969 199.488281 195.089844 200.933594 196.539062 C 201.65625 197.261719 202.558594 197.625 203.460938 197.625 C 204.367188 197.625 205.269531 197.261719 205.992188 196.539062 L 213.21875 189.296875 C 214.664062 187.851562 214.664062 185.679688 213.21875 184.230469 Z M 205.992188 176.988281 " fill-opacity="1" fill-rule="nonzero"/><path fill="#cfb991" d="M 195.511719 172.464844 C 193.523438 171.738281 191.539062 172.824219 190.996094 174.816406 L 183.769531 196.539062 C 183.226562 198.347656 184.128906 200.519531 186.117188 201.066406 C 186.476562 201.246094 186.839844 201.246094 187.199219 201.246094 C 188.644531 201.246094 190.089844 200.339844 190.632812 198.710938 L 197.859375 176.988281 C 198.402344 175.179688 197.5 173.1875 195.511719 172.464844 Z M 195.511719 172.464844 " fill-opacity="1" fill-rule="nonzero"/><path fill="#cfb991" d="M 248.632812 165.042969 L 270.316406 165.042969 C 272.304688 165.042969 273.929688 163.414062 273.929688 161.421875 C 273.929688 159.429688 272.304688 157.800781 270.316406 157.800781 L 248.632812 157.800781 C 246.644531 157.800781 245.019531 159.429688 245.019531 161.421875 C 245.019531 163.414062 246.644531 165.042969 248.632812 165.042969 Z M 248.632812 165.042969 " fill-opacity="1" fill-rule="nonzero"/><path fill="#cfb991" d="M 288.386719 172.28125 L 248.632812 172.28125 C 246.644531 172.28125 245.019531 173.910156 245.019531 175.902344 C 245.019531 177.894531 246.644531 179.523438 248.632812 179.523438 L 288.386719 179.523438 C 290.371094 179.523438 292 177.894531 292 175.902344 C 292 173.910156 290.371094 172.28125 288.386719 172.28125 Z M 288.386719 172.28125 " fill-opacity="1" fill-rule="nonzero"/><path fill="#cfb991" d="M 288.386719 186.765625 L 248.632812 186.765625 C 246.644531 186.765625 245.019531 188.394531 245.019531 190.382812 C 245.019531 192.375 246.644531 194.003906 248.632812 194.003906 L 288.386719 194.003906 C 290.371094 194.003906 292 192.375 292 190.382812 C 292 188.394531 290.371094 186.765625 288.386719 186.765625 Z M 288.386719 186.765625 " fill-opacity="1" fill-rule="nonzero"/><path fill="#cfb991" d="M 288.386719 201.246094 L 248.632812 201.246094 C 246.644531 201.246094 245.019531 202.875 245.019531 204.867188 C 245.019531 206.855469 246.644531 208.484375 248.632812 208.484375 L 288.386719 208.484375 C 290.371094 208.484375 292 206.855469 292 204.867188 C 292 202.875 290.371094 201.246094 288.386719 201.246094 Z M 288.386719 201.246094 " fill-opacity="1" fill-rule="nonzero"/><path fill="#cfb991" d="M 93.242188 165.042969 L 114.925781 165.042969 C 116.914062 165.042969 118.539062 163.414062 118.539062 161.421875 C 118.539062 159.429688 116.914062 157.800781 114.925781 157.800781 L 93.242188 157.800781 C 91.257812 157.800781 89.628906 159.429688 89.628906 161.421875 C 89.628906 163.414062 91.257812 165.042969 93.242188 165.042969 Z M 93.242188 165.042969 " fill-opacity="1" fill-rule="nonzero"/><path fill="#cfb991" d="M 132.996094 172.28125 L 93.242188 172.28125 C 91.257812 172.28125 89.628906 173.910156 89.628906 175.902344 C 89.628906 177.894531 91.257812 179.523438 93.242188 179.523438 L 132.996094 179.523438 C 134.980469 179.523438 136.609375 177.894531 136.609375 175.902344 C 136.609375 173.910156 134.980469 172.28125 132.996094 172.28125 Z M 132.996094 172.28125 " fill-opacity="1" fill-rule="nonzero"/><path fill="#cfb991" d="M 132.996094 186.765625 L 93.242188 186.765625 C 91.257812 186.765625 89.628906 188.394531 89.628906 190.382812 C 89.628906 192.375 91.257812 194.003906 93.242188 194.003906 L 132.996094 194.003906 C 134.980469 194.003906 136.609375 192.375 136.609375 190.382812 C 136.609375 188.394531 134.980469 186.765625 132.996094 186.765625 Z M 132.996094 186.765625 " fill-opacity="1" fill-rule="nonzero"/><path fill="#cfb991" d="M 132.996094 201.246094 L 93.242188 201.246094 C 91.257812 201.246094 89.628906 202.875 89.628906 204.867188 C 89.628906 206.855469 91.257812 208.484375 93.242188 208.484375 L 132.996094 208.484375 C 134.980469 208.484375 136.609375 206.855469 136.609375 204.867188 C 136.609375 202.875 134.980469 201.246094 132.996094 201.246094 Z M 132.996094 201.246094 " fill-opacity="1" fill-rule="nonzero"/><g fill="#ffffff" fill-opacity="1"><g transform="translate(324.473269, 173.318764)"><g><path d="M 61.96875 -47.875 L 51.203125 -47.875 L 49.71875 -57.5 C 48.289062 -58.925781 46.492188 -60.050781 44.328125 -60.875 C 42.160156 -61.695312 39.609375 -62.109375 36.671875 -62.109375 C 30.378906 -62.109375 25.535156 -59.828125 22.140625 -55.265625 C 18.753906 -50.703125 17.0625 -44.75 17.0625 -37.40625 L 17.0625 -34.875 C 17.0625 -27.53125 18.75 -21.5625 22.125 -16.96875 C 25.5 -12.375 30.265625 -10.078125 36.421875 -10.078125 C 39.265625 -10.078125 41.867188 -10.488281 44.234375 -11.3125 C 46.597656 -12.132812 48.425781 -13.257812 49.71875 -14.6875 L 51.203125 -24.3125 L 61.96875 -24.3125 L 61.96875 -10.015625 C 59.0625 -6.648438 55.347656 -3.960938 50.828125 -1.953125 C 46.316406 0.046875 41.265625 1.046875 35.671875 1.046875 C 25.984375 1.046875 18.046875 -2.304688 11.859375 -9.015625 C 5.671875 -15.734375 2.578125 -24.351562 2.578125 -34.875 L 2.578125 -37.3125 C 2.578125 -47.789062 5.648438 -56.40625 11.796875 -63.15625 C 17.953125 -69.90625 25.910156 -73.28125 35.671875 -73.28125 C 41.265625 -73.28125 46.304688 -72.257812 50.796875 -70.21875 C 55.296875 -68.1875 59.019531 -65.503906 61.96875 -62.171875 Z M 61.96875 -47.875 "/></g></g></g><g fill="#ffffff" fill-opacity="1"><g transform="translate(390.301634, 173.318764)"><g><path d="M 3.125 -27.34375 C 3.125 -35.34375 5.363281 -41.894531 9.84375 -47 C 14.332031 -52.113281 20.523438 -54.671875 28.421875 -54.671875 C 36.367188 -54.671875 42.582031 -52.125 47.0625 -47.03125 C 51.539062 -41.9375 53.78125 -35.375 53.78125 -27.34375 L 53.78125 -26.296875 C 53.78125 -18.222656 51.539062 -11.644531 47.0625 -6.5625 C 42.582031 -1.488281 36.40625 1.046875 28.53125 1.046875 C 20.5625 1.046875 14.332031 -1.488281 9.84375 -6.5625 C 5.363281 -11.644531 3.125 -18.222656 3.125 -26.296875 Z M 17.609375 -26.296875 C 17.609375 -21.398438 18.46875 -17.472656 20.1875 -14.515625 C 21.90625 -11.554688 24.6875 -10.078125 28.53125 -10.078125 C 32.269531 -10.078125 35.003906 -11.5625 36.734375 -14.53125 C 38.472656 -17.507812 39.34375 -21.429688 39.34375 -26.296875 L 39.34375 -27.34375 C 39.34375 -32.101562 38.460938 -35.988281 36.703125 -39 C 34.953125 -42.007812 32.191406 -43.515625 28.421875 -43.515625 C 24.648438 -43.515625 21.90625 -42.007812 20.1875 -39 C 18.46875 -35.988281 17.609375 -32.101562 17.609375 -27.34375 Z M 17.609375 -26.296875 "/></g></g></g><g fill="#ffffff" fill-opacity="1"><g transform="translate(447.250362, 173.318764)"><g><path d="M 1.4375 -44.953125 L 1.4375 -53.6875 L 22.625 -53.6875 L 23.21875 -46.59375 C 24.9375 -49.164062 27.09375 -51.15625 29.6875 -52.5625 C 32.289062 -53.96875 35.296875 -54.671875 38.703125 -54.671875 C 42.140625 -54.671875 45.082031 -53.910156 47.53125 -52.390625 C 49.976562 -50.867188 51.832031 -48.570312 53.09375 -45.5 C 54.738281 -48.375 56.882812 -50.617188 59.53125 -52.234375 C 62.175781 -53.859375 65.285156 -54.671875 68.859375 -54.671875 C 74.148438 -54.671875 78.328125 -52.84375 81.390625 -49.1875 C 84.453125 -45.53125 85.984375 -39.96875 85.984375 -32.5 L 85.984375 -10.171875 L 92.96875 -8.6875 L 92.96875 0 L 65.25 0 L 65.25 -8.6875 L 71.5 -10.171875 L 71.5 -32.546875 C 71.5 -36.617188 70.835938 -39.445312 69.515625 -41.03125 C 68.191406 -42.613281 66.222656 -43.40625 63.609375 -43.40625 C 61.554688 -43.40625 59.773438 -42.953125 58.265625 -42.046875 C 56.765625 -41.140625 55.566406 -39.875 54.671875 -38.25 C 54.671875 -37.625 54.6875 -37.085938 54.71875 -36.640625 C 54.757812 -36.191406 54.78125 -35.738281 54.78125 -35.28125 L 54.78125 -10.171875 L 60.625 -8.6875 L 60.625 0 L 34.484375 0 L 34.484375 -8.6875 L 40.34375 -10.171875 L 40.34375 -32.546875 C 40.34375 -36.515625 39.675781 -39.316406 38.34375 -40.953125 C 37.019531 -42.585938 35.035156 -43.40625 32.390625 -43.40625 C 30.441406 -43.40625 28.734375 -43.03125 27.265625 -42.28125 C 25.796875 -41.539062 24.578125 -40.492188 23.609375 -39.140625 L 23.609375 -10.171875 L 29.875 -8.6875 L 29.875 0 L 2.1875 0 L 2.1875 -8.6875 L 9.171875 -10.171875 L 9.171875 -43.46875 Z M 1.4375 -44.953125 "/></g></g></g><g fill="#ffffff" fill-opacity="1"><g transform="translate(541.751521, 173.318764)"><g><path d="M 2.03125 -44.953125 L 2.03125 -53.6875 L 23.078125 -53.6875 L 23.765625 -47.4375 C 25.347656 -49.75 27.25 -51.53125 29.46875 -52.78125 C 31.6875 -54.039062 34.265625 -54.671875 37.203125 -54.671875 C 43.859375 -54.671875 49.019531 -52.070312 52.6875 -46.875 C 56.363281 -41.6875 58.203125 -34.859375 58.203125 -26.390625 L 58.203125 -25.359375 C 58.203125 -17.421875 56.363281 -11.035156 52.6875 -6.203125 C 49.019531 -1.367188 43.894531 1.046875 37.3125 1.046875 C 34.5 1.046875 32 0.523438 29.8125 -0.515625 C 27.632812 -1.554688 25.769531 -3.085938 24.21875 -5.109375 L 24.21875 10.421875 L 31.203125 11.90625 L 31.203125 20.640625 L 2.78125 20.640625 L 2.78125 11.90625 L 9.78125 10.421875 L 9.78125 -43.46875 Z M 43.703125 -26.390625 C 43.703125 -31.453125 42.859375 -35.550781 41.171875 -38.6875 C 39.492188 -41.832031 36.914062 -43.40625 33.4375 -43.40625 C 31.257812 -43.40625 29.398438 -42.957031 27.859375 -42.0625 C 26.316406 -41.175781 25.101562 -39.90625 24.21875 -38.25 L 24.21875 -14.734375 C 25.101562 -13.210938 26.316406 -12.054688 27.859375 -11.265625 C 29.398438 -10.472656 31.289062 -10.078125 33.53125 -10.078125 C 37.039062 -10.078125 39.613281 -11.445312 41.25 -14.1875 C 42.882812 -16.9375 43.703125 -20.660156 43.703125 -25.359375 Z M 43.703125 -26.390625 "/></g></g></g><g fill="#ffffff" fill-opacity="1"><g transform="translate(603.264084, 173.318764)"><g><path d="M 40.6875 -6.796875 C 38.96875 -4.285156 36.84375 -2.347656 34.3125 -0.984375 C 31.78125 0.367188 28.894531 1.046875 25.65625 1.046875 C 20 1.046875 15.566406 -0.765625 12.359375 -4.390625 C 9.148438 -8.015625 7.546875 -13.644531 7.546875 -21.28125 L 7.546875 -43.46875 L 1.640625 -44.953125 L 1.640625 -53.6875 L 22.03125 -53.6875 L 22.03125 -21.1875 C 22.03125 -17.28125 22.679688 -14.472656 23.984375 -12.765625 C 25.296875 -11.066406 27.238281 -10.21875 29.8125 -10.21875 C 32.09375 -10.21875 34.066406 -10.585938 35.734375 -11.328125 C 37.410156 -12.078125 38.78125 -13.144531 39.84375 -14.53125 L 39.84375 -43.46875 L 33.484375 -44.953125 L 33.484375 -53.6875 L 54.328125 -53.6875 L 54.328125 -10.171875 L 60.828125 -8.6875 L 60.828125 0 L 41.625 0 Z M 40.6875 -6.796875 "/></g></g></g><g fill="#ffffff" fill-opacity="1"><g transform="translate(666.66171, 173.318764)"><g><path d="M 24.515625 -66.828125 L 24.515625 -53.6875 L 33.9375 -53.6875 L 33.9375 -43.515625 L 24.515625 -43.515625 L 24.515625 -16.171875 C 24.515625 -14.085938 24.941406 -12.597656 25.796875 -11.703125 C 26.660156 -10.816406 27.816406 -10.375 29.265625 -10.375 C 30.265625 -10.375 31.132812 -10.414062 31.875 -10.5 C 32.625 -10.582031 33.457031 -10.722656 34.375 -10.921875 L 35.625 -0.453125 C 34 0.046875 32.390625 0.421875 30.796875 0.671875 C 29.210938 0.921875 27.5 1.046875 25.65625 1.046875 C 20.65625 1.046875 16.804688 -0.320312 14.109375 -3.0625 C 11.421875 -5.8125 10.078125 -10.164062 10.078125 -16.125 L 10.078125 -43.515625 L 2.1875 -43.515625 L 2.1875 -53.6875 L 10.078125 -53.6875 L 10.078125 -66.828125 Z M 24.515625 -66.828125 "/></g></g></g><g fill="#ffffff" fill-opacity="1"><g transform="translate(704.561387, 173.318764)"><g><path d="M 28.828125 1.046875 C 21.085938 1.046875 14.898438 -1.429688 10.265625 -6.390625 C 5.640625 -11.359375 3.328125 -17.660156 3.328125 -25.296875 L 3.328125 -27.28125 C 3.328125 -35.257812 5.515625 -41.828125 9.890625 -46.984375 C 14.273438 -52.140625 20.15625 -54.703125 27.53125 -54.671875 C 34.78125 -54.671875 40.40625 -52.488281 44.40625 -48.125 C 48.40625 -43.757812 50.40625 -37.851562 50.40625 -30.40625 L 50.40625 -22.53125 L 18.359375 -22.53125 L 18.265625 -22.234375 C 18.523438 -18.691406 19.703125 -15.78125 21.796875 -13.5 C 23.898438 -11.21875 26.753906 -10.078125 30.359375 -10.078125 C 33.566406 -10.078125 36.226562 -10.394531 38.34375 -11.03125 C 40.46875 -11.675781 42.785156 -12.695312 45.296875 -14.09375 L 49.21875 -5.15625 C 47 -3.40625 44.128906 -1.929688 40.609375 -0.734375 C 37.085938 0.453125 33.160156 1.046875 28.828125 1.046875 Z M 27.53125 -43.515625 C 24.851562 -43.515625 22.738281 -42.488281 21.1875 -40.4375 C 19.632812 -38.382812 18.675781 -35.6875 18.3125 -32.34375 L 18.453125 -32.09375 L 36.21875 -32.09375 L 36.21875 -33.390625 C 36.21875 -36.460938 35.5 -38.914062 34.0625 -40.75 C 32.625 -42.59375 30.445312 -43.515625 27.53125 -43.515625 Z M 27.53125 -43.515625 "/></g></g></g><g fill="#ffffff" fill-opacity="1"><g transform="translate(758.682521, 173.318764)"><g><path d="M 4.21875 -8.6875 L 11.15625 -10.171875 L 11.15625 -43.46875 L 3.46875 -44.953125 L 3.46875 -53.6875 L 24.65625 -53.6875 L 25.296875 -45.84375 C 26.554688 -48.625 28.175781 -50.789062 30.15625 -52.34375 C 32.144531 -53.894531 34.445312 -54.671875 37.0625 -54.671875 C 37.820312 -54.671875 38.625 -54.613281 39.46875 -54.5 C 40.3125 -54.382812 41.015625 -54.242188 41.578125 -54.078125 L 40.03125 -40.875 L 34.078125 -41.03125 C 31.960938 -41.03125 30.207031 -40.613281 28.8125 -39.78125 C 27.425781 -38.957031 26.375 -37.785156 25.65625 -36.265625 L 25.65625 -10.171875 L 32.59375 -8.6875 L 32.59375 0 L 4.21875 0 Z M 4.21875 -8.6875 "/></g></g></g><g fill="#ffffff" fill-opacity="1"><g transform="translate(801.443675, 173.318764)"><g/></g></g><g fill="#ffffff" fill-opacity="1"><g transform="translate(826.346342, 173.318764)"><g><path d="M 57.65625 -49.171875 L 46.78125 -49.171875 L 44.90625 -59.09375 C 43.644531 -59.882812 41.804688 -60.578125 39.390625 -61.171875 C 36.972656 -61.765625 34.410156 -62.0625 31.703125 -62.0625 C 27.734375 -62.0625 24.664062 -61.226562 22.5 -59.5625 C 20.332031 -57.894531 19.25 -55.738281 19.25 -53.09375 C 19.25 -50.644531 20.378906 -48.632812 22.640625 -47.0625 C 24.910156 -45.488281 28.820312 -43.828125 34.375 -42.078125 C 42.351562 -39.859375 48.398438 -36.925781 52.515625 -33.28125 C 56.628906 -29.644531 58.6875 -24.867188 58.6875 -18.953125 C 58.6875 -12.765625 56.238281 -7.882812 51.34375 -4.3125 C 46.445312 -0.738281 40 1.046875 32 1.046875 C 26.28125 1.046875 21.113281 0.132812 16.5 -1.6875 C 11.882812 -3.507812 8.039062 -6.023438 4.96875 -9.234375 L 4.96875 -24.3125 L 16.171875 -24.3125 L 17.71875 -14.046875 C 19.164062 -12.847656 21.140625 -11.859375 23.640625 -11.078125 C 26.140625 -10.304688 28.925781 -9.921875 32 -9.921875 C 35.96875 -9.921875 38.984375 -10.726562 41.046875 -12.34375 C 43.117188 -13.96875 44.15625 -16.140625 44.15625 -18.859375 C 44.15625 -21.628906 43.171875 -23.859375 41.203125 -25.546875 C 39.234375 -27.234375 35.785156 -28.820312 30.859375 -30.3125 C 22.296875 -32.789062 15.8125 -35.734375 11.40625 -39.140625 C 7.007812 -42.546875 4.8125 -47.210938 4.8125 -53.140625 C 4.8125 -58.992188 7.289062 -63.78125 12.25 -67.5 C 17.21875 -71.21875 23.453125 -73.128906 30.953125 -73.234375 C 36.515625 -73.234375 41.578125 -72.390625 46.140625 -70.703125 C 50.703125 -69.015625 54.539062 -66.765625 57.65625 -63.953125 Z M 57.65625 -49.171875 "/></g></g></g><g fill="#ffffff" fill-opacity="1"><g transform="translate(887.958121, 173.318764)"><g><path d="M 28.328125 -10.078125 C 30.910156 -10.078125 32.976562 -10.828125 34.53125 -12.328125 C 36.082031 -13.835938 36.859375 -15.847656 36.859375 -18.359375 L 49.96875 -18.359375 L 50.109375 -18.0625 C 50.242188 -12.632812 48.207031 -8.09375 44 -4.4375 C 39.800781 -0.78125 34.578125 1.046875 28.328125 1.046875 C 20.328125 1.046875 14.160156 -1.484375 9.828125 -6.546875 C 5.492188 -11.609375 3.328125 -18.109375 3.328125 -26.046875 L 3.328125 -27.53125 C 3.328125 -35.4375 5.550781 -41.9375 10 -47.03125 C 14.445312 -52.125 20.789062 -54.671875 29.03125 -54.671875 C 33.363281 -54.671875 37.25 -54.023438 40.6875 -52.734375 C 44.125 -51.453125 46.984375 -49.632812 49.265625 -47.28125 L 49.46875 -32.9375 L 37.703125 -32.9375 L 35.328125 -41.328125 C 34.597656 -41.953125 33.703125 -42.472656 32.640625 -42.890625 C 31.585938 -43.304688 30.382812 -43.515625 29.03125 -43.515625 C 24.925781 -43.515625 22.03125 -42.023438 20.34375 -39.046875 C 18.65625 -36.066406 17.8125 -32.226562 17.8125 -27.53125 L 17.8125 -26.046875 C 17.8125 -21.253906 18.585938 -17.394531 20.140625 -14.46875 C 21.691406 -11.539062 24.421875 -10.078125 28.328125 -10.078125 Z M 28.328125 -10.078125 "/></g></g></g><g fill="#ffffff" fill-opacity="1"><g transform="translate(941.483974, 173.318764)"><g><path d="M 2.671875 -8.6875 L 9.671875 -10.171875 L 9.671875 -43.46875 L 1.9375 -44.953125 L 1.9375 -53.6875 L 24.15625 -53.6875 L 24.15625 -10.171875 L 31.109375 -8.6875 L 31.109375 0 L 2.671875 0 Z M 24.15625 -66.53125 L 9.671875 -66.53125 L 9.671875 -77.390625 L 24.15625 -77.390625 Z M 24.15625 -66.53125 "/></g></g></g><g fill="#ffffff" fill-opacity="1"><g transform="translate(974.224532, 173.318764)"><g><path d="M 28.828125 1.046875 C 21.085938 1.046875 14.898438 -1.429688 10.265625 -6.390625 C 5.640625 -11.359375 3.328125 -17.660156 3.328125 -25.296875 L 3.328125 -27.28125 C 3.328125 -35.257812 5.515625 -41.828125 9.890625 -46.984375 C 14.273438 -52.140625 20.15625 -54.703125 27.53125 -54.671875 C 34.78125 -54.671875 40.40625 -52.488281 44.40625 -48.125 C 48.40625 -43.757812 50.40625 -37.851562 50.40625 -30.40625 L 50.40625 -22.53125 L 18.359375 -22.53125 L 18.265625 -22.234375 C 18.523438 -18.691406 19.703125 -15.78125 21.796875 -13.5 C 23.898438 -11.21875 26.753906 -10.078125 30.359375 -10.078125 C 33.566406 -10.078125 36.226562 -10.394531 38.34375 -11.03125 C 40.46875 -11.675781 42.785156 -12.695312 45.296875 -14.09375 L 49.21875 -5.15625 C 47 -3.40625 44.128906 -1.929688 40.609375 -0.734375 C 37.085938 0.453125 33.160156 1.046875 28.828125 1.046875 Z M 27.53125 -43.515625 C 24.851562 -43.515625 22.738281 -42.488281 21.1875 -40.4375 C 19.632812 -38.382812 18.675781 -35.6875 18.3125 -32.34375 L 18.453125 -32.09375 L 36.21875 -32.09375 L 36.21875 -33.390625 C 36.21875 -36.460938 35.5 -38.914062 34.0625 -40.75 C 32.625 -42.59375 30.445312 -43.515625 27.53125 -43.515625 Z M 27.53125 -43.515625 "/></g></g></g><g fill="#ffffff" fill-opacity="1"><g transform="translate(1028.345627, 173.318764)"><g><path d="M 2.328125 -8.6875 L 9.28125 -10.171875 L 9.28125 -43.46875 L 1.59375 -44.953125 L 1.59375 -53.6875 L 22.765625 -53.6875 L 23.421875 -45.984375 C 25.203125 -48.734375 27.398438 -50.867188 30.015625 -52.390625 C 32.628906 -53.910156 35.554688 -54.671875 38.796875 -54.671875 C 44.222656 -54.671875 48.457031 -52.96875 51.5 -49.5625 C 54.539062 -46.15625 56.0625 -40.8125 56.0625 -33.53125 L 56.0625 -10.171875 L 63.015625 -8.6875 L 63.015625 0 L 35.328125 0 L 35.328125 -8.6875 L 41.53125 -10.171875 L 41.53125 -33.484375 C 41.53125 -37.085938 40.800781 -39.640625 39.34375 -41.140625 C 37.882812 -42.648438 35.6875 -43.40625 32.75 -43.40625 C 30.832031 -43.40625 29.109375 -43.015625 27.578125 -42.234375 C 26.054688 -41.460938 24.785156 -40.367188 23.765625 -38.953125 L 23.765625 -10.171875 L 29.625 -8.6875 L 29.625 0 L 2.328125 0 Z M 2.328125 -8.6875 "/></g></g></g><g fill="#ffffff" fill-opacity="1"><g transform="translate(1092.834607, 173.318764)"><g><path d="M 28.328125 -10.078125 C 30.910156 -10.078125 32.976562 -10.828125 34.53125 -12.328125 C 36.082031 -13.835938 36.859375 -15.847656 36.859375 -18.359375 L 49.96875 -18.359375 L 50.109375 -18.0625 C 50.242188 -12.632812 48.207031 -8.09375 44 -4.4375 C 39.800781 -0.78125 34.578125 1.046875 28.328125 1.046875 C 20.328125 1.046875 14.160156 -1.484375 9.828125 -6.546875 C 5.492188 -11.609375 3.328125 -18.109375 3.328125 -26.046875 L 3.328125 -27.53125 C 3.328125 -35.4375 5.550781 -41.9375 10 -47.03125 C 14.445312 -52.125 20.789062 -54.671875 29.03125 -54.671875 C 33.363281 -54.671875 37.25 -54.023438 40.6875 -52.734375 C 44.125 -51.453125 46.984375 -49.632812 49.265625 -47.28125 L 49.46875 -32.9375 L 37.703125 -32.9375 L 35.328125 -41.328125 C 34.597656 -41.953125 33.703125 -42.472656 32.640625 -42.890625 C 31.585938 -43.304688 30.382812 -43.515625 29.03125 -43.515625 C 24.925781 -43.515625 22.03125 -42.023438 20.34375 -39.046875 C 18.65625 -36.066406 17.8125 -32.226562 17.8125 -27.53125 L 17.8125 -26.046875 C 17.8125 -21.253906 18.585938 -17.394531 20.140625 -14.46875 C 21.691406 -11.539062 24.421875 -10.078125 28.328125 -10.078125 Z M 28.328125 -10.078125 "/></g></g></g><g fill="#ffffff" fill-opacity="1"><g transform="translate(1146.360499, 173.318764)"><g><path d="M 28.828125 1.046875 C 21.085938 1.046875 14.898438 -1.429688 10.265625 -6.390625 C 5.640625 -11.359375 3.328125 -17.660156 3.328125 -25.296875 L 3.328125 -27.28125 C 3.328125 -35.257812 5.515625 -41.828125 9.890625 -46.984375 C 14.273438 -52.140625 20.15625 -54.703125 27.53125 -54.671875 C 34.78125 -54.671875 40.40625 -52.488281 44.40625 -48.125 C 48.40625 -43.757812 50.40625 -37.851562 50.40625 -30.40625 L 50.40625 -22.53125 L 18.359375 -22.53125 L 18.265625 -22.234375 C 18.523438 -18.691406 19.703125 -15.78125 21.796875 -13.5 C 23.898438 -11.21875 26.753906 -10.078125 30.359375 -10.078125 C 33.566406 -10.078125 36.226562 -10.394531 38.34375 -11.03125 C 40.46875 -11.675781 42.785156 -12.695312 45.296875 -14.09375 L 49.21875 -5.15625 C 47 -3.40625 44.128906 -1.929688 40.609375 -0.734375 C 37.085938 0.453125 33.160156 1.046875 28.828125 1.046875 Z M 27.53125 -43.515625 C 24.851562 -43.515625 22.738281 -42.488281 21.1875 -40.4375 C 19.632812 -38.382812 18.675781 -35.6875 18.3125 -32.34375 L 18.453125 -32.09375 L 36.21875 -32.09375 L 36.21875 -33.390625 C 36.21875 -36.460938 35.5 -38.914062 34.0625 -40.75 C 32.625 -42.59375 30.445312 -43.515625 27.53125 -43.515625 Z M 27.53125 -43.515625 "/></g></g></g><g fill="#ffffff" fill-opacity="1"><g transform="translate(1200.481673, 173.318764)"><g/></g></g><g fill="#ffffff" fill-opacity="1"><g transform="translate(1225.38434, 173.318764)"><g><path d="M 3.21875 -8.6875 L 15.4375 -10.171875 L 15.4375 -59.09375 L 3.078125 -59.09375 L 3.078125 -67.375 L 29.875 -72.234375 L 29.875 -10.171875 L 42.078125 -8.6875 L 42.078125 0 L 3.21875 0 Z M 3.21875 -8.6875 "/></g></g></g><g fill="#a6a6a6" fill-opacity="1"><g transform="translate(336.106179, 249.886006)"><g><path d="M 16.503906 -24.496094 L 9.777344 -24.496094 L 9.777344 -41.210938 C 9.777344 -41.734375 9.460938 -42.050781 8.9375 -42.050781 L 3.523438 -42.050781 C 2.890625 -42.050781 2.628906 -41.734375 2.628906 -41.210938 L 2.628906 -0.839844 C 2.628906 -0.316406 2.890625 0 3.523438 0 L 8.9375 0 C 9.460938 0 9.777344 -0.316406 9.777344 -0.839844 L 9.777344 -17.554688 L 16.503906 -17.554688 L 16.503906 -0.839844 C 16.503906 -0.316406 16.820312 0 17.347656 0 L 22.761719 0 C 23.390625 0 23.652344 -0.316406 23.652344 -0.839844 L 23.652344 -41.210938 C 23.652344 -41.734375 23.390625 -42.050781 22.761719 -42.050781 L 17.347656 -42.050781 C 16.820312 -42.050781 16.503906 -41.734375 16.503906 -41.210938 Z M 16.503906 -24.496094 "/></g></g></g><g fill="#a6a6a6" fill-opacity="1"><g transform="translate(362.387774, 249.886006)"><g><path d="M 27.4375 0 C 28.070312 0 28.332031 -0.316406 28.175781 -0.894531 L 19.449219 -36.058594 C 19.34375 -36.585938 19.027344 -36.792969 18.554688 -36.792969 L 11.25 -36.792969 C 10.777344 -36.792969 10.460938 -36.585938 10.355469 -36.058594 L 1.628906 -0.894531 C 1.472656 -0.316406 1.734375 0 2.3125 0 L 7.464844 0 C 7.9375 0 8.199219 -0.261719 8.304688 -0.734375 L 9.933594 -7.359375 L 19.816406 -7.359375 L 21.5 -0.734375 C 21.601562 -0.261719 21.867188 0 22.339844 0 Z M 18.1875 -13.457031 L 11.5625 -13.457031 L 14.875 -27.753906 Z M 18.1875 -13.457031 "/></g></g></g><g fill="#a6a6a6" fill-opacity="1"><g transform="translate(392.191138, 249.886006)"><g><path d="M 24.601562 -36.792969 C 23.96875 -36.792969 23.601562 -36.480469 23.441406 -35.902344 L 17.609375 -12.457031 L 11.773438 -35.902344 C 11.617188 -36.480469 11.25 -36.792969 10.617188 -36.792969 L 3.679688 -36.792969 C 2.996094 -36.792969 2.628906 -36.425781 2.628906 -35.742188 L 2.628906 -1.050781 C 2.628906 -0.367188 2.996094 0 3.679688 0 L 8.515625 0 C 9.199219 0 9.566406 -0.367188 9.566406 -1.050781 L 9.566406 -21.707031 L 9.933594 -21.707031 L 14.875 -0.894531 C 15.03125 -0.316406 15.402344 0 16.03125 0 L 19.132812 0 C 19.765625 0 20.132812 -0.316406 20.289062 -0.894531 L 25.230469 -21.707031 L 25.597656 -21.707031 L 25.597656 -1.050781 C 25.597656 -0.367188 25.964844 0 26.648438 0 L 31.539062 0 C 32.222656 0 32.589844 -0.367188 32.589844 -1.050781 L 32.589844 -35.742188 C 32.589844 -36.425781 32.222656 -36.792969 31.539062 -36.792969 Z M 24.601562 -36.792969 "/></g></g></g><g fill="#a6a6a6" fill-opacity="1"><g transform="translate(427.408513, 249.886006)"><g><path d="M 3.46875 0 C 2.890625 0 2.628906 -0.316406 2.628906 -0.839844 L 2.628906 -35.953125 C 2.628906 -36.480469 2.890625 -36.792969 3.46875 -36.792969 L 8.9375 -36.792969 C 9.460938 -36.792969 9.777344 -36.480469 9.777344 -35.953125 L 9.777344 -0.839844 C 9.777344 -0.316406 9.460938 0 8.9375 0 Z M 3.46875 0 "/></g></g></g><g fill="#a6a6a6" fill-opacity="1"><g transform="translate(439.813448, 249.886006)"><g><path d="M 9.777344 -6.9375 L 20.183594 -6.9375 C 20.761719 -6.9375 21.023438 -6.621094 21.023438 -6.097656 L 21.023438 -0.839844 C 21.023438 -0.261719 20.761719 0 20.183594 0 L 3.46875 0 C 2.945312 0 2.628906 -0.261719 2.628906 -0.839844 L 2.628906 -35.953125 C 2.628906 -36.480469 2.945312 -36.792969 3.46875 -36.792969 L 8.9375 -36.792969 C 9.515625 -36.792969 9.777344 -36.480469 9.777344 -35.953125 Z M 9.777344 -6.9375 "/></g></g></g><g fill="#a6a6a6" fill-opacity="1"><g transform="translate(463.466879, 249.886006)"><g><path d="M 21.761719 -36.792969 C 22.339844 -36.792969 22.601562 -36.480469 22.601562 -35.953125 L 22.601562 -30.695312 C 22.601562 -30.171875 22.339844 -29.855469 21.761719 -29.855469 L 15.664062 -29.855469 L 15.664062 -0.839844 C 15.664062 -0.261719 15.402344 0 14.824219 0 L 9.355469 0 C 8.832031 0 8.515625 -0.261719 8.515625 -0.839844 L 8.515625 -29.855469 L 2.417969 -29.855469 C 1.890625 -29.855469 1.578125 -30.171875 1.578125 -30.695312 L 1.578125 -35.953125 C 1.578125 -36.480469 1.890625 -36.792969 2.417969 -36.792969 Z M 21.761719 -36.792969 "/></g></g></g><g fill="#a6a6a6" fill-opacity="1"><g transform="translate(487.645975, 249.886006)"><g><path d="M 2.628906 -7.570312 C 2.628906 -2.628906 5.257812 0 10.199219 0 L 16.085938 0 C 21.023438 0 23.652344 -2.628906 23.652344 -7.570312 L 23.652344 -29.226562 C 23.652344 -34.167969 21.023438 -36.792969 16.085938 -36.792969 L 10.199219 -36.792969 C 5.257812 -36.792969 2.628906 -34.167969 2.628906 -29.226562 Z M 11.5625 -6.78125 C 10.199219 -6.78125 9.460938 -7.464844 9.460938 -8.882812 L 9.460938 -27.910156 C 9.460938 -29.277344 10.199219 -30.011719 11.5625 -30.011719 L 14.929688 -30.011719 C 16.292969 -30.011719 17.03125 -29.277344 17.03125 -27.910156 L 17.03125 -8.882812 C 17.03125 -7.464844 16.292969 -6.78125 14.929688 -6.78125 Z M 11.5625 -6.78125 "/></g></g></g><g fill="#a6a6a6" fill-opacity="1"><g transform="translate(513.927569, 249.886006)"><g><path d="M 19.289062 -36.792969 C 18.710938 -36.792969 18.449219 -36.480469 18.449219 -35.953125 L 18.449219 -16.03125 L 8.566406 -36.109375 C 8.359375 -36.585938 8.09375 -36.792969 7.621094 -36.792969 L 3.46875 -36.792969 C 2.945312 -36.792969 2.628906 -36.480469 2.628906 -35.953125 L 2.628906 -0.839844 C 2.628906 -0.316406 2.945312 0 3.46875 0 L 8.410156 0 C 8.988281 0 9.25 -0.316406 9.25 -0.839844 L 9.25 -20.761719 L 19.132812 -0.683594 C 19.34375 -0.210938 19.605469 0 20.078125 0 L 24.230469 0 C 24.757812 0 25.074219 -0.316406 25.074219 -0.839844 L 25.074219 -35.953125 C 25.074219 -36.480469 24.757812 -36.792969 24.230469 -36.792969 Z M 19.289062 -36.792969 "/></g></g></g><g fill="#a6a6a6" fill-opacity="1"><g transform="translate(541.628395, 249.886006)"><g/></g><g transform="translate(554.769213, 249.886006)"><g><path d="M 10.199219 -42.050781 C 5.308594 -42.050781 2.628906 -39.421875 2.628906 -34.480469 L 2.628906 -22.078125 C 2.628906 -21.078125 3.101562 -20.445312 4.046875 -20.132812 L 16.503906 -16.03125 L 16.503906 -9.039062 C 16.503906 -7.621094 15.769531 -6.9375 14.402344 -6.9375 L 11.878906 -6.9375 C 10.566406 -6.9375 9.777344 -7.621094 9.777344 -9.039062 L 9.777344 -13.089844 C 9.777344 -13.667969 9.515625 -13.929688 8.9375 -13.929688 L 3.46875 -13.929688 C 2.945312 -13.929688 2.628906 -13.667969 2.628906 -13.089844 L 2.628906 -7.570312 C 2.628906 -2.628906 5.308594 0 10.199219 0 L 16.085938 0 C 21.023438 0 23.652344 -2.628906 23.652344 -7.570312 L 23.652344 -19.710938 C 23.652344 -20.710938 23.179688 -21.289062 22.285156 -21.65625 L 9.777344 -25.757812 L 9.777344 -33.007812 C 9.777344 -34.375 10.566406 -35.113281 11.878906 -35.113281 L 14.402344 -35.113281 C 15.820312 -35.113281 16.503906 -34.375 16.503906 -33.007812 L 16.503906 -28.910156 C 16.503906 -28.382812 16.820312 -28.070312 17.347656 -28.070312 L 22.8125 -28.070312 C 23.390625 -28.070312 23.652344 -28.382812 23.652344 -28.910156 L 23.652344 -34.480469 C 23.652344 -39.421875 21.023438 -42.050781 16.085938 -42.050781 Z M 10.199219 -42.050781 "/></g></g></g><g fill="#a6a6a6" fill-opacity="1"><g transform="translate(581.050807, 249.886006)"><g><path d="M 2.628906 -7.570312 C 2.628906 -2.628906 5.257812 0 10.199219 0 L 16.085938 0 C 21.023438 0 23.652344 -2.628906 23.652344 -7.570312 L 23.652344 -29.226562 C 23.652344 -34.167969 21.023438 -36.792969 16.085938 -36.792969 L 10.199219 -36.792969 C 5.257812 -36.792969 2.628906 -34.167969 2.628906 -29.226562 Z M 11.5625 -6.78125 C 10.199219 -6.78125 9.460938 -7.464844 9.460938 -8.882812 L 9.460938 -27.910156 C 9.460938 -29.277344 10.199219 -30.011719 11.5625 -30.011719 L 14.929688 -30.011719 C 16.292969 -30.011719 17.03125 -29.277344 17.03125 -27.910156 L 17.03125 -8.882812 C 17.03125 -7.464844 16.292969 -6.78125 14.929688 -6.78125 Z M 11.5625 -6.78125 "/></g></g></g><g fill="#a6a6a6" fill-opacity="1"><g transform="translate(607.332401, 249.886006)"><g><path d="M 17.765625 -36.792969 C 17.1875 -36.792969 16.714844 -36.320312 16.714844 -35.742188 L 16.714844 -9.039062 C 16.714844 -7.621094 15.980469 -6.9375 14.613281 -6.9375 L 11.878906 -6.9375 C 10.511719 -6.9375 9.777344 -7.621094 9.777344 -9.039062 L 9.777344 -35.742188 C 9.777344 -36.320312 9.304688 -36.792969 8.726562 -36.792969 L 3.679688 -36.792969 C 3.101562 -36.792969 2.628906 -36.320312 2.628906 -35.742188 L 2.628906 -7.570312 C 2.628906 -2.628906 5.257812 0 10.199219 0 L 16.085938 0 C 21.023438 0 23.652344 -2.628906 23.652344 -7.570312 L 23.652344 -35.742188 C 23.652344 -36.320312 23.179688 -36.792969 22.601562 -36.792969 Z M 17.765625 -36.792969 "/></g></g></g><g fill="#a6a6a6" fill-opacity="1"><g transform="translate(633.613996, 249.886006)"><g><path d="M 21.761719 -36.792969 C 22.339844 -36.792969 22.601562 -36.480469 22.601562 -35.953125 L 22.601562 -30.695312 C 22.601562 -30.171875 22.339844 -29.855469 21.761719 -29.855469 L 15.664062 -29.855469 L 15.664062 -0.839844 C 15.664062 -0.261719 15.402344 0 14.824219 0 L 9.355469 0 C 8.832031 0 8.515625 -0.261719 8.515625 -0.839844 L 8.515625 -29.855469 L 2.417969 -29.855469 C 1.890625 -29.855469 1.578125 -30.171875 1.578125 -30.695312 L 1.578125 -35.953125 C 1.578125 -36.480469 1.890625 -36.792969 2.417969 -36.792969 Z M 21.761719 -36.792969 "/></g></g></g><g fill="#a6a6a6" fill-opacity="1"><g transform="translate(657.793092, 249.886006)"><g><path d="M 16.503906 -21.761719 L 9.777344 -21.761719 L 9.777344 -35.953125 C 9.777344 -36.480469 9.460938 -36.792969 8.9375 -36.792969 L 3.523438 -36.792969 C 2.890625 -36.792969 2.628906 -36.480469 2.628906 -35.953125 L 2.628906 -0.839844 C 2.628906 -0.316406 2.890625 0 3.523438 0 L 8.9375 0 C 9.460938 0 9.777344 -0.316406 9.777344 -0.839844 L 9.777344 -14.824219 L 16.503906 -14.824219 L 16.503906 -0.839844 C 16.503906 -0.316406 16.820312 0 17.347656 0 L 22.761719 0 C 23.390625 0 23.652344 -0.316406 23.652344 -0.839844 L 23.652344 -35.953125 C 23.652344 -36.480469 23.390625 -36.792969 22.761719 -36.792969 L 17.347656 -36.792969 C 16.820312 -36.792969 16.503906 -36.480469 16.503906 -35.953125 Z M 16.503906 -21.761719 "/></g></g></g><g fill="#a6a6a6" fill-opacity="1"><g transform="translate(684.074686, 249.886006)"><g><path d="M 23.601562 -35.953125 C 23.601562 -36.480469 23.390625 -36.792969 22.761719 -36.792969 L 3.417969 -36.792969 C 2.945312 -36.792969 2.628906 -36.480469 2.628906 -35.953125 L 2.628906 -0.839844 C 2.628906 -0.316406 2.945312 0 3.417969 0 L 22.761719 0 C 23.390625 0 23.601562 -0.316406 23.601562 -0.839844 L 23.601562 -6.097656 C 23.601562 -6.675781 23.390625 -6.9375 22.761719 -6.9375 L 9.777344 -6.9375 L 9.777344 -14.71875 L 19.660156 -14.71875 C 20.183594 -14.71875 20.5 -15.03125 20.5 -15.609375 L 20.5 -20.816406 C 20.5 -21.394531 20.183594 -21.707031 19.660156 -21.707031 L 9.777344 -21.707031 L 9.777344 -29.804688 L 22.761719 -29.804688 C 23.390625 -29.804688 23.601562 -30.171875 23.601562 -30.695312 Z M 23.601562 -35.953125 "/></g></g></g><g fill="#a6a6a6" fill-opacity="1"><g transform="translate(710.303747, 249.886006)"><g><path d="M 27.4375 0 C 28.070312 0 28.332031 -0.316406 28.175781 -0.894531 L 19.449219 -36.058594 C 19.34375 -36.585938 19.027344 -36.792969 18.554688 -36.792969 L 11.25 -36.792969 C 10.777344 -36.792969 10.460938 -36.585938 10.355469 -36.058594 L 1.628906 -0.894531 C 1.472656 -0.316406 1.734375 0 2.3125 0 L 7.464844 0 C 7.9375 0 8.199219 -0.261719 8.304688 -0.734375 L 9.933594 -7.359375 L 19.816406 -7.359375 L 21.5 -0.734375 C 21.601562 -0.261719 21.867188 0 22.339844 0 Z M 18.1875 -13.457031 L 11.5625 -13.457031 L 14.875 -27.753906 Z M 18.1875 -13.457031 "/></g></g></g><g fill="#a6a6a6" fill-opacity="1"><g transform="translate(740.107111, 249.886006)"><g><path d="M 10.199219 -36.792969 C 5.308594 -36.792969 2.628906 -34.167969 2.628906 -29.226562 L 2.628906 -20.132812 C 2.628906 -19.132812 3.101562 -18.503906 4.046875 -18.1875 L 16.664062 -14.085938 L 16.664062 -8.777344 C 16.664062 -7.359375 15.925781 -6.675781 14.558594 -6.675781 L 11.722656 -6.675781 C 10.40625 -6.675781 9.617188 -7.359375 9.617188 -8.777344 L 9.617188 -10.984375 C 9.617188 -11.5625 9.355469 -11.828125 8.777344 -11.828125 L 3.46875 -11.828125 C 2.945312 -11.828125 2.628906 -11.5625 2.628906 -10.984375 L 2.628906 -7.570312 C 2.628906 -2.628906 5.308594 0 10.199219 0 L 16.085938 0 C 21.023438 0 23.652344 -2.628906 23.652344 -7.570312 L 23.652344 -17.449219 C 23.652344 -18.449219 23.179688 -19.082031 22.285156 -19.394531 L 9.566406 -23.496094 L 9.566406 -27.964844 C 9.566406 -29.332031 10.355469 -30.066406 11.667969 -30.066406 L 14.558594 -30.066406 C 15.980469 -30.066406 16.664062 -29.332031 16.664062 -27.964844 L 16.664062 -25.757812 C 16.664062 -25.230469 16.976562 -24.914062 17.503906 -24.914062 L 22.8125 -24.914062 C 23.390625 -24.914062 23.652344 -25.230469 23.652344 -25.757812 L 23.652344 -29.226562 C 23.652344 -34.167969 21.023438 -36.792969 16.085938 -36.792969 Z M 10.199219 -36.792969 "/></g></g></g><g fill="#a6a6a6" fill-opacity="1"><g transform="translate(766.388705, 249.886006)"><g><path d="M 21.761719 -36.792969 C 22.339844 -36.792969 22.601562 -36.480469 22.601562 -35.953125 L 22.601562 -30.695312 C 22.601562 -30.171875 22.339844 -29.855469 21.761719 -29.855469 L 15.664062 -29.855469 L 15.664062 -0.839844 C 15.664062 -0.261719 15.402344 0 14.824219 0 L 9.355469 0 C 8.832031 0 8.515625 -0.261719 8.515625 -0.839844 L 8.515625 -29.855469 L 2.417969 -29.855469 C 1.890625 -29.855469 1.578125 -30.171875 1.578125 -30.695312 L 1.578125 -35.953125 C 1.578125 -36.480469 1.890625 -36.792969 2.417969 -36.792969 Z M 21.761719 -36.792969 "/></g></g></g><g fill="#a6a6a6" fill-opacity="1"><g transform="translate(790.567801, 249.886006)"><g><path d="M 23.601562 -35.953125 C 23.601562 -36.480469 23.390625 -36.792969 22.761719 -36.792969 L 3.417969 -36.792969 C 2.945312 -36.792969 2.628906 -36.480469 2.628906 -35.953125 L 2.628906 -0.839844 C 2.628906 -0.316406 2.945312 0 3.417969 0 L 22.761719 0 C 23.390625 0 23.601562 -0.316406 23.601562 -0.839844 L 23.601562 -6.097656 C 23.601562 -6.675781 23.390625 -6.9375 22.761719 -6.9375 L 9.777344 -6.9375 L 9.777344 -14.71875 L 19.660156 -14.71875 C 20.183594 -14.71875 20.5 -15.03125 20.5 -15.609375 L 20.5 -20.816406 C 20.5 -21.394531 20.183594 -21.707031 19.660156 -21.707031 L 9.777344 -21.707031 L 9.777344 -29.804688 L 22.761719 -29.804688 C 23.390625 -29.804688 23.601562 -30.171875 23.601562 -30.695312 Z M 23.601562 -35.953125 "/></g></g></g><g fill="#a6a6a6" fill-opacity="1"><g transform="translate(816.796862, 249.886006)"><g><path d="M 23.652344 -29.226562 C 23.652344 -34.167969 21.023438 -36.792969 16.085938 -36.792969 L 3.46875 -36.792969 C 2.945312 -36.792969 2.628906 -36.480469 2.628906 -35.953125 L 2.628906 -0.839844 C 2.628906 -0.316406 2.945312 0 3.46875 0 L 8.621094 0 C 9.144531 0 9.460938 -0.316406 9.460938 -0.839844 L 9.460938 -11.089844 L 14.140625 -11.089844 L 16.664062 -0.734375 C 16.769531 -0.261719 17.03125 0 17.554688 0 L 22.707031 0 C 23.285156 0 23.601562 -0.316406 23.441406 -0.945312 L 20.710938 -12.246094 C 22.65625 -13.457031 23.652344 -15.609375 23.652344 -18.660156 Z M 9.460938 -17.871094 L 9.460938 -30.011719 L 14.71875 -30.011719 C 16.085938 -30.011719 16.820312 -29.277344 16.820312 -27.910156 L 16.820312 -19.972656 C 16.820312 -18.605469 16.085938 -17.871094 14.71875 -17.871094 Z M 9.460938 -17.871094 "/></g></g></g><g fill="#a6a6a6" fill-opacity="1"><g transform="translate(843.078456, 249.886006)"><g><path d="M 19.289062 -36.792969 C 18.710938 -36.792969 18.449219 -36.480469 18.449219 -35.953125 L 18.449219 -16.03125 L 8.566406 -36.109375 C 8.359375 -36.585938 8.09375 -36.792969 7.621094 -36.792969 L 3.46875 -36.792969 C 2.945312 -36.792969 2.628906 -36.480469 2.628906 -35.953125 L 2.628906 -0.839844 C 2.628906 -0.316406 2.945312 0 3.46875 0 L 8.410156 0 C 8.988281 0 9.25 -0.316406 9.25 -0.839844 L 9.25 -20.761719 L 19.132812 -0.683594 C 19.34375 -0.210938 19.605469 0 20.078125 0 L 24.230469 0 C 24.757812 0 25.074219 -0.316406 25.074219 -0.839844 L 25.074219 -35.953125 C 25.074219 -36.480469 24.757812 -36.792969 24.230469 -36.792969 Z M 19.289062 -36.792969 "/></g></g></g><g fill="#cfb991" fill-opacity="1"><g transform="translate(1042.413644, 249.886006)"><g><path d="M 24.601562 -42.050781 C 23.96875 -42.050781 23.601562 -41.734375 23.441406 -41.105469 L 17.609375 -14.929688 L 11.773438 -41.105469 C 11.617188 -41.734375 11.25 -42.050781 10.617188 -42.050781 L 3.679688 -42.050781 C 2.996094 -42.050781 2.628906 -41.683594 2.628906 -41 L 2.628906 -1.050781 C 2.628906 -0.367188 2.996094 0 3.679688 0 L 8.515625 0 C 9.199219 0 9.566406 -0.367188 9.566406 -1.050781 L 9.566406 -24.703125 L 9.933594 -24.703125 L 15.136719 -0.945312 C 15.296875 -0.316406 15.664062 0 16.292969 0 L 18.871094 0 C 19.5 0 19.867188 -0.316406 20.027344 -0.945312 L 25.230469 -24.703125 L 25.597656 -24.703125 L 25.597656 -1.050781 C 25.597656 -0.367188 25.964844 0 26.648438 0 L 31.539062 0 C 32.222656 0 32.589844 -0.367188 32.589844 -1.050781 L 32.589844 -41 C 32.589844 -41.683594 32.222656 -42.050781 31.539062 -42.050781 Z M 24.601562 -42.050781 "/></g></g></g><g fill="#cfb991" fill-opacity="1"><g transform="translate(1077.631018, 249.886006)"><g><path d="M 23.652344 -29.226562 C 23.652344 -34.167969 21.023438 -36.792969 16.085938 -36.792969 L 3.46875 -36.792969 C 2.945312 -36.792969 2.628906 -36.480469 2.628906 -35.953125 L 2.628906 -0.839844 C 2.628906 -0.316406 2.945312 0 3.46875 0 L 8.621094 0 C 9.144531 0 9.460938 -0.316406 9.460938 -0.839844 L 9.460938 -11.089844 L 14.140625 -11.089844 L 16.664062 -0.734375 C 16.769531 -0.261719 17.03125 0 17.554688 0 L 22.707031 0 C 23.285156 0 23.601562 -0.316406 23.441406 -0.945312 L 20.710938 -12.246094 C 22.65625 -13.457031 23.652344 -15.609375 23.652344 -18.660156 Z M 9.460938 -17.871094 L 9.460938 -30.011719 L 14.71875 -30.011719 C 16.085938 -30.011719 16.820312 -29.277344 16.820312 -27.910156 L 16.820312 -19.972656 C 16.820312 -18.605469 16.085938 -17.871094 14.71875 -17.871094 Z M 9.460938 -17.871094 "/></g></g></g><g fill="#cfb991" fill-opacity="1"><g transform="translate(1103.912613, 249.886006)"><g><path d="M 2.628906 -1.050781 C 2.628906 -0.367188 2.996094 0 3.679688 0 L 8.460938 0 C 9.144531 0 9.515625 -0.367188 9.515625 -1.050781 L 9.515625 -5.886719 C 9.515625 -6.570312 9.144531 -6.9375 8.460938 -6.9375 L 3.679688 -6.9375 C 2.996094 -6.9375 2.628906 -6.570312 2.628906 -5.886719 Z M 2.628906 -1.050781 "/></g></g></g><g fill="#cfb991" fill-opacity="1"><g transform="translate(1116.054715, 249.886006)"><g/></g><g transform="translate(1129.195533, 249.886006)"><g><path d="M 23.652344 -41.210938 C 23.652344 -41.734375 23.339844 -42.050781 22.8125 -42.050781 L 3.46875 -42.050781 C 2.890625 -42.050781 2.628906 -41.734375 2.628906 -41.210938 L 2.628906 -0.839844 C 2.628906 -0.316406 2.890625 0 3.46875 0 L 8.9375 0 C 9.460938 0 9.777344 -0.316406 9.777344 -0.839844 L 9.777344 -17.609375 L 19.660156 -17.609375 C 20.183594 -17.609375 20.5 -17.871094 20.5 -18.449219 L 20.5 -23.707031 C 20.5 -24.230469 20.183594 -24.546875 19.660156 -24.546875 L 9.777344 -24.546875 L 9.777344 -35.113281 L 22.8125 -35.113281 C 23.339844 -35.113281 23.652344 -35.425781 23.652344 -35.953125 Z M 23.652344 -41.210938 "/></g></g></g><g fill="#cfb991" fill-opacity="1"><g transform="translate(1155.477127, 249.886006)"><g><path d="M 3.46875 0 C 2.890625 0 2.628906 -0.316406 2.628906 -0.839844 L 2.628906 -35.953125 C 2.628906 -36.480469 2.890625 -36.792969 3.46875 -36.792969 L 8.9375 -36.792969 C 9.460938 -36.792969 9.777344 -36.480469 9.777344 -35.953125 L 9.777344 -0.839844 C 9.777344 -0.316406 9.460938 0 8.9375 0 Z M 3.46875 0 "/></g></g></g><g fill="#cfb991" fill-opacity="1"><g transform="translate(1167.882062, 249.886006)"><g><path d="M 10.199219 -36.792969 C 5.308594 -36.792969 2.628906 -34.167969 2.628906 -29.226562 L 2.628906 -20.132812 C 2.628906 -19.132812 3.101562 -18.503906 4.046875 -18.1875 L 16.664062 -14.085938 L 16.664062 -8.777344 C 16.664062 -7.359375 15.925781 -6.675781 14.558594 -6.675781 L 11.722656 -6.675781 C 10.40625 -6.675781 9.617188 -7.359375 9.617188 -8.777344 L 9.617188 -10.984375 C 9.617188 -11.5625 9.355469 -11.828125 8.777344 -11.828125 L 3.46875 -11.828125 C 2.945312 -11.828125 2.628906 -11.5625 2.628906 -10.984375 L 2.628906 -7.570312 C 2.628906 -2.628906 5.308594 0 10.199219 0 L 16.085938 0 C 21.023438 0 23.652344 -2.628906 23.652344 -7.570312 L 23.652344 -17.449219 C 23.652344 -18.449219 23.179688 -19.082031 22.285156 -19.394531 L 9.566406 -23.496094 L 9.566406 -27.964844 C 9.566406 -29.332031 10.355469 -30.066406 11.667969 -30.066406 L 14.558594 -30.066406 C 15.980469 -30.066406 16.664062 -29.332031 16.664062 -27.964844 L 16.664062 -25.757812 C 16.664062 -25.230469 16.976562 -24.914062 17.503906 -24.914062 L 22.8125 -24.914062 C 23.390625 -24.914062 23.652344 -25.230469 23.652344 -25.757812 L 23.652344 -29.226562 C 23.652344 -34.167969 21.023438 -36.792969 16.085938 -36.792969 Z M 10.199219 -36.792969 "/></g></g></g><g fill="#cfb991" fill-opacity="1"><g transform="translate(1194.163657, 249.886006)"><g><path d="M 16.503906 -21.761719 L 9.777344 -21.761719 L 9.777344 -35.953125 C 9.777344 -36.480469 9.460938 -36.792969 8.9375 -36.792969 L 3.523438 -36.792969 C 2.890625 -36.792969 2.628906 -36.480469 2.628906 -35.953125 L 2.628906 -0.839844 C 2.628906 -0.316406 2.890625 0 3.523438 0 L 8.9375 0 C 9.460938 0 9.777344 -0.316406 9.777344 -0.839844 L 9.777344 -14.824219 L 16.503906 -14.824219 L 16.503906 -0.839844 C 16.503906 -0.316406 16.820312 0 17.347656 0 L 22.761719 0 C 23.390625 0 23.652344 -0.316406 23.652344 -0.839844 L 23.652344 -35.953125 C 23.652344 -36.480469 23.390625 -36.792969 22.761719 -36.792969 L 17.347656 -36.792969 C 16.820312 -36.792969 16.503906 -36.480469 16.503906 -35.953125 Z M 16.503906 -21.761719 "/></g></g></g><g fill="#cfb991" fill-opacity="1"><g transform="translate(1220.445251, 249.886006)"><g><path d="M 23.601562 -35.953125 C 23.601562 -36.480469 23.390625 -36.792969 22.761719 -36.792969 L 3.417969 -36.792969 C 2.945312 -36.792969 2.628906 -36.480469 2.628906 -35.953125 L 2.628906 -0.839844 C 2.628906 -0.316406 2.945312 0 3.417969 0 L 22.761719 0 C 23.390625 0 23.601562 -0.316406 23.601562 -0.839844 L 23.601562 -6.097656 C 23.601562 -6.675781 23.390625 -6.9375 22.761719 -6.9375 L 9.777344 -6.9375 L 9.777344 -14.71875 L 19.660156 -14.71875 C 20.183594 -14.71875 20.5 -15.03125 20.5 -15.609375 L 20.5 -20.816406 C 20.5 -21.394531 20.183594 -21.707031 19.660156 -21.707031 L 9.777344 -21.707031 L 9.777344 -29.804688 L 22.761719 -29.804688 C 23.390625 -29.804688 23.601562 -30.171875 23.601562 -30.695312 Z M 23.601562 -35.953125 "/></g></g></g><g fill="#cfb991" fill-opacity="1"><g transform="translate(1246.674312, 249.886006)"><g><path d="M 9.777344 -6.9375 L 20.183594 -6.9375 C 20.761719 -6.9375 21.023438 -6.621094 21.023438 -6.097656 L 21.023438 -0.839844 C 21.023438 -0.261719 20.761719 0 20.183594 0 L 3.46875 0 C 2.945312 0 2.628906 -0.261719 2.628906 -0.839844 L 2.628906 -35.953125 C 2.628906 -36.480469 2.945312 -36.792969 3.46875 -36.792969 L 8.9375 -36.792969 C 9.515625 -36.792969 9.777344 -36.480469 9.777344 -35.953125 Z M 9.777344 -6.9375 "/></g></g></g></svg>