<svg xmlns="http://www.w3.org/2000/svg" xmlns:xlink="http://www.w3.org/1999/xlink" width="1788" zoomAndPan="magnify" viewBox="0 0 1341 333.749992" height="445" preserveAspectRatio="xMidYMid meet" version="1.0"><defs><g/><clipPath id="0838ee1091"><path d="M 133 77.597656 L 248 77.597656 L 248 218 L 133 218 Z M 133 77.597656 " clip-rule="nonzero"/></clipPath><clipPath id="195870f4dc"><path d="M 75.925781 97 L 305.253906 97 L 305.253906 256.710938 L 75.925781 256.710938 Z M 75.925781 97 " clip-rule="nonzero"/></clipPath></defs><g fill="#ffffff" fill-opacity="1"><g transform="translate(326.310558, 174.042619)"><g><path d="M 61.53125 -47.53125 L 50.84375 -47.53125 L 49.359375 -57.09375 C 47.953125 -58.507812 46.171875 -59.625 44.015625 -60.4375 C 41.867188 -61.257812 39.332031 -61.671875 36.40625 -61.671875 C 30.164062 -61.671875 25.363281 -59.40625 22 -54.875 C 18.632812 -50.34375 16.953125 -44.429688 16.953125 -37.140625 L 16.953125 -34.625 C 16.953125 -27.34375 18.625 -21.414062 21.96875 -16.84375 C 25.320312 -12.28125 30.050781 -10 36.15625 -10 C 38.976562 -10 41.5625 -10.410156 43.90625 -11.234375 C 46.257812 -12.054688 48.078125 -13.171875 49.359375 -14.578125 L 50.84375 -24.140625 L 61.53125 -24.140625 L 61.53125 -9.953125 C 58.632812 -6.597656 54.945312 -3.925781 50.46875 -1.9375 C 45.988281 0.0390625 40.972656 1.03125 35.421875 1.03125 C 25.796875 1.03125 17.910156 -2.300781 11.765625 -8.96875 C 5.628906 -15.632812 2.5625 -24.1875 2.5625 -34.625 L 2.5625 -37.046875 C 2.5625 -47.453125 5.613281 -56.003906 11.71875 -62.703125 C 17.832031 -69.410156 25.734375 -72.765625 35.421875 -72.765625 C 40.972656 -72.765625 45.976562 -71.753906 50.4375 -69.734375 C 54.90625 -67.710938 58.601562 -65.039062 61.53125 -61.71875 Z M 61.53125 -47.53125 "/></g></g></g><g fill="#ffffff" fill-opacity="1"><g transform="translate(391.684208, 174.042619)"><g><path d="M 58.28125 -44.625 L 53.296875 -43.890625 L 33.703125 7.984375 C 32.148438 11.828125 30.082031 15.046875 27.5 17.640625 C 24.925781 20.234375 21.046875 21.53125 15.859375 21.53125 C 14.648438 21.53125 13.507812 21.429688 12.4375 21.234375 C 11.375 21.035156 10.117188 20.753906 8.671875 20.390625 L 10.34375 9.90625 C 10.800781 9.96875 11.273438 10.03125 11.765625 10.09375 C 12.265625 10.164062 12.695312 10.203125 13.0625 10.203125 C 15.457031 10.203125 17.296875 9.617188 18.578125 8.453125 C 19.859375 7.285156 20.84375 5.832031 21.53125 4.09375 L 23.15625 0.046875 L 6.25 -43.84375 L 1.28125 -44.625 L 1.28125 -53.296875 L 27.390625 -53.296875 L 27.390625 -44.625 L 21.421875 -43.640625 L 28.71875 -22.359375 L 29.453125 -18.515625 L 29.75 -18.46875 L 38.171875 -43.640625 L 32.171875 -44.625 L 32.171875 -53.296875 L 58.28125 -53.296875 Z M 58.28125 -44.625 "/></g></g></g><g fill="#ffffff" fill-opacity="1"><g transform="translate(451.392469, 174.042619)"><g><path d="M 54.625 -25.171875 C 54.625 -17.222656 52.847656 -10.867188 49.296875 -6.109375 C 45.753906 -1.347656 40.632812 1.03125 33.9375 1.03125 C 30.820312 1.03125 28.113281 0.382812 25.8125 -0.90625 C 23.507812 -2.207031 21.570312 -4.085938 20 -6.546875 L 18.96875 0 L 6.546875 0 L 6.546875 -66.703125 L -1.078125 -68.1875 L -1.078125 -76.84375 L 20.890625 -76.84375 L 20.890625 -47.640625 C 22.429688 -49.773438 24.273438 -51.414062 26.421875 -52.5625 C 28.578125 -53.707031 31.050781 -54.28125 33.84375 -54.28125 C 40.601562 -54.28125 45.753906 -51.726562 49.296875 -46.625 C 52.847656 -41.519531 54.625 -34.710938 54.625 -26.203125 Z M 40.296875 -26.203125 C 40.296875 -31.390625 39.53125 -35.503906 38 -38.546875 C 36.476562 -41.585938 33.878906 -43.109375 30.203125 -43.109375 C 27.960938 -43.109375 26.070312 -42.640625 24.53125 -41.703125 C 22.988281 -40.765625 21.773438 -39.425781 20.890625 -37.6875 L 20.890625 -15.171875 C 21.773438 -13.523438 22.992188 -12.273438 24.546875 -11.421875 C 26.109375 -10.566406 28.023438 -10.140625 30.296875 -10.140625 C 34.003906 -10.140625 36.597656 -11.445312 38.078125 -14.0625 C 39.554688 -16.675781 40.296875 -20.378906 40.296875 -25.171875 Z M 40.296875 -26.203125 "/></g></g></g><g fill="#ffffff" fill-opacity="1"><g transform="translate(509.57354, 174.042619)"><g><path d="M 28.625 1.03125 C 20.9375 1.03125 14.789062 -1.429688 10.1875 -6.359375 C 5.59375 -11.285156 3.296875 -17.539062 3.296875 -25.125 L 3.296875 -27.09375 C 3.296875 -35.007812 5.472656 -41.53125 9.828125 -46.65625 C 14.179688 -51.78125 20.019531 -54.320312 27.34375 -54.28125 C 34.53125 -54.28125 40.109375 -52.113281 44.078125 -47.78125 C 48.054688 -43.445312 50.046875 -37.585938 50.046875 -30.203125 L 50.046875 -22.359375 L 18.234375 -22.359375 L 18.125 -22.0625 C 18.382812 -18.550781 19.554688 -15.660156 21.640625 -13.390625 C 23.734375 -11.128906 26.570312 -10 30.15625 -10 C 33.332031 -10 35.972656 -10.316406 38.078125 -10.953125 C 40.179688 -11.597656 42.484375 -12.609375 44.984375 -13.984375 L 48.875 -5.125 C 46.664062 -3.382812 43.8125 -1.921875 40.3125 -0.734375 C 36.820312 0.441406 32.925781 1.03125 28.625 1.03125 Z M 27.34375 -43.203125 C 24.675781 -43.203125 22.570312 -42.179688 21.03125 -40.140625 C 19.488281 -38.109375 18.535156 -35.4375 18.171875 -32.125 L 18.328125 -31.875 L 35.96875 -31.875 L 35.96875 -33.15625 C 35.96875 -36.207031 35.25 -38.644531 33.8125 -40.46875 C 32.382812 -42.289062 30.226562 -43.203125 27.34375 -43.203125 Z M 27.34375 -43.203125 "/></g></g></g><g fill="#ffffff" fill-opacity="1"><g transform="translate(563.320828, 174.042619)"><g><path d="M 4.1875 -8.625 L 11.078125 -10.09375 L 11.078125 -43.15625 L 3.453125 -44.625 L 3.453125 -53.296875 L 24.484375 -53.296875 L 25.125 -45.515625 C 26.375 -48.273438 27.984375 -50.425781 29.953125 -51.96875 C 31.921875 -53.507812 34.203125 -54.28125 36.796875 -54.28125 C 37.554688 -54.28125 38.351562 -54.222656 39.1875 -54.109375 C 40.019531 -53.992188 40.71875 -53.859375 41.28125 -53.703125 L 39.75 -40.59375 L 33.84375 -40.734375 C 31.738281 -40.734375 29.992188 -40.320312 28.609375 -39.5 C 27.234375 -38.6875 26.1875 -37.523438 25.46875 -36.015625 L 25.46875 -10.09375 L 32.359375 -8.625 L 32.359375 0 L 4.1875 0 Z M 4.1875 -8.625 "/></g></g></g><g fill="#ffffff" fill-opacity="1"><g transform="translate(605.786605, 174.042619)"><g><path d="M 46.609375 -34.984375 L 36.953125 -34.984375 L 35.421875 -41.625 C 34.429688 -42.414062 33.1875 -43.070312 31.6875 -43.59375 C 30.195312 -44.125 28.550781 -44.390625 26.75 -44.390625 C 24.21875 -44.390625 22.210938 -43.820312 20.734375 -42.6875 C 19.253906 -41.550781 18.515625 -40.128906 18.515625 -38.421875 C 18.515625 -36.816406 19.222656 -35.476562 20.640625 -34.40625 C 22.054688 -33.34375 24.878906 -32.398438 29.109375 -31.578125 C 35.710938 -30.265625 40.609375 -28.332031 43.796875 -25.78125 C 46.984375 -23.238281 48.578125 -19.734375 48.578125 -15.265625 C 48.578125 -10.472656 46.515625 -6.554688 42.390625 -3.515625 C 38.265625 -0.484375 32.835938 1.03125 26.109375 1.03125 C 22.003906 1.03125 18.234375 0.429688 14.796875 -0.765625 C 11.367188 -1.960938 8.328125 -3.675781 5.671875 -5.90625 L 5.515625 -17.875 L 15.5625 -17.875 L 17.53125 -10.9375 C 18.382812 -10.21875 19.550781 -9.679688 21.03125 -9.328125 C 22.507812 -8.984375 24.054688 -8.8125 25.671875 -8.8125 C 28.585938 -8.8125 30.804688 -9.335938 32.328125 -10.390625 C 33.859375 -11.441406 34.625 -12.875 34.625 -14.6875 C 34.625 -16.257812 33.851562 -17.617188 32.3125 -18.765625 C 30.769531 -19.921875 27.929688 -20.941406 23.796875 -21.828125 C 17.523438 -23.109375 12.785156 -25.003906 9.578125 -27.515625 C 6.378906 -30.023438 4.78125 -33.445312 4.78125 -37.78125 C 4.78125 -42.25 6.617188 -46.097656 10.296875 -49.328125 C 13.972656 -52.566406 19.210938 -54.1875 26.015625 -54.1875 C 30.148438 -54.1875 34.0625 -53.628906 37.75 -52.515625 C 41.445312 -51.398438 44.347656 -49.972656 46.453125 -48.234375 Z M 46.609375 -34.984375 "/></g></g></g><g fill="#ffffff" fill-opacity="1"><g transform="translate(657.711116, 174.042619)"><g><path d="M 28.625 1.03125 C 20.9375 1.03125 14.789062 -1.429688 10.1875 -6.359375 C 5.59375 -11.285156 3.296875 -17.539062 3.296875 -25.125 L 3.296875 -27.09375 C 3.296875 -35.007812 5.472656 -41.53125 9.828125 -46.65625 C 14.179688 -51.78125 20.019531 -54.320312 27.34375 -54.28125 C 34.53125 -54.28125 40.109375 -52.113281 44.078125 -47.78125 C 48.054688 -43.445312 50.046875 -37.585938 50.046875 -30.203125 L 50.046875 -22.359375 L 18.234375 -22.359375 L 18.125 -22.0625 C 18.382812 -18.550781 19.554688 -15.660156 21.640625 -13.390625 C 23.734375 -11.128906 26.570312 -10 30.15625 -10 C 33.332031 -10 35.972656 -10.316406 38.078125 -10.953125 C 40.179688 -11.597656 42.484375 -12.609375 44.984375 -13.984375 L 48.875 -5.125 C 46.664062 -3.382812 43.8125 -1.921875 40.3125 -0.734375 C 36.820312 0.441406 32.925781 1.03125 28.625 1.03125 Z M 27.34375 -43.203125 C 24.675781 -43.203125 22.570312 -42.179688 21.03125 -40.140625 C 19.488281 -38.109375 18.535156 -35.4375 18.171875 -32.125 L 18.328125 -31.875 L 35.96875 -31.875 L 35.96875 -33.15625 C 35.96875 -36.207031 35.25 -38.644531 33.8125 -40.46875 C 32.382812 -42.289062 30.226562 -43.203125 27.34375 -43.203125 Z M 27.34375 -43.203125 "/></g></g></g><g fill="#ffffff" fill-opacity="1"><g transform="translate(711.458404, 174.042619)"><g><path d="M 28.125 -10 C 30.6875 -10 32.738281 -10.742188 34.28125 -12.234375 C 35.832031 -13.734375 36.609375 -15.734375 36.609375 -18.234375 L 49.609375 -18.234375 L 49.75 -17.9375 C 49.882812 -12.550781 47.863281 -8.039062 43.6875 -4.40625 C 39.519531 -0.78125 34.332031 1.03125 28.125 1.03125 C 20.175781 1.03125 14.050781 -1.476562 9.75 -6.5 C 5.445312 -11.53125 3.296875 -17.984375 3.296875 -25.859375 L 3.296875 -27.34375 C 3.296875 -35.1875 5.503906 -41.632812 9.921875 -46.6875 C 14.335938 -51.75 20.632812 -54.28125 28.8125 -54.28125 C 33.113281 -54.28125 36.972656 -53.640625 40.390625 -52.359375 C 43.804688 -51.085938 46.648438 -49.285156 48.921875 -46.953125 L 49.109375 -32.703125 L 37.4375 -32.703125 L 35.078125 -41.03125 C 34.347656 -41.65625 33.457031 -42.171875 32.40625 -42.578125 C 31.363281 -42.992188 30.164062 -43.203125 28.8125 -43.203125 C 24.738281 -43.203125 21.863281 -41.722656 20.1875 -38.765625 C 18.519531 -35.816406 17.6875 -32.007812 17.6875 -27.34375 L 17.6875 -25.859375 C 17.6875 -21.097656 18.457031 -17.265625 20 -14.359375 C 21.539062 -11.453125 24.25 -10 28.125 -10 Z M 28.125 -10 "/></g></g></g><g fill="#ffffff" fill-opacity="1"><g transform="translate(764.614521, 174.042619)"><g><path d="M 40.390625 -6.75 C 38.679688 -4.25 36.570312 -2.328125 34.0625 -0.984375 C 31.550781 0.359375 28.6875 1.03125 25.46875 1.03125 C 19.851562 1.03125 15.453125 -0.765625 12.265625 -4.359375 C 9.078125 -7.953125 7.484375 -13.546875 7.484375 -21.140625 L 7.484375 -43.15625 L 1.625 -44.625 L 1.625 -53.296875 L 21.875 -53.296875 L 21.875 -21.03125 C 21.875 -17.15625 22.519531 -14.367188 23.8125 -12.671875 C 25.113281 -10.984375 27.046875 -10.140625 29.609375 -10.140625 C 31.867188 -10.140625 33.828125 -10.507812 35.484375 -11.25 C 37.148438 -11.988281 38.507812 -13.050781 39.5625 -14.4375 L 39.5625 -43.15625 L 33.25 -44.625 L 33.25 -53.296875 L 53.9375 -53.296875 L 53.9375 -10.09375 L 60.390625 -8.625 L 60.390625 0 L 41.328125 0 Z M 40.390625 -6.75 "/></g></g></g><g fill="#ffffff" fill-opacity="1"><g transform="translate(827.574223, 174.042619)"><g><path d="M 4.1875 -8.625 L 11.078125 -10.09375 L 11.078125 -43.15625 L 3.453125 -44.625 L 3.453125 -53.296875 L 24.484375 -53.296875 L 25.125 -45.515625 C 26.375 -48.273438 27.984375 -50.425781 29.953125 -51.96875 C 31.921875 -53.507812 34.203125 -54.28125 36.796875 -54.28125 C 37.554688 -54.28125 38.351562 -54.222656 39.1875 -54.109375 C 40.019531 -53.992188 40.71875 -53.859375 41.28125 -53.703125 L 39.75 -40.59375 L 33.84375 -40.734375 C 31.738281 -40.734375 29.992188 -40.320312 28.609375 -39.5 C 27.234375 -38.6875 26.1875 -37.523438 25.46875 -36.015625 L 25.46875 -10.09375 L 32.359375 -8.625 L 32.359375 0 L 4.1875 0 Z M 4.1875 -8.625 "/></g></g></g><g fill="#ffffff" fill-opacity="1"><g transform="translate(870.039999, 174.042619)"><g><path d="M 2.65625 -8.625 L 9.609375 -10.09375 L 9.609375 -43.15625 L 1.921875 -44.625 L 1.921875 -53.296875 L 23.984375 -53.296875 L 23.984375 -10.09375 L 30.890625 -8.625 L 30.890625 0 L 2.65625 0 Z M 23.984375 -66.0625 L 9.609375 -66.0625 L 9.609375 -76.84375 L 23.984375 -76.84375 Z M 23.984375 -66.0625 "/></g></g></g><g fill="#ffffff" fill-opacity="1"><g transform="translate(902.554399, 174.042619)"><g><path d="M 24.328125 -66.359375 L 24.328125 -53.296875 L 33.703125 -53.296875 L 33.703125 -43.203125 L 24.328125 -43.203125 L 24.328125 -16.0625 C 24.328125 -13.988281 24.753906 -12.507812 25.609375 -11.625 C 26.460938 -10.738281 27.613281 -10.296875 29.0625 -10.296875 C 30.050781 -10.296875 30.914062 -10.335938 31.65625 -10.421875 C 32.394531 -10.503906 33.222656 -10.644531 34.140625 -10.84375 L 35.375 -0.4375 C 33.757812 0.0507812 32.164062 0.414062 30.59375 0.65625 C 29.019531 0.90625 27.3125 1.03125 25.46875 1.03125 C 20.507812 1.03125 16.691406 -0.328125 14.015625 -3.046875 C 11.335938 -5.773438 10 -10.097656 10 -16.015625 L 10 -43.203125 L 2.171875 -43.203125 L 2.171875 -53.296875 L 10 -53.296875 L 10 -66.359375 Z M 24.328125 -66.359375 "/></g></g></g><g fill="#ffffff" fill-opacity="1"><g transform="translate(940.192281, 174.042619)"><g><path d="M 58.28125 -44.625 L 53.296875 -43.890625 L 33.703125 7.984375 C 32.148438 11.828125 30.082031 15.046875 27.5 17.640625 C 24.925781 20.234375 21.046875 21.53125 15.859375 21.53125 C 14.648438 21.53125 13.507812 21.429688 12.4375 21.234375 C 11.375 21.035156 10.117188 20.753906 8.671875 20.390625 L 10.34375 9.90625 C 10.800781 9.96875 11.273438 10.03125 11.765625 10.09375 C 12.265625 10.164062 12.695312 10.203125 13.0625 10.203125 C 15.457031 10.203125 17.296875 9.617188 18.578125 8.453125 C 19.859375 7.285156 20.84375 5.832031 21.53125 4.09375 L 23.15625 0.046875 L 6.25 -43.84375 L 1.28125 -44.625 L 1.28125 -53.296875 L 27.390625 -53.296875 L 27.390625 -44.625 L 21.421875 -43.640625 L 28.71875 -22.359375 L 29.453125 -18.515625 L 29.75 -18.46875 L 38.171875 -43.640625 L 32.171875 -44.625 L 32.171875 -53.296875 L 58.28125 -53.296875 Z M 58.28125 -44.625 "/></g></g></g><g fill="#a6a6a6" fill-opacity="1"><g transform="translate(326.310558, 247.916388)"><g><path d="M 16.386719 -24.320312 L 9.707031 -24.320312 L 9.707031 -40.917969 C 9.707031 -41.441406 9.394531 -41.753906 8.871094 -41.753906 L 3.496094 -41.753906 C 2.871094 -41.753906 2.609375 -41.441406 2.609375 -40.917969 L 2.609375 -0.835938 C 2.609375 -0.3125 2.871094 0 3.496094 0 L 8.871094 0 C 9.394531 0 9.707031 -0.3125 9.707031 -0.835938 L 9.707031 -17.433594 L 16.386719 -17.433594 L 16.386719 -0.835938 C 16.386719 -0.3125 16.699219 0 17.222656 0 L 22.597656 0 C 23.226562 0 23.484375 -0.3125 23.484375 -0.835938 L 23.484375 -40.917969 C 23.484375 -41.441406 23.226562 -41.753906 22.597656 -41.753906 L 17.222656 -41.753906 C 16.699219 -41.753906 16.386719 -41.441406 16.386719 -40.917969 Z M 16.386719 -24.320312 "/></g></g></g><g fill="#a6a6a6" fill-opacity="1"><g transform="translate(352.400354, 247.916388)"><g><path d="M 27.242188 0 C 27.871094 0 28.132812 -0.3125 27.972656 -0.886719 L 19.3125 -35.804688 C 19.207031 -36.324219 18.894531 -36.535156 18.421875 -36.535156 L 11.167969 -36.535156 C 10.699219 -36.535156 10.386719 -36.324219 10.28125 -35.804688 L 1.617188 -0.886719 C 1.460938 -0.3125 1.722656 0 2.296875 0 L 7.410156 0 C 7.878906 0 8.140625 -0.261719 8.246094 -0.730469 L 9.863281 -7.308594 L 19.675781 -7.308594 L 21.347656 -0.730469 C 21.449219 -0.261719 21.710938 0 22.179688 0 Z M 18.058594 -13.359375 L 11.480469 -13.359375 L 14.769531 -27.558594 Z M 18.058594 -13.359375 "/></g></g></g><g fill="#a6a6a6" fill-opacity="1"><g transform="translate(381.986184, 247.916388)"><g><path d="M 24.425781 -36.535156 C 23.800781 -36.535156 23.433594 -36.21875 23.277344 -35.644531 L 17.484375 -12.371094 L 11.691406 -35.644531 C 11.535156 -36.21875 11.167969 -36.535156 10.542969 -36.535156 L 3.652344 -36.535156 C 2.976562 -36.535156 2.609375 -36.167969 2.609375 -35.488281 L 2.609375 -1.042969 C 2.609375 -0.367188 2.976562 0 3.652344 0 L 8.453125 0 C 9.132812 0 9.5 -0.367188 9.5 -1.042969 L 9.5 -21.554688 L 9.863281 -21.554688 L 14.769531 -0.886719 C 14.925781 -0.3125 15.292969 0 15.917969 0 L 18.996094 0 C 19.625 0 19.988281 -0.3125 20.144531 -0.886719 L 25.050781 -21.554688 L 25.417969 -21.554688 L 25.417969 -1.042969 C 25.417969 -0.367188 25.78125 0 26.460938 0 L 31.316406 0 C 31.992188 0 32.359375 -0.367188 32.359375 -1.042969 L 32.359375 -35.488281 C 32.359375 -36.167969 31.992188 -36.535156 31.316406 -36.535156 Z M 24.425781 -36.535156 "/></g></g></g><g fill="#a6a6a6" fill-opacity="1"><g transform="translate(416.946506, 247.916388)"><g><path d="M 3.445312 0 C 2.871094 0 2.609375 -0.3125 2.609375 -0.835938 L 2.609375 -35.699219 C 2.609375 -36.21875 2.871094 -36.535156 3.445312 -36.535156 L 8.871094 -36.535156 C 9.394531 -36.535156 9.707031 -36.21875 9.707031 -35.699219 L 9.707031 -0.835938 C 9.707031 -0.3125 9.394531 0 8.871094 0 Z M 3.445312 0 "/></g></g></g><g fill="#a6a6a6" fill-opacity="1"><g transform="translate(429.260886, 247.916388)"><g><path d="M 9.707031 -6.890625 L 20.042969 -6.890625 C 20.617188 -6.890625 20.875 -6.574219 20.875 -6.054688 L 20.875 -0.835938 C 20.875 -0.261719 20.617188 0 20.042969 0 L 3.445312 0 C 2.921875 0 2.609375 -0.261719 2.609375 -0.835938 L 2.609375 -35.699219 C 2.609375 -36.21875 2.921875 -36.535156 3.445312 -36.535156 L 8.871094 -36.535156 C 9.445312 -36.535156 9.707031 -36.21875 9.707031 -35.699219 Z M 9.707031 -6.890625 "/></g></g></g><g fill="#a6a6a6" fill-opacity="1"><g transform="translate(452.741701, 247.916388)"><g><path d="M 21.605469 -36.535156 C 22.179688 -36.535156 22.441406 -36.21875 22.441406 -35.699219 L 22.441406 -30.480469 C 22.441406 -29.957031 22.179688 -29.644531 21.605469 -29.644531 L 15.554688 -29.644531 L 15.554688 -0.835938 C 15.554688 -0.261719 15.292969 0 14.71875 0 L 9.289062 0 C 8.769531 0 8.453125 -0.261719 8.453125 -0.835938 L 8.453125 -29.644531 L 2.402344 -29.644531 C 1.878906 -29.644531 1.566406 -29.957031 1.566406 -30.480469 L 1.566406 -35.699219 C 1.566406 -36.21875 1.878906 -36.535156 2.402344 -36.535156 Z M 21.605469 -36.535156 "/></g></g></g><g fill="#a6a6a6" fill-opacity="1"><g transform="translate(476.744308, 247.916388)"><g><path d="M 2.609375 -7.515625 C 2.609375 -2.609375 5.21875 0 10.125 0 L 15.96875 0 C 20.875 0 23.484375 -2.609375 23.484375 -7.515625 L 23.484375 -29.019531 C 23.484375 -33.925781 20.875 -36.535156 15.96875 -36.535156 L 10.125 -36.535156 C 5.21875 -36.535156 2.609375 -33.925781 2.609375 -29.019531 Z M 11.480469 -6.734375 C 10.125 -6.734375 9.394531 -7.410156 9.394531 -8.820312 L 9.394531 -27.714844 C 9.394531 -29.070312 10.125 -29.800781 11.480469 -29.800781 L 14.820312 -29.800781 C 16.179688 -29.800781 16.910156 -29.070312 16.910156 -27.714844 L 16.910156 -8.820312 C 16.910156 -7.410156 16.179688 -6.734375 14.820312 -6.734375 Z M 11.480469 -6.734375 "/></g></g></g><g fill="#a6a6a6" fill-opacity="1"><g transform="translate(502.834104, 247.916388)"><g><path d="M 19.152344 -36.535156 C 18.578125 -36.535156 18.320312 -36.21875 18.320312 -35.699219 L 18.320312 -15.917969 L 8.507812 -35.855469 C 8.296875 -36.324219 8.039062 -36.535156 7.566406 -36.535156 L 3.445312 -36.535156 C 2.921875 -36.535156 2.609375 -36.21875 2.609375 -35.699219 L 2.609375 -0.835938 C 2.609375 -0.3125 2.921875 0 3.445312 0 L 8.351562 0 C 8.925781 0 9.1875 -0.3125 9.1875 -0.835938 L 9.1875 -20.617188 L 18.996094 -0.679688 C 19.207031 -0.207031 19.46875 0 19.9375 0 L 24.058594 0 C 24.582031 0 24.894531 -0.3125 24.894531 -0.835938 L 24.894531 -35.699219 C 24.894531 -36.21875 24.582031 -36.535156 24.058594 -36.535156 Z M 19.152344 -36.535156 "/></g></g></g><g fill="#a6a6a6" fill-opacity="1"><g transform="translate(530.332745, 247.916388)"><g/></g></g><g fill="#a6a6a6" fill-opacity="1"><g transform="translate(543.377637, 247.916388)"><g><path d="M 10.125 -41.753906 C 5.269531 -41.753906 2.609375 -39.144531 2.609375 -34.238281 L 2.609375 -21.921875 C 2.609375 -20.929688 3.078125 -20.300781 4.019531 -19.988281 L 16.386719 -15.917969 L 16.386719 -8.976562 C 16.386719 -7.566406 15.65625 -6.890625 14.300781 -6.890625 L 11.796875 -6.890625 C 10.492188 -6.890625 9.707031 -7.566406 9.707031 -8.976562 L 9.707031 -12.996094 C 9.707031 -13.570312 9.445312 -13.832031 8.871094 -13.832031 L 3.445312 -13.832031 C 2.921875 -13.832031 2.609375 -13.570312 2.609375 -12.996094 L 2.609375 -7.515625 C 2.609375 -2.609375 5.269531 0 10.125 0 L 15.96875 0 C 20.875 0 23.484375 -2.609375 23.484375 -7.515625 L 23.484375 -19.570312 C 23.484375 -20.5625 23.015625 -21.136719 22.128906 -21.503906 L 9.707031 -25.574219 L 9.707031 -32.777344 C 9.707031 -34.132812 10.492188 -34.863281 11.796875 -34.863281 L 14.300781 -34.863281 C 15.710938 -34.863281 16.386719 -34.132812 16.386719 -32.777344 L 16.386719 -28.703125 C 16.386719 -28.183594 16.699219 -27.871094 17.222656 -27.871094 L 22.652344 -27.871094 C 23.226562 -27.871094 23.484375 -28.183594 23.484375 -28.703125 L 23.484375 -34.238281 C 23.484375 -39.144531 20.875 -41.753906 15.96875 -41.753906 Z M 10.125 -41.753906 "/></g></g></g><g fill="#a6a6a6" fill-opacity="1"><g transform="translate(569.467422, 247.916388)"><g><path d="M 2.609375 -7.515625 C 2.609375 -2.609375 5.21875 0 10.125 0 L 15.96875 0 C 20.875 0 23.484375 -2.609375 23.484375 -7.515625 L 23.484375 -29.019531 C 23.484375 -33.925781 20.875 -36.535156 15.96875 -36.535156 L 10.125 -36.535156 C 5.21875 -36.535156 2.609375 -33.925781 2.609375 -29.019531 Z M 11.480469 -6.734375 C 10.125 -6.734375 9.394531 -7.410156 9.394531 -8.820312 L 9.394531 -27.714844 C 9.394531 -29.070312 10.125 -29.800781 11.480469 -29.800781 L 14.820312 -29.800781 C 16.179688 -29.800781 16.910156 -29.070312 16.910156 -27.714844 L 16.910156 -8.820312 C 16.910156 -7.410156 16.179688 -6.734375 14.820312 -6.734375 Z M 11.480469 -6.734375 "/></g></g></g><g fill="#a6a6a6" fill-opacity="1"><g transform="translate(595.557207, 247.916388)"><g><path d="M 17.640625 -36.535156 C 17.066406 -36.535156 16.597656 -36.0625 16.597656 -35.488281 L 16.597656 -8.976562 C 16.597656 -7.566406 15.867188 -6.890625 14.507812 -6.890625 L 11.796875 -6.890625 C 10.4375 -6.890625 9.707031 -7.566406 9.707031 -8.976562 L 9.707031 -35.488281 C 9.707031 -36.0625 9.238281 -36.535156 8.664062 -36.535156 L 3.652344 -36.535156 C 3.078125 -36.535156 2.609375 -36.0625 2.609375 -35.488281 L 2.609375 -7.515625 C 2.609375 -2.609375 5.21875 0 10.125 0 L 15.96875 0 C 20.875 0 23.484375 -2.609375 23.484375 -7.515625 L 23.484375 -35.488281 C 23.484375 -36.0625 23.015625 -36.535156 22.441406 -36.535156 Z M 17.640625 -36.535156 "/></g></g></g><g fill="#a6a6a6" fill-opacity="1"><g transform="translate(621.646991, 247.916388)"><g><path d="M 21.605469 -36.535156 C 22.179688 -36.535156 22.441406 -36.21875 22.441406 -35.699219 L 22.441406 -30.480469 C 22.441406 -29.957031 22.179688 -29.644531 21.605469 -29.644531 L 15.554688 -29.644531 L 15.554688 -0.835938 C 15.554688 -0.261719 15.292969 0 14.71875 0 L 9.289062 0 C 8.769531 0 8.453125 -0.261719 8.453125 -0.835938 L 8.453125 -29.644531 L 2.402344 -29.644531 C 1.878906 -29.644531 1.566406 -29.957031 1.566406 -30.480469 L 1.566406 -35.699219 C 1.566406 -36.21875 1.878906 -36.535156 2.402344 -36.535156 Z M 21.605469 -36.535156 "/></g></g></g><g fill="#a6a6a6" fill-opacity="1"><g transform="translate(645.64961, 247.916388)"><g><path d="M 16.386719 -21.605469 L 9.707031 -21.605469 L 9.707031 -35.699219 C 9.707031 -36.21875 9.394531 -36.535156 8.871094 -36.535156 L 3.496094 -36.535156 C 2.871094 -36.535156 2.609375 -36.21875 2.609375 -35.699219 L 2.609375 -0.835938 C 2.609375 -0.3125 2.871094 0 3.496094 0 L 8.871094 0 C 9.394531 0 9.707031 -0.3125 9.707031 -0.835938 L 9.707031 -14.71875 L 16.386719 -14.71875 L 16.386719 -0.835938 C 16.386719 -0.3125 16.699219 0 17.222656 0 L 22.597656 0 C 23.226562 0 23.484375 -0.3125 23.484375 -0.835938 L 23.484375 -35.699219 C 23.484375 -36.21875 23.226562 -36.535156 22.597656 -36.535156 L 17.222656 -36.535156 C 16.699219 -36.535156 16.386719 -36.21875 16.386719 -35.699219 Z M 16.386719 -21.605469 "/></g></g></g><g fill="#a6a6a6" fill-opacity="1"><g transform="translate(671.739394, 247.916388)"><g><path d="M 23.433594 -35.699219 C 23.433594 -36.21875 23.226562 -36.535156 22.597656 -36.535156 L 3.390625 -36.535156 C 2.921875 -36.535156 2.609375 -36.21875 2.609375 -35.699219 L 2.609375 -0.835938 C 2.609375 -0.3125 2.921875 0 3.390625 0 L 22.597656 0 C 23.226562 0 23.433594 -0.3125 23.433594 -0.835938 L 23.433594 -6.054688 C 23.433594 -6.628906 23.226562 -6.890625 22.597656 -6.890625 L 9.707031 -6.890625 L 9.707031 -14.613281 L 19.519531 -14.613281 C 20.042969 -14.613281 20.355469 -14.925781 20.355469 -15.5 L 20.355469 -20.667969 C 20.355469 -21.242188 20.042969 -21.554688 19.519531 -21.554688 L 9.707031 -21.554688 L 9.707031 -29.59375 L 22.597656 -29.59375 C 23.226562 -29.59375 23.433594 -29.957031 23.433594 -30.480469 Z M 23.433594 -35.699219 "/></g></g></g><g fill="#a6a6a6" fill-opacity="1"><g transform="translate(697.77701, 247.916388)"><g><path d="M 27.242188 0 C 27.871094 0 28.132812 -0.3125 27.972656 -0.886719 L 19.3125 -35.804688 C 19.207031 -36.324219 18.894531 -36.535156 18.421875 -36.535156 L 11.167969 -36.535156 C 10.699219 -36.535156 10.386719 -36.324219 10.28125 -35.804688 L 1.617188 -0.886719 C 1.460938 -0.3125 1.722656 0 2.296875 0 L 7.410156 0 C 7.878906 0 8.140625 -0.261719 8.246094 -0.730469 L 9.863281 -7.308594 L 19.675781 -7.308594 L 21.347656 -0.730469 C 21.449219 -0.261719 21.710938 0 22.179688 0 Z M 18.058594 -13.359375 L 11.480469 -13.359375 L 14.769531 -27.558594 Z M 18.058594 -13.359375 "/></g></g></g><g fill="#a6a6a6" fill-opacity="1"><g transform="translate(727.36284, 247.916388)"><g><path d="M 10.125 -36.535156 C 5.269531 -36.535156 2.609375 -33.925781 2.609375 -29.019531 L 2.609375 -19.988281 C 2.609375 -18.996094 3.078125 -18.371094 4.019531 -18.058594 L 16.542969 -13.988281 L 16.542969 -8.714844 C 16.542969 -7.308594 15.8125 -6.628906 14.457031 -6.628906 L 11.636719 -6.628906 C 10.332031 -6.628906 9.550781 -7.308594 9.550781 -8.714844 L 9.550781 -10.90625 C 9.550781 -11.480469 9.289062 -11.742188 8.714844 -11.742188 L 3.445312 -11.742188 C 2.921875 -11.742188 2.609375 -11.480469 2.609375 -10.90625 L 2.609375 -7.515625 C 2.609375 -2.609375 5.269531 0 10.125 0 L 15.96875 0 C 20.875 0 23.484375 -2.609375 23.484375 -7.515625 L 23.484375 -17.328125 C 23.484375 -18.320312 23.015625 -18.945312 22.128906 -19.257812 L 9.5 -23.328125 L 9.5 -27.765625 C 9.5 -29.121094 10.28125 -29.851562 11.585938 -29.851562 L 14.457031 -29.851562 C 15.867188 -29.851562 16.542969 -29.121094 16.542969 -27.765625 L 16.542969 -25.574219 C 16.542969 -25.050781 16.859375 -24.738281 17.378906 -24.738281 L 22.652344 -24.738281 C 23.226562 -24.738281 23.484375 -25.050781 23.484375 -25.574219 L 23.484375 -29.019531 C 23.484375 -33.925781 20.875 -36.535156 15.96875 -36.535156 Z M 10.125 -36.535156 "/></g></g></g><g fill="#a6a6a6" fill-opacity="1"><g transform="translate(753.452624, 247.916388)"><g><path d="M 21.605469 -36.535156 C 22.179688 -36.535156 22.441406 -36.21875 22.441406 -35.699219 L 22.441406 -30.480469 C 22.441406 -29.957031 22.179688 -29.644531 21.605469 -29.644531 L 15.554688 -29.644531 L 15.554688 -0.835938 C 15.554688 -0.261719 15.292969 0 14.71875 0 L 9.289062 0 C 8.769531 0 8.453125 -0.261719 8.453125 -0.835938 L 8.453125 -29.644531 L 2.402344 -29.644531 C 1.878906 -29.644531 1.566406 -29.957031 1.566406 -30.480469 L 1.566406 -35.699219 C 1.566406 -36.21875 1.878906 -36.535156 2.402344 -36.535156 Z M 21.605469 -36.535156 "/></g></g></g><g fill="#a6a6a6" fill-opacity="1"><g transform="translate(777.455243, 247.916388)"><g><path d="M 23.433594 -35.699219 C 23.433594 -36.21875 23.226562 -36.535156 22.597656 -36.535156 L 3.390625 -36.535156 C 2.921875 -36.535156 2.609375 -36.21875 2.609375 -35.699219 L 2.609375 -0.835938 C 2.609375 -0.3125 2.921875 0 3.390625 0 L 22.597656 0 C 23.226562 0 23.433594 -0.3125 23.433594 -0.835938 L 23.433594 -6.054688 C 23.433594 -6.628906 23.226562 -6.890625 22.597656 -6.890625 L 9.707031 -6.890625 L 9.707031 -14.613281 L 19.519531 -14.613281 C 20.042969 -14.613281 20.355469 -14.925781 20.355469 -15.5 L 20.355469 -20.667969 C 20.355469 -21.242188 20.042969 -21.554688 19.519531 -21.554688 L 9.707031 -21.554688 L 9.707031 -29.59375 L 22.597656 -29.59375 C 23.226562 -29.59375 23.433594 -29.957031 23.433594 -30.480469 Z M 23.433594 -35.699219 "/></g></g></g><g fill="#a6a6a6" fill-opacity="1"><g transform="translate(803.492882, 247.916388)"><g><path d="M 23.484375 -29.019531 C 23.484375 -33.925781 20.875 -36.535156 15.96875 -36.535156 L 3.445312 -36.535156 C 2.921875 -36.535156 2.609375 -36.21875 2.609375 -35.699219 L 2.609375 -0.835938 C 2.609375 -0.3125 2.921875 0 3.445312 0 L 8.558594 0 C 9.082031 0 9.394531 -0.3125 9.394531 -0.835938 L 9.394531 -11.011719 L 14.039062 -11.011719 L 16.542969 -0.730469 C 16.648438 -0.261719 16.910156 0 17.433594 0 L 22.546875 0 C 23.121094 0 23.433594 -0.3125 23.277344 -0.9375 L 20.5625 -12.160156 C 22.496094 -13.359375 23.484375 -15.5 23.484375 -18.527344 Z M 9.394531 -17.746094 L 9.394531 -29.800781 L 14.613281 -29.800781 C 15.96875 -29.800781 16.699219 -29.070312 16.699219 -27.714844 L 16.699219 -19.832031 C 16.699219 -18.476562 15.96875 -17.746094 14.613281 -17.746094 Z M 9.394531 -17.746094 "/></g></g></g><g fill="#a6a6a6" fill-opacity="1"><g transform="translate(829.582666, 247.916388)"><g><path d="M 19.152344 -36.535156 C 18.578125 -36.535156 18.320312 -36.21875 18.320312 -35.699219 L 18.320312 -15.917969 L 8.507812 -35.855469 C 8.296875 -36.324219 8.039062 -36.535156 7.566406 -36.535156 L 3.445312 -36.535156 C 2.921875 -36.535156 2.609375 -36.21875 2.609375 -35.699219 L 2.609375 -0.835938 C 2.609375 -0.3125 2.921875 0 3.445312 0 L 8.351562 0 C 8.925781 0 9.1875 -0.3125 9.1875 -0.835938 L 9.1875 -20.617188 L 18.996094 -0.679688 C 19.207031 -0.207031 19.46875 0 19.9375 0 L 24.058594 0 C 24.582031 0 24.894531 -0.3125 24.894531 -0.835938 L 24.894531 -35.699219 C 24.894531 -36.21875 24.582031 -36.535156 24.058594 -36.535156 Z M 19.152344 -36.535156 "/></g></g></g><g fill="#d50032" fill-opacity="1"><g transform="translate(893.148626, 247.916388)"><g><path d="M 24.425781 -41.753906 C 23.800781 -41.753906 23.433594 -41.441406 23.277344 -40.8125 L 17.484375 -14.820312 L 11.691406 -40.8125 C 11.535156 -41.441406 11.167969 -41.753906 10.542969 -41.753906 L 3.652344 -41.753906 C 2.976562 -41.753906 2.609375 -41.386719 2.609375 -40.707031 L 2.609375 -1.042969 C 2.609375 -0.367188 2.976562 0 3.652344 0 L 8.453125 0 C 9.132812 0 9.5 -0.367188 9.5 -1.042969 L 9.5 -24.53125 L 9.863281 -24.53125 L 15.03125 -0.9375 C 15.1875 -0.3125 15.554688 0 16.179688 0 L 18.738281 0 C 19.363281 0 19.726562 -0.3125 19.882812 -0.9375 L 25.050781 -24.53125 L 25.417969 -24.53125 L 25.417969 -1.042969 C 25.417969 -0.367188 25.78125 0 26.460938 0 L 31.316406 0 C 31.992188 0 32.359375 -0.367188 32.359375 -1.042969 L 32.359375 -40.707031 C 32.359375 -41.386719 31.992188 -41.753906 31.316406 -41.753906 Z M 24.425781 -41.753906 "/></g></g></g><g fill="#d50032" fill-opacity="1"><g transform="translate(928.108948, 247.916388)"><g><path d="M 23.484375 -29.019531 C 23.484375 -33.925781 20.875 -36.535156 15.96875 -36.535156 L 3.445312 -36.535156 C 2.921875 -36.535156 2.609375 -36.21875 2.609375 -35.699219 L 2.609375 -0.835938 C 2.609375 -0.3125 2.921875 0 3.445312 0 L 8.558594 0 C 9.082031 0 9.394531 -0.3125 9.394531 -0.835938 L 9.394531 -11.011719 L 14.039062 -11.011719 L 16.542969 -0.730469 C 16.648438 -0.261719 16.910156 0 17.433594 0 L 22.546875 0 C 23.121094 0 23.433594 -0.3125 23.277344 -0.9375 L 20.5625 -12.160156 C 22.496094 -13.359375 23.484375 -15.5 23.484375 -18.527344 Z M 9.394531 -17.746094 L 9.394531 -29.800781 L 14.613281 -29.800781 C 15.96875 -29.800781 16.699219 -29.070312 16.699219 -27.714844 L 16.699219 -19.832031 C 16.699219 -18.476562 15.96875 -17.746094 14.613281 -17.746094 Z M 9.394531 -17.746094 "/></g></g></g><g fill="#d50032" fill-opacity="1"><g transform="translate(954.198744, 247.916388)"><g><path d="M 2.609375 -1.042969 C 2.609375 -0.367188 2.976562 0 3.652344 0 L 8.402344 0 C 9.082031 0 9.445312 -0.367188 9.445312 -1.042969 L 9.445312 -5.84375 C 9.445312 -6.523438 9.082031 -6.890625 8.402344 -6.890625 L 3.652344 -6.890625 C 2.976562 -6.890625 2.609375 -6.523438 2.609375 -5.84375 Z M 2.609375 -1.042969 "/></g></g></g><g fill="#d50032" fill-opacity="1"><g transform="translate(966.252233, 247.916388)"><g/></g></g><g fill="#d50032" fill-opacity="1"><g transform="translate(979.297125, 247.916388)"><g><path d="M 23.484375 -40.917969 C 23.484375 -41.441406 23.171875 -41.753906 22.652344 -41.753906 L 3.445312 -41.753906 C 2.871094 -41.753906 2.609375 -41.441406 2.609375 -40.917969 L 2.609375 -0.835938 C 2.609375 -0.3125 2.871094 0 3.445312 0 L 8.871094 0 C 9.394531 0 9.707031 -0.3125 9.707031 -0.835938 L 9.707031 -17.484375 L 19.519531 -17.484375 C 20.042969 -17.484375 20.355469 -17.746094 20.355469 -18.320312 L 20.355469 -23.539062 C 20.355469 -24.058594 20.042969 -24.375 19.519531 -24.375 L 9.707031 -24.375 L 9.707031 -34.863281 L 22.652344 -34.863281 C 23.171875 -34.863281 23.484375 -35.175781 23.484375 -35.699219 Z M 23.484375 -40.917969 "/></g></g></g><g fill="#d50032" fill-opacity="1"><g transform="translate(1005.386921, 247.916388)"><g><path d="M 3.445312 0 C 2.871094 0 2.609375 -0.3125 2.609375 -0.835938 L 2.609375 -35.699219 C 2.609375 -36.21875 2.871094 -36.535156 3.445312 -36.535156 L 8.871094 -36.535156 C 9.394531 -36.535156 9.707031 -36.21875 9.707031 -35.699219 L 9.707031 -0.835938 C 9.707031 -0.3125 9.394531 0 8.871094 0 Z M 3.445312 0 "/></g></g></g><g fill="#d50032" fill-opacity="1"><g transform="translate(1017.7013, 247.916388)"><g><path d="M 10.125 -36.535156 C 5.269531 -36.535156 2.609375 -33.925781 2.609375 -29.019531 L 2.609375 -19.988281 C 2.609375 -18.996094 3.078125 -18.371094 4.019531 -18.058594 L 16.542969 -13.988281 L 16.542969 -8.714844 C 16.542969 -7.308594 15.8125 -6.628906 14.457031 -6.628906 L 11.636719 -6.628906 C 10.332031 -6.628906 9.550781 -7.308594 9.550781 -8.714844 L 9.550781 -10.90625 C 9.550781 -11.480469 9.289062 -11.742188 8.714844 -11.742188 L 3.445312 -11.742188 C 2.921875 -11.742188 2.609375 -11.480469 2.609375 -10.90625 L 2.609375 -7.515625 C 2.609375 -2.609375 5.269531 0 10.125 0 L 15.96875 0 C 20.875 0 23.484375 -2.609375 23.484375 -7.515625 L 23.484375 -17.328125 C 23.484375 -18.320312 23.015625 -18.945312 22.128906 -19.257812 L 9.5 -23.328125 L 9.5 -27.765625 C 9.5 -29.121094 10.28125 -29.851562 11.585938 -29.851562 L 14.457031 -29.851562 C 15.867188 -29.851562 16.542969 -29.121094 16.542969 -27.765625 L 16.542969 -25.574219 C 16.542969 -25.050781 16.859375 -24.738281 17.378906 -24.738281 L 22.652344 -24.738281 C 23.226562 -24.738281 23.484375 -25.050781 23.484375 -25.574219 L 23.484375 -29.019531 C 23.484375 -33.925781 20.875 -36.535156 15.96875 -36.535156 Z M 10.125 -36.535156 "/></g></g></g><g fill="#d50032" fill-opacity="1"><g transform="translate(1043.791096, 247.916388)"><g><path d="M 16.386719 -21.605469 L 9.707031 -21.605469 L 9.707031 -35.699219 C 9.707031 -36.21875 9.394531 -36.535156 8.871094 -36.535156 L 3.496094 -36.535156 C 2.871094 -36.535156 2.609375 -36.21875 2.609375 -35.699219 L 2.609375 -0.835938 C 2.609375 -0.3125 2.871094 0 3.496094 0 L 8.871094 0 C 9.394531 0 9.707031 -0.3125 9.707031 -0.835938 L 9.707031 -14.71875 L 16.386719 -14.71875 L 16.386719 -0.835938 C 16.386719 -0.3125 16.699219 0 17.222656 0 L 22.597656 0 C 23.226562 0 23.484375 -0.3125 23.484375 -0.835938 L 23.484375 -35.699219 C 23.484375 -36.21875 23.226562 -36.535156 22.597656 -36.535156 L 17.222656 -36.535156 C 16.699219 -36.535156 16.386719 -36.21875 16.386719 -35.699219 Z M 16.386719 -21.605469 "/></g></g></g><g fill="#d50032" fill-opacity="1"><g transform="translate(1069.880892, 247.916388)"><g><path d="M 23.433594 -35.699219 C 23.433594 -36.21875 23.226562 -36.535156 22.597656 -36.535156 L 3.390625 -36.535156 C 2.921875 -36.535156 2.609375 -36.21875 2.609375 -35.699219 L 2.609375 -0.835938 C 2.609375 -0.3125 2.921875 0 3.390625 0 L 22.597656 0 C 23.226562 0 23.433594 -0.3125 23.433594 -0.835938 L 23.433594 -6.054688 C 23.433594 -6.628906 23.226562 -6.890625 22.597656 -6.890625 L 9.707031 -6.890625 L 9.707031 -14.613281 L 19.519531 -14.613281 C 20.042969 -14.613281 20.355469 -14.925781 20.355469 -15.5 L 20.355469 -20.667969 C 20.355469 -21.242188 20.042969 -21.554688 19.519531 -21.554688 L 9.707031 -21.554688 L 9.707031 -29.59375 L 22.597656 -29.59375 C 23.226562 -29.59375 23.433594 -29.957031 23.433594 -30.480469 Z M 23.433594 -35.699219 "/></g></g></g><g fill="#d50032" fill-opacity="1"><g transform="translate(1095.918508, 247.916388)"><g><path d="M 9.707031 -6.890625 L 20.042969 -6.890625 C 20.617188 -6.890625 20.875 -6.574219 20.875 -6.054688 L 20.875 -0.835938 C 20.875 -0.261719 20.617188 0 20.042969 0 L 3.445312 0 C 2.921875 0 2.609375 -0.261719 2.609375 -0.835938 L 2.609375 -35.699219 C 2.609375 -36.21875 2.921875 -36.535156 3.445312 -36.535156 L 8.871094 -36.535156 C 9.445312 -36.535156 9.707031 -36.21875 9.707031 -35.699219 Z M 9.707031 -6.890625 "/></g></g></g><g clip-path="url(#0838ee1091)"><path fill="#d50032" d="M 133.257812 138.585938 L 133.257812 206.648438 C 133.257812 212.558594 138.09375 217.394531 144.007812 217.394531 L 237.171875 217.394531 C 243.082031 217.394531 247.921875 212.558594 247.921875 206.648438 L 247.921875 138.585938 C 247.921875 132.675781 243.082031 127.839844 237.171875 127.839844 L 228.214844 127.839844 L 228.214844 115.300781 C 228.214844 94.523438 211.371094 77.6875 190.589844 77.6875 C 169.804688 77.6875 152.964844 94.523438 152.964844 115.300781 L 152.964844 127.839844 L 144.007812 127.839844 C 138.09375 127.839844 133.257812 132.675781 133.257812 138.585938 Z M 160.132812 115.300781 C 160.132812 98.464844 173.746094 84.851562 190.589844 84.851562 C 207.429688 84.851562 221.046875 98.464844 221.046875 115.300781 L 221.046875 127.839844 L 160.132812 127.839844 Z M 237.171875 135.003906 C 239.140625 135.003906 240.753906 136.613281 240.753906 138.585938 L 240.753906 206.648438 C 240.753906 208.617188 239.140625 210.230469 237.171875 210.230469 L 144.007812 210.230469 C 142.035156 210.230469 140.421875 208.617188 140.421875 206.648438 L 140.421875 138.585938 C 140.421875 136.613281 142.035156 135.003906 144.007812 135.003906 Z M 237.171875 135.003906 " fill-opacity="1" fill-rule="nonzero"/></g><path fill="#d50032" d="M 208.503906 182.648438 L 208.503906 193.75 C 208.503906 197.691406 211.730469 200.917969 215.671875 200.917969 L 226.421875 200.917969 C 230.363281 200.917969 233.589844 197.691406 233.589844 193.75 L 233.589844 182.648438 C 233.589844 178.707031 230.363281 175.480469 226.421875 175.480469 L 215.671875 175.480469 C 211.730469 175.480469 208.503906 178.707031 208.503906 182.648438 Z M 226.421875 193.75 L 215.671875 193.75 L 215.671875 182.648438 L 226.421875 182.648438 Z M 226.421875 193.75 " fill-opacity="1" fill-rule="nonzero"/><path fill="#d50032" d="M 197.753906 200.917969 C 199.726562 200.917969 201.339844 199.304688 201.339844 197.332031 L 201.339844 179.066406 C 201.339844 177.09375 199.726562 175.480469 197.753906 175.480469 C 195.785156 175.480469 194.171875 177.09375 194.171875 179.066406 L 194.171875 197.332031 C 194.171875 199.304688 195.785156 200.917969 197.753906 200.917969 Z M 197.753906 200.917969 " fill-opacity="1" fill-rule="nonzero"/><path fill="#d50032" d="M 161.921875 182.648438 L 161.921875 193.75 C 161.921875 197.691406 165.148438 200.917969 169.089844 200.917969 L 179.839844 200.917969 C 183.78125 200.917969 187.007812 197.691406 187.007812 193.75 L 187.007812 182.648438 C 187.007812 178.707031 183.78125 175.480469 179.839844 175.480469 L 169.089844 175.480469 C 165.148438 175.480469 161.921875 178.707031 161.921875 182.648438 Z M 179.839844 193.75 L 169.089844 193.75 L 169.089844 182.648438 L 179.839844 182.648438 Z M 179.839844 193.75 " fill-opacity="1" fill-rule="nonzero"/><path fill="#d50032" d="M 151.171875 200.917969 C 153.144531 200.917969 154.757812 199.304688 154.757812 197.332031 L 154.757812 179.066406 C 154.757812 177.09375 153.144531 175.480469 151.171875 175.480469 C 149.203125 175.480469 147.589844 177.09375 147.589844 179.066406 L 147.589844 197.332031 C 147.589844 199.304688 149.203125 200.917969 151.171875 200.917969 Z M 151.171875 200.917969 " fill-opacity="1" fill-rule="nonzero"/><path fill="#d50032" d="M 154.757812 167.960938 L 165.507812 167.960938 C 169.449219 167.960938 172.671875 164.734375 172.671875 160.796875 L 172.671875 149.691406 C 172.671875 145.75 169.449219 142.527344 165.507812 142.527344 L 154.757812 142.527344 C 150.816406 142.527344 147.589844 145.75 147.589844 149.691406 L 147.589844 160.796875 C 147.589844 164.734375 150.816406 167.960938 154.757812 167.960938 Z M 154.757812 149.691406 L 165.507812 149.691406 L 165.507812 160.796875 L 154.757812 160.796875 Z M 154.757812 149.691406 " fill-opacity="1" fill-rule="nonzero"/><path fill="#d50032" d="M 183.421875 167.960938 C 185.394531 167.960938 187.007812 166.347656 187.007812 164.378906 L 187.007812 146.109375 C 187.007812 144.136719 185.394531 142.527344 183.421875 142.527344 C 181.453125 142.527344 179.839844 144.136719 179.839844 146.109375 L 179.839844 164.378906 C 179.839844 166.347656 181.453125 167.960938 183.421875 167.960938 Z M 183.421875 167.960938 " fill-opacity="1" fill-rule="nonzero"/><path fill="#d50032" d="M 201.339844 167.960938 L 212.089844 167.960938 C 216.03125 167.960938 219.253906 164.734375 219.253906 160.796875 L 219.253906 149.691406 C 219.253906 145.75 216.03125 142.527344 212.089844 142.527344 L 201.339844 142.527344 C 197.398438 142.527344 194.171875 145.75 194.171875 149.691406 L 194.171875 160.796875 C 194.171875 164.734375 197.398438 167.960938 201.339844 167.960938 Z M 201.339844 149.691406 L 212.089844 149.691406 L 212.089844 160.796875 L 201.339844 160.796875 Z M 201.339844 149.691406 " fill-opacity="1" fill-rule="nonzero"/><path fill="#d50032" d="M 230.003906 167.960938 C 231.976562 167.960938 233.589844 166.347656 233.589844 164.378906 L 233.589844 146.109375 C 233.589844 144.136719 231.976562 142.527344 230.003906 142.527344 C 228.035156 142.527344 226.421875 144.136719 226.421875 146.109375 L 226.421875 164.378906 C 226.421875 166.347656 228.035156 167.960938 230.003906 167.960938 Z M 230.003906 167.960938 " fill-opacity="1" fill-rule="nonzero"/><g clip-path="url(#195870f4dc)"><path fill="#d50032" d="M 294.503906 97.390625 L 290.921875 97.390625 L 290.921875 146.644531 C 290.921875 148.617188 289.308594 150.226562 287.335938 150.226562 C 285.367188 150.226562 283.753906 148.617188 283.753906 146.644531 L 283.753906 97.390625 L 276.585938 97.390625 L 276.585938 160.257812 L 286.261719 169.390625 C 286.980469 170.109375 287.335938 171.003906 287.335938 171.898438 L 287.335938 200.199219 C 287.335938 202.171875 285.722656 203.78125 283.753906 203.78125 C 281.78125 203.78125 280.171875 202.171875 280.171875 200.199219 L 280.171875 173.691406 L 270.496094 164.554688 C 269.777344 163.839844 269.421875 162.945312 269.421875 162.050781 L 269.421875 97.390625 L 231.617188 97.390625 C 233.945312 102.941406 235.378906 108.851562 235.378906 115.300781 L 235.378906 120.675781 L 237.171875 120.675781 C 247.027344 120.675781 255.085938 128.734375 255.085938 138.585938 L 255.085938 206.648438 C 255.085938 216.5 247.027344 224.558594 237.171875 224.558594 L 144.007812 224.558594 C 134.152344 224.558594 126.089844 216.5 126.089844 206.648438 L 126.089844 138.585938 C 126.089844 128.734375 134.152344 120.675781 144.007812 120.675781 L 145.796875 120.675781 L 145.796875 115.300781 C 145.796875 108.851562 147.230469 102.941406 149.5625 97.390625 L 86.675781 97.390625 C 80.761719 97.390625 75.925781 102.226562 75.925781 108.136719 L 75.925781 231.722656 C 75.925781 237.632812 80.761719 242.46875 86.675781 242.46875 L 90.257812 242.46875 L 90.257812 200.378906 C 90.257812 198.410156 91.871094 196.796875 93.839844 196.796875 C 95.8125 196.796875 97.425781 198.410156 97.425781 200.378906 L 97.425781 242.46875 L 104.589844 242.46875 L 104.589844 186.765625 L 94.917969 177.632812 C 94.199219 176.914062 93.839844 176.019531 93.839844 175.125 L 93.839844 146.644531 C 93.839844 144.675781 95.453125 143.0625 97.425781 143.0625 C 99.394531 143.0625 101.007812 144.675781 101.007812 146.644531 L 101.007812 173.332031 L 110.683594 182.46875 C 111.398438 183.183594 111.757812 184.078125 111.757812 184.976562 L 111.757812 242.289062 L 187.007812 242.289062 L 187.007812 249.457031 L 154.757812 249.457031 C 152.785156 249.457031 151.171875 251.066406 151.171875 253.039062 C 151.171875 255.007812 152.785156 256.621094 154.757812 256.621094 L 226.421875 256.621094 C 228.390625 256.621094 230.003906 255.007812 230.003906 253.039062 C 230.003906 251.066406 228.390625 249.457031 226.421875 249.457031 L 194.171875 249.457031 L 194.171875 242.289062 L 294.503906 242.289062 C 300.414062 242.289062 305.253906 237.453125 305.253906 231.542969 L 305.253906 108.136719 C 305.253906 102.226562 300.414062 97.390625 294.503906 97.390625 Z M 294.503906 97.390625 " fill-opacity="1" fill-rule="nonzero"/></g></svg>