<svg xmlns="http://www.w3.org/2000/svg" xmlns:xlink="http://www.w3.org/1999/xlink" width="700" zoomAndPan="magnify" viewBox="0 0 525 251.999989" height="336" preserveAspectRatio="xMidYMid meet" version="1.0"><defs><g/><clipPath id="bbcc2fd647"><path d="M 191 136.96875 L 197 136.96875 L 197 144 L 191 144 Z M 191 136.96875 " clip-rule="nonzero"/></clipPath><clipPath id="41532f671c"><path d="M 188.871094 142 L 195 142 L 195 148.851562 L 188.871094 148.851562 Z M 188.871094 142 " clip-rule="nonzero"/></clipPath><clipPath id="194292f882"><path d="M 189 137 L 197.359375 137 L 197.359375 148.851562 L 189 148.851562 Z M 189 137 " clip-rule="nonzero"/></clipPath><clipPath id="e7de29310e"><path d="M 81 136 L 112 136 L 112 155.171875 L 81 155.171875 Z M 81 136 " clip-rule="nonzero"/></clipPath></defs><g clip-path="url(#bbcc2fd647)"><path fill="#4b0376" d="M 196.507812 140.1875 C 196.261719 139.542969 195.261719 137.566406 195.261719 137.566406 C 194.960938 137.019531 193.714844 136.972656 193.113281 136.972656 C 192.714844 136.972656 192.117188 136.972656 191.714844 137.121094 C 191.617188 137.464844 191.566406 138.355469 192.015625 139.347656 C 192.363281 139.347656 192.8125 139.296875 193.113281 139.296875 C 193.613281 139.296875 194.613281 139.296875 195.011719 139.394531 C 194.910156 139.644531 194.761719 139.941406 194.613281 140.1875 C 194.511719 140.335938 194.011719 140.980469 193.613281 141.523438 L 195.160156 143.402344 C 195.5625 142.910156 196.011719 142.414062 196.109375 142.316406 C 196.460938 141.671875 196.757812 140.878906 196.507812 140.1875 Z M 196.507812 140.1875 " fill-opacity="1" fill-rule="nonzero"/></g><g clip-path="url(#41532f671c)"><path fill="#4b0376" d="M 192.964844 142.316406 C 191.265625 144.394531 188.871094 147.3125 188.871094 147.3125 L 190.71875 148.847656 C 190.71875 148.847656 192.964844 146.078125 194.5625 144.148438 C 194.261719 143.851562 193.613281 143.15625 192.964844 142.316406 Z M 192.964844 142.316406 " fill-opacity="1" fill-rule="nonzero"/></g><g clip-path="url(#194292f882)"><path fill="#4b0376" d="M 197.359375 147.3125 L 195.511719 148.847656 C 195.511719 148.847656 190.617188 142.808594 190.21875 142.265625 C 189.816406 141.722656 189.519531 140.878906 189.71875 140.1875 C 189.917969 139.496094 190.964844 137.566406 190.964844 137.566406 C 190.964844 137.566406 190.917969 137.863281 190.917969 138.257812 C 190.917969 138.652344 191.117188 139.445312 191.617188 140.1875 C 192.117188 140.929688 197.359375 147.3125 197.359375 147.3125 Z M 197.359375 147.3125 " fill-opacity="1" fill-rule="nonzero"/></g><path fill="#4b0376" d="M 109.449219 116.929688 C 109.316406 116.742188 109.1875 116.539062 109.050781 116.296875 C 108.613281 115.628906 108.175781 114.878906 107.8125 114.0625 L 104.441406 126.378906 L 115.273438 124.949219 Z M 109.449219 116.929688 " fill-opacity="1" fill-rule="nonzero"/><g clip-path="url(#e7de29310e)"><path fill="#4b0376" d="M 100.640625 139.617188 C 98.507812 139.617188 96.585938 138.539062 95.429688 136.875 L 83.566406 145.703125 C 81.238281 147.4375 80.757812 150.726562 82.492188 153.050781 C 83.523438 154.433594 85.105469 155.164062 86.710938 155.164062 C 87.800781 155.164062 88.902344 154.828125 89.84375 154.125 L 110.867188 138.484375 C 110.945312 138.425781 111.023438 138.359375 111.097656 138.292969 L 101.476562 139.5625 C 101.199219 139.597656 100.917969 139.617188 100.640625 139.617188 Z M 100.640625 139.617188 " fill-opacity="1" fill-rule="nonzero"/></g><path fill="#4b0376" d="M 163.507812 91.8125 C 163.867188 92.335938 164.171875 92.886719 164.425781 93.46875 C 164.675781 94.046875 164.867188 94.648438 164.996094 95.269531 C 165.128906 95.886719 165.199219 96.511719 165.210938 97.148438 C 165.21875 97.78125 165.164062 98.40625 165.050781 99.03125 C 164.933594 99.652344 164.757812 100.257812 164.523438 100.847656 C 164.289062 101.433594 164 101.992188 163.65625 102.523438 C 163.3125 103.054688 162.917969 103.546875 162.476562 104.003906 C 162.035156 104.457031 161.550781 104.863281 161.03125 105.222656 C 160.507812 105.582031 159.957031 105.886719 159.375 106.136719 C 158.792969 106.386719 158.191406 106.578125 157.570312 106.707031 C 156.949219 106.839844 156.324219 106.910156 155.691406 106.917969 C 155.054688 106.929688 154.429688 106.875 153.804688 106.761719 C 153.179688 106.644531 152.574219 106.46875 151.988281 106.234375 C 151.398438 106 150.835938 105.710938 150.304688 105.367188 C 149.773438 105.023438 149.28125 104.628906 148.828125 104.1875 C 148.371094 103.746094 147.964844 103.265625 147.605469 102.746094 C 147.246094 102.222656 146.941406 101.671875 146.691406 101.089844 C 146.441406 100.507812 146.25 99.90625 146.117188 99.289062 C 145.984375 98.667969 145.914062 98.042969 145.90625 97.410156 C 145.898438 96.777344 145.953125 96.148438 146.066406 95.527344 C 146.183594 94.902344 146.355469 94.296875 146.589844 93.710938 C 146.824219 93.121094 147.117188 92.5625 147.460938 92.03125 C 147.804688 91.5 148.199219 91.007812 148.640625 90.554688 C 149.082031 90.101562 149.566406 89.695312 150.085938 89.335938 C 150.609375 88.976562 151.160156 88.671875 151.742188 88.421875 C 152.324219 88.171875 152.925781 87.980469 153.546875 87.847656 C 154.164062 87.714844 154.792969 87.644531 155.425781 87.636719 C 156.058594 87.628906 156.6875 87.683594 157.3125 87.796875 C 157.933594 87.910156 158.539062 88.085938 159.128906 88.320312 C 159.71875 88.554688 160.277344 88.84375 160.808594 89.1875 C 161.34375 89.535156 161.835938 89.925781 162.289062 90.367188 C 162.742188 90.808594 163.148438 91.289062 163.507812 91.8125 Z M 163.507812 91.8125 " fill-opacity="1" fill-rule="nonzero"/><path fill="#4b0376" d="M 161.316406 122.417969 L 144.992188 114.335938 L 144.699219 102.539062 L 144.621094 99.429688 C 144.652344 98.785156 144.566406 98.140625 144.332031 97.519531 C 143.132812 94.316406 139.195312 91.351562 133.699219 92.15625 L 137.828125 94.878906 C 139.863281 96.21875 140.425781 98.960938 139.082031 100.996094 C 138.261719 102.234375 136.882812 102.976562 135.390625 102.976562 C 134.527344 102.976562 133.6875 102.722656 132.960938 102.246094 L 123.078125 95.730469 C 118.957031 97.660156 115.375 100.15625 110.960938 104.007812 C 106.402344 108.648438 107.855469 112.671875 109.898438 115.789062 C 110.003906 115.980469 110.117188 116.167969 110.25 116.347656 L 117.046875 125.710938 L 99.945312 127.964844 C 97.011719 128.347656 94.945312 131.042969 95.332031 133.972656 C 95.6875 136.667969 97.992188 138.628906 100.640625 138.628906 C 100.875 138.628906 101.109375 138.617188 101.347656 138.585938 L 127.371094 135.15625 C 129.246094 134.910156 130.851562 133.695312 131.597656 131.960938 C 132.34375 130.226562 132.121094 128.226562 131.011719 126.699219 L 122.203125 114.570312 C 127.277344 111.128906 133.425781 108.710938 137.9375 106.761719 L 137.964844 107.824219 L 138.183594 116.574219 C 138.214844 117.847656 138.949219 118.996094 140.089844 119.5625 L 158.269531 128.558594 C 158.757812 128.800781 159.277344 128.917969 159.789062 128.917969 C 161.050781 128.917969 162.269531 128.21875 162.867188 127.011719 C 163.710938 125.316406 163.015625 123.257812 161.316406 122.417969 Z M 161.316406 122.417969 " fill-opacity="1" fill-rule="nonzero"/><path fill="#4b0376" d="M 133.503906 101.425781 C 134.085938 101.808594 134.742188 101.992188 135.390625 101.992188 C 136.507812 101.992188 137.597656 101.449219 138.257812 100.453125 C 139.304688 98.871094 138.867188 96.746094 137.285156 95.703125 L 122.984375 86.273438 C 122.273438 85.804688 121.410156 85.613281 120.566406 85.746094 L 103.121094 88.460938 C 101.25 88.753906 99.96875 90.503906 100.261719 92.375 C 100.550781 94.246094 102.304688 95.53125 104.179688 95.238281 L 120.3125 92.726562 Z M 133.503906 101.425781 " fill-opacity="1" fill-rule="nonzero"/><path fill="#4b0376" d="M 89.941406 100.480469 L 107.648438 100.480469 L 107.648438 101.359375 L 89.941406 101.359375 Z M 89.941406 100.480469 " fill-opacity="1" fill-rule="nonzero"/><path fill="#4b0376" d="M 86.25 105.746094 L 103.960938 105.746094 L 103.960938 106.625 L 86.25 106.625 Z M 86.25 105.746094 " fill-opacity="1" fill-rule="nonzero"/><path fill="#4b0376" d="M 75.226562 103.113281 L 100.640625 103.113281 L 100.640625 103.992188 L 75.226562 103.992188 Z M 75.226562 103.113281 " fill-opacity="1" fill-rule="nonzero"/><path fill="#4b0376" d="M 130.90625 142.261719 L 148.617188 142.261719 L 148.617188 143.140625 L 130.90625 143.140625 Z M 130.90625 142.261719 " fill-opacity="1" fill-rule="nonzero"/><path fill="#4b0376" d="M 127.21875 147.527344 L 144.929688 147.527344 L 144.929688 148.40625 L 127.21875 148.40625 Z M 127.21875 147.527344 " fill-opacity="1" fill-rule="nonzero"/><path fill="#4b0376" d="M 116.195312 144.894531 L 141.605469 144.894531 L 141.605469 145.773438 L 116.195312 145.773438 Z M 116.195312 144.894531 " fill-opacity="1" fill-rule="nonzero"/><g fill="#cca9fd" fill-opacity="1"><g transform="translate(187.092432, 130.834337)"><g><path d="M 25.289062 -44.058594 C 25.289062 -44.617188 24.949219 -44.957031 24.390625 -44.957031 L 3.707031 -44.957031 C 3.089844 -44.957031 2.808594 -44.617188 2.808594 -44.058594 L 2.808594 -0.898438 C 2.808594 -0.335938 3.089844 0 3.707031 0 L 9.554688 0 C 10.113281 0 10.453125 -0.335938 10.453125 -0.898438 L 10.453125 -18.824219 L 21.015625 -18.824219 C 21.578125 -18.824219 21.917969 -19.105469 21.917969 -19.722656 L 21.917969 -25.34375 C 21.917969 -25.90625 21.578125 -26.242188 21.015625 -26.242188 L 10.453125 -26.242188 L 10.453125 -37.539062 L 24.390625 -37.539062 C 24.949219 -37.539062 25.289062 -37.875 25.289062 -38.4375 Z M 25.289062 -44.058594 "/></g></g></g><g fill="#cca9fd" fill-opacity="1"><g transform="translate(215.184553, 130.834337)"><g><path d="M 3.707031 -44.957031 C 3.089844 -44.957031 2.808594 -44.617188 2.808594 -44.058594 L 2.808594 -0.898438 C 2.808594 -0.335938 3.089844 0 3.707031 0 L 9.554688 0 C 10.113281 0 10.453125 -0.335938 10.453125 -0.898438 L 10.453125 -44.058594 C 10.453125 -44.617188 10.113281 -44.957031 9.554688 -44.957031 Z M 3.707031 -44.957031 "/></g></g></g><g fill="#cca9fd" fill-opacity="1"><g transform="translate(228.444027, 130.834337)"><g><path d="M 10.902344 -44.957031 C 5.675781 -44.957031 2.808594 -42.148438 2.808594 -36.863281 L 2.808594 -23.601562 C 2.808594 -22.535156 3.316406 -21.859375 4.328125 -21.523438 L 17.644531 -17.140625 L 17.644531 -9.664062 C 17.644531 -8.148438 16.859375 -7.417969 15.398438 -7.417969 L 12.699219 -7.417969 C 11.296875 -7.417969 10.453125 -8.148438 10.453125 -9.664062 L 10.453125 -13.992188 C 10.453125 -14.609375 10.171875 -14.890625 9.554688 -14.890625 L 3.707031 -14.890625 C 3.148438 -14.890625 2.808594 -14.609375 2.808594 -13.992188 L 2.808594 -8.09375 C 2.808594 -2.808594 5.675781 0 10.902344 0 L 17.195312 0 C 22.476562 0 25.289062 -2.808594 25.289062 -8.09375 L 25.289062 -21.074219 C 25.289062 -22.140625 24.78125 -22.757812 23.828125 -23.152344 L 10.453125 -27.535156 L 10.453125 -35.289062 C 10.453125 -36.75 11.296875 -37.539062 12.699219 -37.539062 L 15.398438 -37.539062 C 16.914062 -37.539062 17.644531 -36.75 17.644531 -35.289062 L 17.644531 -30.90625 C 17.644531 -30.34375 17.984375 -30.007812 18.542969 -30.007812 L 24.390625 -30.007812 C 25.007812 -30.007812 25.289062 -30.34375 25.289062 -30.90625 L 25.289062 -36.863281 C 25.289062 -42.148438 22.476562 -44.957031 17.195312 -44.957031 Z M 10.902344 -44.957031 "/></g></g></g><g fill="#cca9fd" fill-opacity="1"><g transform="translate(256.536148, 130.834337)"><g><path d="M 17.644531 -26.1875 L 10.453125 -26.1875 L 10.453125 -44.058594 C 10.453125 -44.617188 10.113281 -44.957031 9.554688 -44.957031 L 3.765625 -44.957031 C 3.089844 -44.957031 2.808594 -44.617188 2.808594 -44.058594 L 2.808594 -0.898438 C 2.808594 -0.335938 3.089844 0 3.765625 0 L 9.554688 0 C 10.113281 0 10.453125 -0.335938 10.453125 -0.898438 L 10.453125 -18.769531 L 17.644531 -18.769531 L 17.644531 -0.898438 C 17.644531 -0.335938 17.984375 0 18.542969 0 L 24.332031 0 C 25.007812 0 25.289062 -0.335938 25.289062 -0.898438 L 25.289062 -44.058594 C 25.289062 -44.617188 25.007812 -44.957031 24.332031 -44.957031 L 18.542969 -44.957031 C 17.984375 -44.957031 17.644531 -44.617188 17.644531 -44.058594 Z M 17.644531 -26.1875 "/></g></g></g><g fill="#cca9fd" fill-opacity="1"><g transform="translate(284.628269, 130.834337)"><g><path d="M 25.230469 -44.058594 C 25.230469 -44.617188 25.007812 -44.957031 24.332031 -44.957031 L 3.652344 -44.957031 C 3.148438 -44.957031 2.808594 -44.617188 2.808594 -44.058594 L 2.808594 -0.898438 C 2.808594 -0.335938 3.148438 0 3.652344 0 L 24.332031 0 C 25.007812 0 25.230469 -0.335938 25.230469 -0.898438 L 25.230469 -6.519531 C 25.230469 -7.136719 25.007812 -7.417969 24.332031 -7.417969 L 10.285156 -7.417969 L 10.285156 -18.769531 L 21.015625 -18.769531 C 21.578125 -18.769531 21.917969 -19.105469 21.917969 -19.722656 L 21.917969 -25.289062 C 21.917969 -25.90625 21.578125 -26.242188 21.015625 -26.242188 L 10.285156 -26.242188 L 10.285156 -37.480469 L 24.332031 -37.480469 C 25.007812 -37.480469 25.230469 -37.875 25.230469 -38.4375 Z M 25.230469 -44.058594 "/></g></g></g><g fill="#cca9fd" fill-opacity="1"><g transform="translate(312.664196, 130.834337)"><g><path d="M 10.453125 -7.417969 L 23.828125 -7.417969 C 24.445312 -7.417969 24.726562 -7.082031 24.726562 -6.519531 L 24.726562 -0.898438 C 24.726562 -0.28125 24.445312 0 23.828125 0 L 3.707031 0 C 3.148438 0 2.808594 -0.28125 2.808594 -0.898438 L 2.808594 -44.058594 C 2.808594 -44.617188 3.148438 -44.957031 3.707031 -44.957031 L 9.554688 -44.957031 C 10.171875 -44.957031 10.453125 -44.617188 10.453125 -44.058594 Z M 10.453125 -7.417969 "/></g></g></g><g fill="#4b0376" fill-opacity="1"><g transform="translate(328.45639, 148.659342)"><g><path d="M 1.390625 -12.734375 L 12.96875 -18.3125 C 14.414062 -13.445312 18.164062 -11.015625 24.21875 -11.015625 C 26.851562 -11.015625 29.035156 -11.894531 30.765625 -13.65625 C 32.503906 -15.414062 33.375 -17.640625 33.375 -20.328125 C 33.375 -23.023438 32.53125 -25.238281 30.84375 -26.96875 C 29.164062 -28.707031 27.148438 -29.910156 24.796875 -30.578125 C 22.441406 -31.253906 19.765625 -31.59375 16.765625 -31.59375 C 12.523438 -31.59375 8.878906 -30.921875 5.828125 -29.578125 L 11.171875 -64.046875 L 43.859375 -64.046875 L 43.859375 -51.234375 L 23.671875 -51.234375 L 22.28125 -42.3125 C 22.4375 -42.3125 22.71875 -42.320312 23.125 -42.34375 C 23.539062 -42.375 23.851562 -42.390625 24.0625 -42.390625 C 27.320312 -42.390625 30.285156 -42.023438 32.953125 -41.296875 C 35.617188 -40.566406 38.128906 -39.398438 40.484375 -37.796875 C 42.835938 -36.191406 44.671875 -33.863281 45.984375 -30.8125 C 47.304688 -27.757812 47.96875 -24.113281 47.96875 -19.875 C 47.96875 -13.769531 45.726562 -8.734375 41.25 -4.765625 C 36.78125 -0.804688 31.101562 1.171875 24.21875 1.171875 C 17.957031 1.171875 12.9375 -0.1875 9.15625 -2.90625 C 5.382812 -5.625 2.796875 -8.898438 1.390625 -12.734375 Z M 1.390625 -12.734375 "/></g></g></g><g fill="#4b0376" fill-opacity="1"><g transform="translate(378.210792, 148.659342)"><g><path d="M 62.953125 0 L 42.84375 0 L 19.25 -27.171875 L 19.25 0 L 4.65625 0 L 4.65625 -64.046875 L 19.25 -64.046875 L 19.25 -37.875 L 41.21875 -64.046875 L 58.921875 -64.046875 L 33.140625 -33.6875 Z M 62.953125 0 "/></g></g></g><path stroke-linecap="round" transform="matrix(0.000000000000000052, -0.849217, 0.848901, 0.000000000000000052, 175.043068, 155.144913)" fill="none" stroke-linejoin="miter" d="M 3.500916 3.501654 L 80.469795 3.501654 " stroke="#cca9fd" stroke-width="7" stroke-opacity="1" stroke-miterlimit="4"/><g fill="#4b0376" fill-opacity="1"><g transform="translate(197.396478, 147.626032)"><g><path d="M 9.484375 0 L 7.421875 0 L 6.6875 -2.28125 L 2.90625 -2.28125 L 2.15625 0 L 0.15625 0 L 3.5625 -9.875 L 6.0625 -9.875 Z M 4.703125 -7.828125 L 3.421875 -3.921875 L 6.140625 -3.921875 L 4.859375 -7.828125 Z M 4.703125 -7.828125 "/></g></g></g><g fill="#4b0376" fill-opacity="1"><g transform="translate(207.01845, 147.626032)"><g><path d="M 5.40625 0.140625 C 4.488281 0.140625 3.679688 -0.046875 2.984375 -0.421875 C 2.296875 -0.804688 1.753906 -1.375 1.359375 -2.125 C 0.972656 -2.882812 0.78125 -3.820312 0.78125 -4.9375 C 0.78125 -6.050781 0.972656 -6.988281 1.359375 -7.75 C 1.753906 -8.507812 2.296875 -9.078125 2.984375 -9.453125 C 3.679688 -9.835938 4.488281 -10.03125 5.40625 -10.03125 C 6.351562 -10.03125 7.160156 -9.84375 7.828125 -9.46875 C 8.492188 -9.09375 8.96875 -8.523438 9.25 -7.765625 L 7.828125 -6.890625 L 7.65625 -6.90625 C 7.4375 -7.414062 7.144531 -7.78125 6.78125 -8 C 6.425781 -8.226562 5.96875 -8.34375 5.40625 -8.34375 C 4.582031 -8.34375 3.941406 -8.070312 3.484375 -7.53125 C 3.023438 -6.988281 2.796875 -6.125 2.796875 -4.9375 C 2.796875 -3.757812 3.023438 -2.898438 3.484375 -2.359375 C 3.941406 -1.816406 4.582031 -1.546875 5.40625 -1.546875 C 6.6875 -1.546875 7.472656 -2.171875 7.765625 -3.421875 L 7.921875 -3.421875 L 9.375 -2.671875 C 9.101562 -1.734375 8.640625 -1.03125 7.984375 -0.5625 C 7.328125 -0.09375 6.46875 0.140625 5.40625 0.140625 Z M 5.40625 0.140625 "/></g></g></g><g fill="#4b0376" fill-opacity="1"><g transform="translate(216.701184, 147.626032)"><g><path d="M 3.234375 -4.34375 L 3.234375 -1.640625 L 7.953125 -1.640625 L 7.953125 0 L 1.28125 0 L 1.28125 -9.875 L 7.84375 -9.875 L 7.84375 -8.25 L 3.234375 -8.25 L 3.234375 -5.9375 L 7.265625 -5.9375 L 7.265625 -4.34375 Z M 3.234375 -4.34375 "/></g></g></g><g fill="#4b0376" fill-opacity="1"><g transform="translate(225.188776, 147.626032)"><g/></g></g><g fill="#4b0376" fill-opacity="1"><g transform="translate(228.450122, 147.626032)"><g><path d="M 7.546875 -9.875 L 7.546875 -8.25 L 3.234375 -8.25 L 3.234375 -5.625 L 7.15625 -5.625 L 7.15625 -4.015625 L 3.234375 -4.015625 L 3.234375 0 L 1.28125 0 L 1.28125 -9.875 Z M 7.546875 -9.875 "/></g></g></g><g fill="#4b0376" fill-opacity="1"><g transform="translate(236.431288, 147.626032)"><g><path d="M 5.390625 0.140625 C 4.484375 0.140625 3.679688 -0.0390625 2.984375 -0.40625 C 2.296875 -0.78125 1.753906 -1.347656 1.359375 -2.109375 C 0.972656 -2.867188 0.78125 -3.8125 0.78125 -4.9375 C 0.78125 -6.070312 0.972656 -7.019531 1.359375 -7.78125 C 1.753906 -8.539062 2.296875 -9.101562 2.984375 -9.46875 C 3.679688 -9.84375 4.484375 -10.03125 5.390625 -10.03125 C 6.296875 -10.03125 7.09375 -9.84375 7.78125 -9.46875 C 8.46875 -9.101562 9.003906 -8.539062 9.390625 -7.78125 C 9.785156 -7.019531 9.984375 -6.070312 9.984375 -4.9375 C 9.984375 -3.8125 9.785156 -2.863281 9.390625 -2.09375 C 9.003906 -1.332031 8.46875 -0.769531 7.78125 -0.40625 C 7.09375 -0.0390625 6.296875 0.140625 5.390625 0.140625 Z M 5.390625 -1.5625 C 6.222656 -1.5625 6.859375 -1.828125 7.296875 -2.359375 C 7.742188 -2.898438 7.96875 -3.757812 7.96875 -4.9375 C 7.96875 -6.125 7.742188 -6.984375 7.296875 -7.515625 C 6.859375 -8.054688 6.222656 -8.328125 5.390625 -8.328125 C 4.546875 -8.328125 3.898438 -8.054688 3.453125 -7.515625 C 3.015625 -6.984375 2.796875 -6.125 2.796875 -4.9375 C 2.796875 -3.757812 3.015625 -2.898438 3.453125 -2.359375 C 3.898438 -1.828125 4.546875 -1.5625 5.390625 -1.5625 Z M 5.390625 -1.5625 "/></g></g></g><g fill="#4b0376" fill-opacity="1"><g transform="translate(247.187638, 147.626032)"><g><path d="M 1.28125 0 L 1.28125 -9.875 L 5.25 -9.875 C 6.269531 -9.875 7.039062 -9.640625 7.5625 -9.171875 C 8.082031 -8.703125 8.34375 -8.050781 8.34375 -7.21875 C 8.34375 -6.625 8.191406 -6.132812 7.890625 -5.75 C 7.585938 -5.363281 7.132812 -5.070312 6.53125 -4.875 L 6.53125 -4.734375 C 6.84375 -4.597656 7.09375 -4.394531 7.28125 -4.125 C 7.476562 -3.863281 7.660156 -3.472656 7.828125 -2.953125 L 8.8125 0 L 6.8125 0 L 5.84375 -2.953125 C 5.738281 -3.253906 5.625 -3.484375 5.5 -3.640625 C 5.375 -3.804688 5.21875 -3.925781 5.03125 -4 C 4.84375 -4.070312 4.59375 -4.109375 4.28125 -4.109375 L 3.234375 -4.109375 L 3.234375 0 Z M 5.015625 -5.671875 C 5.960938 -5.671875 6.4375 -6.109375 6.4375 -6.984375 C 6.4375 -7.878906 5.960938 -8.328125 5.015625 -8.328125 L 3.234375 -8.328125 L 3.234375 -5.671875 Z M 5.015625 -5.671875 "/></g></g></g><g fill="#4b0376" fill-opacity="1"><g transform="translate(256.417979, 147.626032)"><g/></g></g><g fill="#4b0376" fill-opacity="1"><g transform="translate(259.679325, 147.626032)"><g><path d="M 7.921875 -9.875 L 7.921875 -8.234375 L 5.0625 -8.234375 L 5.0625 0 L 3.125 0 L 3.125 -8.234375 L 0.265625 -8.234375 L 0.265625 -9.875 Z M 7.921875 -9.875 "/></g></g></g><g fill="#4b0376" fill-opacity="1"><g transform="translate(267.863059, 147.626032)"><g><path d="M 7.671875 -6.171875 L 7.671875 -9.875 L 9.609375 -9.875 L 9.609375 0 L 7.671875 0 L 7.671875 -4.5 L 3.234375 -4.5 L 3.234375 0 L 1.28125 0 L 1.28125 -9.875 L 3.234375 -9.875 L 3.234375 -6.171875 Z M 7.671875 -6.171875 "/></g></g></g><g fill="#4b0376" fill-opacity="1"><g transform="translate(278.754454, 147.626032)"><g><path d="M 3.234375 -4.34375 L 3.234375 -1.640625 L 7.953125 -1.640625 L 7.953125 0 L 1.28125 0 L 1.28125 -9.875 L 7.84375 -9.875 L 7.84375 -8.25 L 3.234375 -8.25 L 3.234375 -5.9375 L 7.265625 -5.9375 L 7.265625 -4.34375 Z M 3.234375 -4.34375 "/></g></g></g><g fill="#4b0376" fill-opacity="1"><g transform="translate(287.242046, 147.626032)"><g/></g></g><g fill="#4b0376" fill-opacity="1"><g transform="translate(290.503392, 147.626032)"><g><path d="M 5.40625 0.140625 C 4.488281 0.140625 3.679688 -0.046875 2.984375 -0.421875 C 2.296875 -0.804688 1.753906 -1.375 1.359375 -2.125 C 0.972656 -2.882812 0.78125 -3.820312 0.78125 -4.9375 C 0.78125 -6.050781 0.972656 -6.988281 1.359375 -7.75 C 1.753906 -8.507812 2.296875 -9.078125 2.984375 -9.453125 C 3.679688 -9.835938 4.488281 -10.03125 5.40625 -10.03125 C 6.351562 -10.03125 7.160156 -9.84375 7.828125 -9.46875 C 8.492188 -9.09375 8.96875 -8.523438 9.25 -7.765625 L 7.828125 -6.890625 L 7.65625 -6.90625 C 7.4375 -7.414062 7.144531 -7.78125 6.78125 -8 C 6.425781 -8.226562 5.96875 -8.34375 5.40625 -8.34375 C 4.582031 -8.34375 3.941406 -8.070312 3.484375 -7.53125 C 3.023438 -6.988281 2.796875 -6.125 2.796875 -4.9375 C 2.796875 -3.757812 3.023438 -2.898438 3.484375 -2.359375 C 3.941406 -1.816406 4.582031 -1.546875 5.40625 -1.546875 C 6.6875 -1.546875 7.472656 -2.171875 7.765625 -3.421875 L 7.921875 -3.421875 L 9.375 -2.671875 C 9.101562 -1.734375 8.640625 -1.03125 7.984375 -0.5625 C 7.328125 -0.09375 6.46875 0.140625 5.40625 0.140625 Z M 5.40625 0.140625 "/></g></g></g><g fill="#4b0376" fill-opacity="1"><g transform="translate(300.186127, 147.626032)"><g><path d="M 5.234375 0.140625 C 3.878906 0.140625 2.867188 -0.179688 2.203125 -0.828125 C 1.546875 -1.472656 1.21875 -2.429688 1.21875 -3.703125 L 1.21875 -9.875 L 3.140625 -9.875 L 3.140625 -3.71875 C 3.140625 -3 3.3125 -2.457031 3.65625 -2.09375 C 4 -1.738281 4.523438 -1.5625 5.234375 -1.5625 C 6.640625 -1.5625 7.34375 -2.28125 7.34375 -3.71875 L 7.34375 -9.875 L 9.25 -9.875 L 9.25 -3.703125 C 9.25 -2.429688 8.921875 -1.472656 8.265625 -0.828125 C 7.609375 -0.179688 6.597656 0.140625 5.234375 0.140625 Z M 5.234375 0.140625 "/></g></g></g><g fill="#4b0376" fill-opacity="1"><g transform="translate(310.652122, 147.626032)"><g><path d="M 1.28125 0 L 1.28125 -9.875 L 5.25 -9.875 C 6.269531 -9.875 7.039062 -9.640625 7.5625 -9.171875 C 8.082031 -8.703125 8.34375 -8.050781 8.34375 -7.21875 C 8.34375 -6.625 8.191406 -6.132812 7.890625 -5.75 C 7.585938 -5.363281 7.132812 -5.070312 6.53125 -4.875 L 6.53125 -4.734375 C 6.84375 -4.597656 7.09375 -4.394531 7.28125 -4.125 C 7.476562 -3.863281 7.660156 -3.472656 7.828125 -2.953125 L 8.8125 0 L 6.8125 0 L 5.84375 -2.953125 C 5.738281 -3.253906 5.625 -3.484375 5.5 -3.640625 C 5.375 -3.804688 5.21875 -3.925781 5.03125 -4 C 4.84375 -4.070312 4.59375 -4.109375 4.28125 -4.109375 L 3.234375 -4.109375 L 3.234375 0 Z M 5.015625 -5.671875 C 5.960938 -5.671875 6.4375 -6.109375 6.4375 -6.984375 C 6.4375 -7.878906 5.960938 -8.328125 5.015625 -8.328125 L 3.234375 -8.328125 L 3.234375 -5.671875 Z M 5.015625 -5.671875 "/></g></g></g><g fill="#4b0376" fill-opacity="1"><g transform="translate(319.882463, 147.626032)"><g><path d="M 3.234375 -4.34375 L 3.234375 -1.640625 L 7.953125 -1.640625 L 7.953125 0 L 1.28125 0 L 1.28125 -9.875 L 7.84375 -9.875 L 7.84375 -8.25 L 3.234375 -8.25 L 3.234375 -5.9375 L 7.265625 -5.9375 L 7.265625 -4.34375 Z M 3.234375 -4.34375 "/></g></g></g></svg>